<svg width="193" height="16" viewBox="0 0 193 16" fill="none" xmlns="http://www.w3.org/2000/svg">
<path d="M1 6.99999C0.447715 6.99999 2.41411e-08 7.44771 0 7.99999C-2.41411e-08 8.55228 0.447715 8.99999 1 8.99999L1 6.99999ZM192.707 8.70711C193.098 8.31658 193.098 7.68342 192.707 7.29289L186.343 0.928932C185.953 0.538408 185.319 0.538408 184.929 0.928932C184.538 1.31946 184.538 1.95262 184.929 2.34315L190.586 8L184.929 13.6569C184.538 14.0474 184.538 14.6805 184.929 15.0711C185.319 15.4616 185.953 15.4616 186.343 15.0711L192.707 8.70711ZM1 8.99999L192 9L192 7L1 6.99999L1 8.99999Z" fill="url(#paint0_linear_22_202)"/>
<defs>
<linearGradient id="paint0_linear_22_202" x1="187.964" y1="8.0716" x2="187.962" y2="9.11565" gradientUnits="userSpaceOnUse">
<stop stop-color="#0044FF"/>
<stop offset="1" stop-color="#00A3FF"/>
</linearGradient>
</defs>
</svg>
