<svg width="185" height="179" viewBox="0 0 185 179" fill="none" xmlns="http://www.w3.org/2000/svg">
<path d="M31 77C27.4932 78.7674 29.1405 82.1509 23.5 83.5C17.8595 84.8491 21.5785 88.283 16 90C10.4215 91.717 13.1488 96.1321 8.5 96.5C3.85124 96.8679 4.28946 100.987 1 103" stroke="url(#paint0_linear_110_633)" stroke-width="2" stroke-linecap="round" stroke-linejoin="round"/>
<path d="M44 89C40.4932 90.7674 42.1405 94.1509 36.5 95.5C30.8595 96.8491 34.5785 100.283 29 102C23.4215 103.717 26.1488 108.132 21.5 108.5C16.8512 108.868 17.2895 112.987 14 115" stroke="url(#paint1_linear_110_633)" stroke-width="2" stroke-linecap="round" stroke-linejoin="round"/>
<path d="M57 100C53.4932 101.767 55.1405 105.151 49.5 106.5C43.8595 107.849 47.5785 111.283 42 113C36.4215 114.717 39.1488 119.132 34.5 119.5C29.8512 119.868 30.2895 123.987 27 126" stroke="url(#paint2_linear_110_633)" stroke-width="2" stroke-linecap="round" stroke-linejoin="round"/>
<path d="M70 110C66.4932 111.767 68.1405 115.151 62.5 116.5C56.8595 117.849 60.5785 121.283 55 123C49.4215 124.717 52.1488 129.132 47.5 129.5C42.8512 129.868 43.2895 133.987 40 136" stroke="url(#paint3_linear_110_633)" stroke-width="2" stroke-linecap="round" stroke-linejoin="round"/>
<path d="M81 120C77.4932 121.767 79.1405 125.151 73.5 126.5C67.8595 127.849 71.5785 131.283 66 133C60.4215 134.717 63.1488 139.132 58.5 139.5C53.8512 139.868 54.2895 143.987 51 146" stroke="url(#paint4_linear_110_633)" stroke-width="2" stroke-linecap="round" stroke-linejoin="round"/>
<path d="M93 130C89.4932 131.767 91.1405 135.151 85.5 136.5C79.8595 137.849 83.5785 141.283 78 143C72.4215 144.717 75.1488 149.132 70.5 149.5C65.8512 149.868 66.2895 153.987 63 156" stroke="url(#paint5_linear_110_633)" stroke-width="2" stroke-linecap="round" stroke-linejoin="round"/>
<path d="M106.5 141.5C102.993 143.267 105.14 146.151 99.5 147.5C93.8595 148.849 97.5785 152.283 92 154C86.4215 155.717 89.1488 160.132 84.5 160.5C79.8512 160.868 80.2895 164.987 77 167" stroke="url(#paint6_linear_110_633)" stroke-width="2" stroke-linecap="round" stroke-linejoin="round"/>
<path d="M119 152C115.493 153.767 117.14 157.151 111.5 158.5C105.86 159.849 109.579 163.283 104 165C98.4215 166.717 101.149 171.132 96.5 171.5C91.8512 171.868 92.2895 175.987 89 178" stroke="url(#paint7_linear_110_633)" stroke-width="2" stroke-linecap="round" stroke-linejoin="round"/>
<path d="M38 83C34.6101 84.7674 36.2025 88.1509 30.75 89.5C25.2975 90.8491 28.8926 94.283 23.5 96C18.1074 97.717 20.7438 102.132 16.25 102.5C11.7562 102.868 12.1798 106.987 9 109" stroke="url(#paint8_linear_110_633)" stroke-width="2" stroke-linecap="round" stroke-linejoin="round"/>
<path d="M50 94C46.6101 95.7674 48.2025 99.1509 42.75 100.5C37.2975 101.849 40.8926 105.283 35.5 107C30.1074 108.717 32.7438 113.132 28.25 113.5C23.7562 113.868 24.1798 117.987 21 120" stroke="url(#paint9_linear_110_633)" stroke-width="2" stroke-linecap="round" stroke-linejoin="round"/>
<path d="M63 105C59.6101 106.767 61.2025 110.151 55.75 111.5C50.2975 112.849 53.8926 116.283 48.5 118C43.1074 119.717 45.7438 124.132 41.25 124.5C36.7562 124.868 37.1798 128.987 34 131" stroke="url(#paint10_linear_110_633)" stroke-width="2" stroke-linecap="round" stroke-linejoin="round"/>
<path d="M76 115C72.6101 116.767 74.2025 120.151 68.75 121.5C63.2975 122.849 66.8926 126.283 61.5 128C56.1074 129.717 58.7438 134.132 54.25 134.5C49.7562 134.868 50.1798 138.987 47 141" stroke="url(#paint11_linear_110_633)" stroke-width="2" stroke-linecap="round" stroke-linejoin="round"/>
<path d="M87 125C83.6101 126.767 85.2025 130.151 79.75 131.5C74.2975 132.849 77.8926 136.283 72.5 138C67.1074 139.717 69.7438 144.132 65.25 144.5C60.7562 144.868 61.1798 148.987 58 151" stroke="url(#paint12_linear_110_633)" stroke-width="2" stroke-linecap="round" stroke-linejoin="round"/>
<path d="M99 136C95.6101 137.767 97.2025 141.151 91.75 142.5C86.2975 143.849 89.8926 147.283 84.5 149C79.1074 150.717 81.7438 155.132 77.25 155.5C72.7562 155.868 73.1798 159.987 70 162" stroke="url(#paint13_linear_110_633)" stroke-width="2" stroke-linecap="round" stroke-linejoin="round"/>
<path d="M112 147C108.61 148.767 110.202 152.151 104.75 153.5C99.2975 154.849 102.893 158.283 97.5 160C92.1074 161.717 94.7438 166.132 90.25 166.5C85.7562 166.868 86.1798 170.987 83 173" stroke="url(#paint14_linear_110_633)" stroke-width="2" stroke-linecap="round" stroke-linejoin="round"/>
<path d="M88 91.0688L177 2.06874C180 -0.931244 185.3 2.96874 182.5 6.56874C179.7 10.1687 122 67.4021 93.5 95.5688" stroke="url(#paint15_linear_110_633)" stroke-width="2" stroke-linejoin="round"/>
<path d="M41.5 66L31 76.5L119.5 152C120.5 150.5 123.9 146.1 129.5 140.5C135.1 134.9 129.833 127.167 126.5 124C105.833 106.333 63.2 69.7 58 64.5C52.8 59.3 44.8333 63.3333 41.5 66Z" stroke="url(#paint16_linear_110_633)" stroke-width="2" stroke-linejoin="round"/>
<defs>
<linearGradient id="paint0_linear_110_633" x1="4.63017" y1="75.984" x2="25.5581" y2="107.015" gradientUnits="userSpaceOnUse">
<stop stop-color="#0044FF"/>
<stop offset="1" stop-color="#00A3FF"/>
</linearGradient>
<linearGradient id="paint1_linear_110_633" x1="17.6302" y1="87.984" x2="38.5581" y2="119.015" gradientUnits="userSpaceOnUse">
<stop stop-color="#0044FF"/>
<stop offset="1" stop-color="#00A3FF"/>
</linearGradient>
<linearGradient id="paint2_linear_110_633" x1="30.6302" y1="98.984" x2="51.5581" y2="130.015" gradientUnits="userSpaceOnUse">
<stop stop-color="#0044FF"/>
<stop offset="1" stop-color="#00A3FF"/>
</linearGradient>
<linearGradient id="paint3_linear_110_633" x1="43.6302" y1="108.984" x2="64.5581" y2="140.015" gradientUnits="userSpaceOnUse">
<stop stop-color="#0044FF"/>
<stop offset="1" stop-color="#00A3FF"/>
</linearGradient>
<linearGradient id="paint4_linear_110_633" x1="54.6302" y1="118.984" x2="75.5581" y2="150.015" gradientUnits="userSpaceOnUse">
<stop stop-color="#0044FF"/>
<stop offset="1" stop-color="#00A3FF"/>
</linearGradient>
<linearGradient id="paint5_linear_110_633" x1="66.6302" y1="128.984" x2="87.5581" y2="160.015" gradientUnits="userSpaceOnUse">
<stop stop-color="#0044FF"/>
<stop offset="1" stop-color="#00A3FF"/>
</linearGradient>
<linearGradient id="paint6_linear_110_633" x1="80.6302" y1="139.984" x2="101.558" y2="171.015" gradientUnits="userSpaceOnUse">
<stop stop-color="#0044FF"/>
<stop offset="1" stop-color="#00A3FF"/>
</linearGradient>
<linearGradient id="paint7_linear_110_633" x1="92.6302" y1="150.984" x2="113.558" y2="182.015" gradientUnits="userSpaceOnUse">
<stop stop-color="#0044FF"/>
<stop offset="1" stop-color="#00A3FF"/>
</linearGradient>
<linearGradient id="paint8_linear_110_633" x1="12.5092" y1="81.984" x2="33.6941" y2="112.349" gradientUnits="userSpaceOnUse">
<stop stop-color="#0044FF"/>
<stop offset="1" stop-color="#00A3FF"/>
</linearGradient>
<linearGradient id="paint9_linear_110_633" x1="24.5092" y1="92.984" x2="45.6941" y2="123.349" gradientUnits="userSpaceOnUse">
<stop stop-color="#0044FF"/>
<stop offset="1" stop-color="#00A3FF"/>
</linearGradient>
<linearGradient id="paint10_linear_110_633" x1="37.5092" y1="103.984" x2="58.6941" y2="134.349" gradientUnits="userSpaceOnUse">
<stop stop-color="#0044FF"/>
<stop offset="1" stop-color="#00A3FF"/>
</linearGradient>
<linearGradient id="paint11_linear_110_633" x1="50.5092" y1="113.984" x2="71.6941" y2="144.349" gradientUnits="userSpaceOnUse">
<stop stop-color="#0044FF"/>
<stop offset="1" stop-color="#00A3FF"/>
</linearGradient>
<linearGradient id="paint12_linear_110_633" x1="61.5092" y1="123.984" x2="82.6941" y2="154.349" gradientUnits="userSpaceOnUse">
<stop stop-color="#0044FF"/>
<stop offset="1" stop-color="#00A3FF"/>
</linearGradient>
<linearGradient id="paint13_linear_110_633" x1="73.5092" y1="134.984" x2="94.6941" y2="165.349" gradientUnits="userSpaceOnUse">
<stop stop-color="#0044FF"/>
<stop offset="1" stop-color="#00A3FF"/>
</linearGradient>
<linearGradient id="paint14_linear_110_633" x1="86.5092" y1="145.984" x2="107.694" y2="176.349" gradientUnits="userSpaceOnUse">
<stop stop-color="#0044FF"/>
<stop offset="1" stop-color="#00A3FF"/>
</linearGradient>
<linearGradient id="paint15_linear_110_633" x1="104.77" y1="-7.4092" x2="179.669" y2="88.84" gradientUnits="userSpaceOnUse">
<stop stop-color="#0044FF"/>
<stop offset="1" stop-color="#00A3FF"/>
</linearGradient>
<linearGradient id="paint16_linear_110_633" x1="43.2164" y1="58.4607" x2="116.427" y2="163.969" gradientUnits="userSpaceOnUse">
<stop stop-color="#0044FF"/>
<stop offset="1" stop-color="#00A3FF"/>
</linearGradient>
</defs>
</svg>
