<svg width="15" height="123" viewBox="0 0 15 123" fill="none" xmlns="http://www.w3.org/2000/svg">
<path d="M6.97825 1.20507C7.09151 0.664524 6.74512 0.134511 6.20458 0.0212528C5.66403 -0.0920049 5.13402 0.254382 5.02076 0.794929L6.97825 1.20507ZM5.16285 122.048C5.46536 122.51 6.08517 122.639 6.54724 122.337L14.0771 117.407C14.5392 117.105 14.6685 116.485 14.366 116.023C14.0635 115.561 13.4437 115.431 12.9816 115.734L6.28842 120.116L1.90653 113.422C1.60403 112.96 0.984215 112.831 0.522144 113.133C0.0600747 113.436 -0.069277 114.056 0.233228 114.518L5.16285 122.048ZM5.02076 0.794929C-0.519778 27.2383 2.50942 43.1437 5.38956 59.5479C8.25471 75.8668 10.9834 92.7237 5.02059 121.296L6.97841 121.704C13.0156 92.7763 10.2443 75.6332 7.35943 59.2021C4.48957 42.8563 1.51877 27.2617 6.97825 1.20507L5.02076 0.794929Z" fill="url(#paint0_linear_116_1799)"/>
<defs>
<linearGradient id="paint0_linear_116_1799" x1="12.4995" y1="37.5" x2="-35.1737" y2="53.6839" gradientUnits="userSpaceOnUse">
<stop stop-color="#0044FF"/>
<stop offset="1" stop-color="#00A3FF"/>
</linearGradient>
</defs>
</svg>
