<svg width="309" height="422" viewBox="0 0 309 422" fill="none" xmlns="http://www.w3.org/2000/svg">
<path d="M0.782052 418.164V42.4274C43.3787 44.8344 73.917 40.7558 98.2481 34.3202C116.481 29.4976 131.237 23.3452 144.911 17.6438C149.581 15.6968 154.124 13.8023 158.637 12.0314C176.376 5.07037 193.731 -0.0274186 216.698 0.888599C239.595 1.80182 268.129 8.69515 308.218 25.7823V401.454C270.537 389.828 241.65 386.227 217.238 387.095C192.606 387.972 172.573 393.397 152.724 399.661C149.238 400.761 145.757 401.887 142.257 403.02C106.067 414.728 67.8364 427.097 0.782052 418.164Z" fill="#101014" stroke="url(#paint0_linear_195_3296)" stroke-width="1.5641"/>
<defs>
<linearGradient id="paint0_linear_195_3296" x1="154.5" y1="0" x2="154.5" y2="422" gradientUnits="userSpaceOnUse">
<stop stop-color="#0044FF"/>
<stop offset="1" stop-color="#00A3FF"/>
</linearGradient>
</defs>
</svg>
