<svg width="577" height="668" viewBox="0 0 577 668" fill="none" xmlns="http://www.w3.org/2000/svg">
<path opacity="0.01" d="M451.276 588.09L459.494 565.387C467.713 542.683 484.151 497.276 444.922 446.999C405.693 396.722 310.798 341.575 314.865 295.086C318.933 248.597 421.962 210.766 413.659 163.195C405.356 115.623 285.72 58.3117 225.902 29.6558L166.085 0.999973" stroke="#0D34A0" stroke-width="2"/>
<path opacity="0.0621053" d="M470.018 578.279L476.137 555.154C482.257 532.029 494.496 485.779 451.659 439.529C408.822 393.279 310.909 347.029 310.909 300.779C310.909 254.529 408.822 208.279 396.583 162.029C384.343 115.779 261.952 69.5287 200.756 46.4037L139.561 23.2787" stroke="#0D34A0" stroke-width="2"/>
<path opacity="0.114211" d="M487.205 567.538L491.215 544.183C495.226 520.828 503.246 474.118 457.199 432.138C411.153 390.158 311.039 352.908 307.045 307.249C303.05 261.591 395.174 207.522 379.165 162.915C363.155 118.307 239.012 83.1595 176.941 65.5859L114.869 48.0122" stroke="#0D34A0" stroke-width="2"/>
<path opacity="0.166316" d="M502.804 556.002L504.712 532.607C506.619 509.212 510.435 462.422 461.592 424.917C412.749 387.412 311.248 359.193 303.362 314.466C295.475 269.739 381.203 208.506 361.615 165.842C342.026 123.179 217.122 99.0858 154.669 87.0391L92.2172 74.9925" stroke="#0D34A0" stroke-width="2"/>
<path opacity="0.218421" d="M516.783 543.809L516.612 520.561C516.441 497.313 516.099 450.817 464.885 417.953C413.67 385.088 311.582 365.855 299.935 322.388C288.288 278.922 367.082 211.221 344.13 170.784C321.178 130.347 196.481 117.172 134.132 110.584L71.7826 103.997" stroke="#0D34A0" stroke-width="2"/>
<path opacity="0.270526" d="M529.13 531.09L526.921 508.172C524.712 485.254 520.294 439.417 467.14 411.319C413.985 383.221 312.093 372.862 296.845 330.968C281.596 289.073 352.991 215.643 326.912 177.69C300.833 139.738 177.281 137.262 115.505 136.025L53.7282 134.787" stroke="#0D34A0" stroke-width="2"/>
<path opacity="0.322632" d="M539.837 517.978L535.646 495.566C531.455 473.154 523.073 428.33 468.414 405.086C413.754 381.841 312.817 380.177 294.151 340.148C275.486 300.119 339.092 221.727 310.142 186.494C281.192 151.261 159.687 159.187 98.9348 163.15L38.1822 167.113" stroke="#0D34A0" stroke-width="2"/>
<path opacity="0.374737" d="M548.911 504.603L542.81 482.866C536.709 461.13 524.506 417.657 468.778 399.313C413.05 380.97 313.796 387.756 291.921 349.867C270.046 311.979 325.55 229.416 294.002 197.111C262.455 164.807 143.856 182.762 84.5571 191.739L25.2578 200.716" stroke="#0D34A0" stroke-width="2"/>
<path opacity="0.426842" d="M556.366 491.088L548.439 470.187C540.513 449.287 524.661 407.487 468.297 394.054C411.932 380.62 315.056 395.553 290.201 360.057C265.346 324.56 312.512 238.634 278.655 209.441C244.797 180.248 129.915 207.789 72.4742 221.559L15.0332 235.33" stroke="#0D34A0" stroke-width="2"/>
<path opacity="0.478947" d="M562.227 477.554L552.575 457.641C542.923 437.728 523.619 397.903 467.045 389.351C410.47 380.799 316.625 403.52 289.039 370.644C261.452 337.768 300.125 249.294 264.256 223.368C228.388 197.442 117.978 234.063 62.7728 252.373L7.56788 270.684" stroke="#0D34A0" stroke-width="2"/>
<path opacity="0.531053" d="M566.526 464.118L555.259 445.332C543.993 426.547 521.46 388.976 465.091 385.24C408.723 381.504 318.519 411.604 288.467 381.552C258.415 351.5 288.515 261.296 250.944 238.763C213.373 216.23 108.131 261.368 55.51 283.936L2.88918 306.505" stroke="#0D34A0" stroke-width="2"/>
<path opacity="0.583158" d="M569.301 450.889L556.542 433.359C543.784 415.829 518.266 380.769 462.507 381.75C406.749 382.731 320.748 419.752 288.51 392.702C256.273 365.651 277.798 274.528 238.84 255.487C199.882 236.445 100.44 289.485 50.7198 316.004L0.999134 342.524" stroke="#0D34A0" stroke-width="2"/>
<path opacity="0.635263" d="M570.604 437.969L556.486 421.81C542.367 405.652 514.13 373.335 459.369 378.899C404.607 384.463 323.32 427.909 289.189 404.01C255.058 380.111 268.082 288.867 228.056 273.386C188.03 257.906 94.9546 318.187 48.4168 348.328L1.87906 378.469" stroke="#0D34A0" stroke-width="2"/>
<path opacity="0.687368" d="M570.486 425.458L555.148 410.773C539.811 396.088 509.137 366.718 455.741 376.701C402.346 386.685 326.23 436.022 290.506 415.397C254.783 394.772 259.452 304.185 218.679 292.305C177.907 280.425 91.6921 347.253 48.5848 380.667L5.4776 414.081" stroke="#0D34A0" stroke-width="2"/>
<path opacity="0.739474" d="M569.006 413.445L552.598 400.322C536.191 387.198 503.375 360.951 451.695 375.16C400.014 389.37 329.469 444.036 292.461 426.779C255.453 409.522 251.984 320.342 210.784 312.075C169.584 303.809 90.654 376.456 51.1888 412.779L11.7236 449.102" stroke="#0D34A0" stroke-width="2"/>
<path opacity="0.791579" d="M566.23 402.014L548.907 390.526C531.583 379.037 496.935 356.06 447.295 374.275C397.655 392.491 333.022 451.898 295.042 438.075C257.063 424.252 245.738 337.197 204.427 332.528C163.116 327.858 91.8192 405.574 56.1708 444.432L20.5225 483.29" stroke="#0D34A0" stroke-width="2"/>
<path opacity="0.843684" d="M562.223 391.242L544.142 381.447C526.062 371.652 489.9 352.063 442.6 374.04C395.3 396.017 336.862 459.561 298.225 449.208C259.588 438.855 240.752 354.606 199.64 353.49C158.528 352.374 95.1398 434.393 63.4459 475.402L31.7521 516.411" stroke="#0D34A0" stroke-width="2"/>
<path opacity="0.895789" d="M557.06 381.197L538.384 373.139C519.708 365.082 482.355 348.966 437.67 374.439C392.984 399.913 340.965 466.975 301.983 460.101C263.001 453.228 237.056 372.418 196.445 374.787C155.833 377.155 100.555 462.701 72.9159 505.474L45.2768 548.247" stroke="#0D34A0" stroke-width="2"/>
<path opacity="0.947895" d="M550.814 371.942L531.707 365.649C512.599 359.357 474.384 346.772 432.558 375.458C390.732 404.143 345.295 474.098 306.278 470.684C267.26 467.271 234.661 390.488 194.841 396.246C155.021 402.003 107.98 490.301 84.4595 534.449L60.9389 578.598" stroke="#0D34A0" stroke-width="2"/>
<path d="M543.56 363.531L524.185 359.017C504.81 354.503 466.06 345.475 427.31 377.072C388.56 408.669 349.81 480.891 311.06 480.891C272.31 480.891 233.56 408.669 194.81 417.697C156.06 426.725 117.31 517.002 97.9346 562.14L78.5596 607.279" stroke="#0D34A0" stroke-width="2"/>
</svg>
