<svg width="547" height="162" viewBox="0 0 547 162" fill="none" xmlns="http://www.w3.org/2000/svg">
<path d="M60.142 3.82514C54.3008 11.2721 54.2543 22.573 54.9612 27.2926L66.6549 22.342C65.1945 17.8476 67.8024 6.90797 69.2889 1.99998L60.142 3.82514Z" stroke="url(#paint0_linear_134_1271)" stroke-width="2" stroke-linecap="round"/>
<path d="M123.931 152.58C136.824 153.157 149.398 144.25 154.074 139.724L139.311 130.675C135.483 135.859 121.279 141.637 114.655 143.879L123.931 152.58Z" stroke="url(#paint1_linear_134_1271)" stroke-width="2" stroke-linecap="round"/>
<path d="M179.202 46.3621C187.892 44.7349 194.89 36.8309 197.303 33.0824L186.043 29.3502C184.298 33.4051 175.725 39.4767 171.657 42.0057L179.202 46.3621Z" stroke="url(#paint2_linear_134_1271)" stroke-width="2" stroke-linecap="round"/>
<path d="M107.572 42.2664C104.592 49.1868 106.856 57.8942 108.36 61.3829L116.353 55.1927C114.314 52.0307 114.095 43.0801 114.241 39L107.572 42.2664Z" stroke="url(#paint3_linear_134_1271)" stroke-width="2" stroke-linecap="round"/>
<path d="M3.34568 109.958C5.94311 117.031 13.5762 121.794 17.068 123.291L18.6112 113.3C14.9563 112.407 8.64024 106.061 5.93907 103L3.34568 109.958Z" stroke="url(#paint4_linear_134_1271)" stroke-width="2" stroke-linecap="round"/>
<path d="M114.386 114.201C102.141 98.2955 74.946 71.5249 64.1306 91.6879C50.6114 116.892 78.2816 123.039 84.53 106.915C90.7783 90.7914 59.5331 60.0198 35.2234 66.5805C10.9138 73.1411 24.6811 94.8887 38.3841 88.3522C52.0872 81.8157 51.5209 50.0677 26.6286 49.1343" stroke="url(#paint5_linear_134_1271)" stroke-width="2" stroke-linecap="round"/>
<path d="M333.751 132.257C336.035 141.442 344.921 148.424 349.079 150.767L352.361 138.5C347.918 136.89 340.891 128.109 337.933 123.92L333.751 132.257Z" stroke="url(#paint6_linear_134_1271)" stroke-width="2" stroke-linecap="round"/>
<path d="M514.648 111.205C527.516 112.193 540.368 103.693 545.186 99.319L530.721 89.803C526.729 94.861 512.347 100.183 505.655 102.212L514.648 111.205Z" stroke="url(#paint7_linear_134_1271)" stroke-width="2" stroke-linecap="round"/>
<path d="M399.193 24.3259C386.326 23.3372 373.473 31.8376 368.655 36.2115L383.121 45.7275C387.113 40.6694 401.495 35.3476 408.186 33.319L399.193 24.3259Z" stroke="url(#paint8_linear_134_1271)" stroke-width="2" stroke-linecap="round"/>
<path d="M456.084 139.956C448.665 138.64 440.707 142.838 437.656 145.101L445.512 151.464C448.123 148.755 456.786 146.492 460.791 145.7L456.084 139.956Z" stroke="url(#paint9_linear_134_1271)" stroke-width="2" stroke-linecap="round"/>
<path d="M476.779 28.9007C483.654 25.8176 487.874 17.8719 489.125 14.2844L479.051 13.4398C478.414 17.1479 472.523 23.8899 469.657 26.7974L476.779 28.9007Z" stroke="url(#paint10_linear_134_1271)" stroke-width="2" stroke-linecap="round"/>
<path d="M495.445 48.9998C482.941 57.4817 461.605 76.6934 476.286 85.6849C494.637 96.9243 500.487 76.4519 488.641 71.0611C476.794 65.6703 452.27 87.7427 456.124 106.253C459.978 124.764 476.941 115.397 472.635 104.838C468.328 94.2799 444.431 93.3122 442.624 111.931" stroke="url(#paint11_linear_134_1271)" stroke-width="2" stroke-linecap="round"/>
<path d="M140.846 97.18C140.426 97.18 139.966 97.17 139.466 97.15C138.986 97.13 138.496 97.1 137.996 97.06C137.516 97.02 137.036 96.97 136.556 96.91C136.076 96.85 135.636 96.77 135.236 96.67V76.51C135.636 76.41 136.076 76.33 136.556 76.27C137.036 76.21 137.516 76.16 137.996 76.12C138.496 76.08 138.986 76.05 139.466 76.03C139.946 76.01 140.396 76 140.816 76C142.016 76 143.136 76.09 144.176 76.27C145.236 76.45 146.146 76.76 146.906 77.2C147.686 77.62 148.296 78.18 148.736 78.88C149.176 79.58 149.396 80.44 149.396 81.46C149.396 82.6 149.126 83.54 148.586 84.28C148.046 85 147.326 85.54 146.426 85.9C147.646 86.26 148.616 86.83 149.336 87.61C150.056 88.39 150.416 89.49 150.416 90.91C150.416 92.99 149.646 94.56 148.106 95.62C146.586 96.66 144.166 97.18 140.846 97.18ZM138.116 87.31V94.63C138.336 94.65 138.596 94.67 138.896 94.69C139.156 94.71 139.456 94.73 139.796 94.75C140.156 94.75 140.566 94.75 141.026 94.75C141.886 94.75 142.696 94.7 143.456 94.6C144.236 94.48 144.916 94.28 145.496 94C146.076 93.72 146.536 93.33 146.876 92.83C147.236 92.33 147.416 91.7 147.416 90.94C147.416 90.26 147.286 89.69 147.026 89.23C146.766 88.75 146.386 88.37 145.886 88.09C145.406 87.81 144.826 87.61 144.146 87.49C143.466 87.37 142.706 87.31 141.866 87.31H138.116ZM138.116 84.97H141.176C141.896 84.97 142.576 84.92 143.216 84.82C143.856 84.72 144.406 84.54 144.866 84.28C145.346 84.02 145.716 83.68 145.976 83.26C146.256 82.84 146.396 82.31 146.396 81.67C146.396 81.07 146.256 80.57 145.976 80.17C145.696 79.75 145.306 79.42 144.806 79.18C144.326 78.92 143.756 78.73 143.096 78.61C142.436 78.49 141.736 78.43 140.996 78.43C140.256 78.43 139.676 78.44 139.256 78.46C138.836 78.48 138.456 78.51 138.116 78.55V84.97ZM160.064 89.29C159.524 89.29 158.994 89.31 158.474 89.35C157.974 89.37 157.524 89.43 157.124 89.53V94.9C157.244 94.92 157.414 94.94 157.634 94.96C157.874 94.98 158.124 95 158.384 95.02C158.664 95.02 158.944 95.03 159.224 95.05C159.504 95.05 159.754 95.05 159.974 95.05C161.194 95.05 162.134 94.82 162.794 94.36C163.454 93.9 163.784 93.16 163.784 92.14C163.784 91.64 163.674 91.21 163.454 90.85C163.254 90.49 162.974 90.2 162.614 89.98C162.274 89.74 161.884 89.57 161.444 89.47C161.004 89.35 160.544 89.29 160.064 89.29ZM154.334 81.4H157.124V87.37C157.464 87.29 157.954 87.21 158.594 87.13C159.254 87.05 159.884 87.01 160.484 87.01C161.304 87.01 162.084 87.11 162.824 87.31C163.564 87.49 164.214 87.79 164.774 88.21C165.334 88.61 165.774 89.14 166.094 89.8C166.434 90.44 166.604 91.21 166.604 92.11C166.604 93.05 166.444 93.85 166.124 94.51C165.804 95.17 165.354 95.71 164.774 96.13C164.194 96.55 163.494 96.85 162.674 97.03C161.854 97.23 160.954 97.33 159.974 97.33C159.034 97.33 158.084 97.27 157.124 97.15C156.164 97.05 155.234 96.89 154.334 96.67V81.4ZM172.274 97H169.484V81.4H172.274V97ZM197.781 89.2C197.781 90.44 197.601 91.56 197.241 92.56C196.881 93.56 196.371 94.42 195.711 95.14C195.071 95.86 194.301 96.42 193.401 96.82C192.501 97.2 191.521 97.39 190.461 97.39C189.401 97.39 188.421 97.2 187.521 96.82C186.621 96.42 185.841 95.86 185.181 95.14C184.541 94.42 184.041 93.56 183.681 92.56C183.321 91.56 183.141 90.44 183.141 89.2C183.141 87.98 183.321 86.87 183.681 85.87C184.041 84.85 184.541 83.98 185.181 83.26C185.841 82.54 186.621 81.99 187.521 81.61C188.421 81.21 189.401 81.01 190.461 81.01C191.521 81.01 192.501 81.21 193.401 81.61C194.301 81.99 195.071 82.54 195.711 83.26C196.371 83.98 196.881 84.85 197.241 85.87C197.601 86.87 197.781 87.98 197.781 89.2ZM194.871 89.2C194.871 87.44 194.471 86.05 193.671 85.03C192.891 83.99 191.821 83.47 190.461 83.47C189.101 83.47 188.021 83.99 187.221 85.03C186.441 86.05 186.051 87.44 186.051 89.2C186.051 90.96 186.441 92.36 187.221 93.4C188.021 94.42 189.101 94.93 190.461 94.93C191.821 94.93 192.891 94.42 193.671 93.4C194.471 92.36 194.871 90.96 194.871 89.2ZM203.657 89.2C203.657 90.08 203.797 90.86 204.077 91.54C204.377 92.22 204.787 92.8 205.307 93.28C205.827 93.74 206.437 94.1 207.137 94.36C207.857 94.6 208.627 94.73 209.447 94.75V83.65C208.627 83.67 207.857 83.81 207.137 84.07C206.437 84.33 205.827 84.7 205.307 85.18C204.787 85.64 204.377 86.21 204.077 86.89C203.797 87.57 203.657 88.34 203.657 89.2ZM212.147 94.75C212.967 94.73 213.727 94.6 214.427 94.36C215.147 94.1 215.767 93.74 216.287 93.28C216.807 92.8 217.207 92.22 217.487 91.54C217.787 90.86 217.937 90.08 217.937 89.2C217.937 88.34 217.787 87.57 217.487 86.89C217.207 86.21 216.807 85.64 216.287 85.18C215.767 84.7 215.147 84.33 214.427 84.07C213.727 83.81 212.967 83.67 212.147 83.65V94.75ZM212.147 102.55H209.447V97.09C208.267 97.07 207.157 96.88 206.117 96.52C205.077 96.16 204.157 95.65 203.357 94.99C202.577 94.31 201.957 93.49 201.497 92.53C201.037 91.55 200.807 90.44 200.807 89.2C200.807 87.96 201.037 86.86 201.497 85.9C201.957 84.92 202.577 84.1 203.357 83.44C204.157 82.76 205.077 82.24 206.117 81.88C207.157 81.52 208.267 81.33 209.447 81.31V74.2L212.147 73.72V81.31C213.307 81.33 214.407 81.52 215.447 81.88C216.507 82.24 217.427 82.76 218.207 83.44C219.007 84.1 219.637 84.92 220.097 85.9C220.557 86.86 220.787 87.96 220.787 89.2C220.787 90.44 220.557 91.55 220.097 92.53C219.637 93.49 219.007 94.31 218.207 94.99C217.427 95.65 216.507 96.16 215.447 96.52C214.407 96.88 213.307 97.07 212.147 97.09V102.55ZM238.445 89.2C238.445 90.44 238.265 91.56 237.905 92.56C237.545 93.56 237.035 94.42 236.375 95.14C235.735 95.86 234.965 96.42 234.065 96.82C233.165 97.2 232.185 97.39 231.125 97.39C230.065 97.39 229.085 97.2 228.185 96.82C227.285 96.42 226.505 95.86 225.845 95.14C225.205 94.42 224.705 93.56 224.345 92.56C223.985 91.56 223.805 90.44 223.805 89.2C223.805 87.98 223.985 86.87 224.345 85.87C224.705 84.85 225.205 83.98 225.845 83.26C226.505 82.54 227.285 81.99 228.185 81.61C229.085 81.21 230.065 81.01 231.125 81.01C232.185 81.01 233.165 81.21 234.065 81.61C234.965 81.99 235.735 82.54 236.375 83.26C237.035 83.98 237.545 84.85 237.905 85.87C238.265 86.87 238.445 87.98 238.445 89.2ZM235.535 89.2C235.535 87.44 235.135 86.05 234.335 85.03C233.555 83.99 232.485 83.47 231.125 83.47C229.765 83.47 228.685 83.99 227.885 85.03C227.105 86.05 226.715 87.44 226.715 89.2C226.715 90.96 227.105 92.36 227.885 93.4C228.685 94.42 229.765 94.93 231.125 94.93C232.485 94.93 233.555 94.42 234.335 93.4C235.135 92.36 235.535 90.96 235.535 89.2ZM253.201 89.23C253.201 87.41 252.751 86.01 251.851 85.03C250.951 84.05 249.751 83.56 248.251 83.56C247.411 83.56 246.751 83.59 246.271 83.65C245.811 83.71 245.441 83.78 245.161 83.86V93.7C245.501 93.98 245.991 94.25 246.631 94.51C247.271 94.77 247.971 94.9 248.731 94.9C249.531 94.9 250.211 94.76 250.771 94.48C251.351 94.18 251.821 93.78 252.181 93.28C252.541 92.76 252.801 92.16 252.961 91.48C253.121 90.78 253.201 90.03 253.201 89.23ZM256.111 89.23C256.111 90.41 255.951 91.5 255.631 92.5C255.331 93.5 254.881 94.36 254.281 95.08C253.681 95.8 252.941 96.36 252.061 96.76C251.201 97.16 250.211 97.36 249.091 97.36C248.191 97.36 247.391 97.24 246.691 97C246.011 96.76 245.501 96.53 245.161 96.31V102.55H242.371V81.88C243.031 81.72 243.851 81.55 244.831 81.37C245.831 81.17 246.981 81.07 248.281 81.07C249.481 81.07 250.561 81.26 251.521 81.64C252.481 82.02 253.301 82.56 253.981 83.26C254.661 83.96 255.181 84.82 255.541 85.84C255.921 86.84 256.111 87.97 256.111 89.23ZM263.007 85.51C262.807 87.49 262.657 89.47 262.557 91.45C262.457 93.41 262.377 95.26 262.317 97H259.647C259.687 95.78 259.747 94.51 259.827 93.19C259.907 91.85 259.997 90.51 260.097 89.17C260.197 87.81 260.307 86.48 260.427 85.18C260.547 83.86 260.677 82.6 260.817 81.4H263.367C264.007 82.44 264.757 83.87 265.617 85.69C266.477 87.49 267.467 89.57 268.587 91.93C269.707 89.57 270.697 87.49 271.557 85.69C272.417 83.87 273.167 82.44 273.807 81.4H276.387C276.527 82.6 276.657 83.86 276.777 85.18C276.897 86.48 277.007 87.81 277.107 89.17C277.207 90.51 277.297 91.85 277.377 93.19C277.457 94.51 277.517 95.78 277.557 97H274.797C274.737 95.26 274.657 93.41 274.557 91.45C274.457 89.47 274.307 87.49 274.107 85.51C273.787 86.13 273.417 86.88 272.997 87.76C272.577 88.62 272.157 89.5 271.737 90.4C271.337 91.3 270.957 92.16 270.597 92.98C270.237 93.8 269.957 94.45 269.757 94.93H267.417C267.197 94.43 266.897 93.77 266.517 92.95C266.157 92.13 265.767 91.27 265.347 90.37C264.947 89.45 264.537 88.56 264.117 87.7C263.697 86.82 263.327 86.09 263.007 85.51ZM295.09 81.4V97H292.39V85.12C291.79 85.88 291.13 86.77 290.41 87.79C289.69 88.81 288.97 89.87 288.25 90.97C287.53 92.05 286.84 93.12 286.18 94.18C285.52 95.24 284.95 96.18 284.47 97H281.98V81.4H284.68V92.62C285.2 91.76 285.79 90.82 286.45 89.8C287.11 88.76 287.79 87.74 288.49 86.74C289.21 85.72 289.92 84.75 290.62 83.83C291.34 82.89 292.01 82.08 292.63 81.4H295.09ZM305.31 83.74C305.31 84.4 305.29 85.11 305.25 85.87C305.23 86.61 305.18 87.36 305.1 88.12C305.02 88.86 304.91 89.6 304.77 90.34C304.63 91.06 304.45 91.74 304.23 92.38C304.01 93.02 303.73 93.62 303.39 94.18C303.07 94.74 302.67 95.24 302.19 95.68C301.71 96.1 301.15 96.46 300.51 96.76C299.87 97.04 299.12 97.22 298.26 97.3L297.87 94.96C298.85 94.76 299.62 94.39 300.18 93.85C300.76 93.31 301.22 92.65 301.56 91.87C301.86 91.19 302.08 90.42 302.22 89.56C302.36 88.7 302.46 87.81 302.52 86.89C302.58 85.95 302.61 85.01 302.61 84.07C302.63 83.13 302.64 82.24 302.64 81.4H313.02V97H310.23V83.74H305.31ZM330.92 81.4V97H328.22V85.12C327.62 85.88 326.96 86.77 326.24 87.79C325.52 88.81 324.8 89.87 324.08 90.97C323.36 92.05 322.67 93.12 322.01 94.18C321.35 95.24 320.78 96.18 320.3 97H317.81V81.4H320.51V92.62C321.03 91.76 321.62 90.82 322.28 89.8C322.94 88.76 323.62 87.74 324.32 86.74C325.04 85.72 325.75 84.75 326.45 83.83C327.17 82.89 327.84 82.08 328.46 81.4H330.92ZM346.614 81.01C347.514 81.01 348.354 81.1 349.134 81.28C349.914 81.46 350.584 81.73 351.144 82.09C351.704 82.45 352.144 82.9 352.464 83.44C352.784 83.98 352.944 84.61 352.944 85.33C352.944 85.79 352.864 86.21 352.704 86.59C352.544 86.97 352.344 87.31 352.104 87.61C351.864 87.91 351.594 88.17 351.294 88.39C351.014 88.59 350.744 88.73 350.484 88.81C351.404 89.09 352.124 89.59 352.644 90.31C353.184 91.01 353.454 91.9 353.454 92.98C353.454 94.46 352.854 95.56 351.654 96.28C350.454 97 348.824 97.36 346.764 97.36C345.504 97.36 344.414 97.26 343.494 97.06C342.594 96.86 341.954 96.67 341.574 96.49L342.054 94.12C342.374 94.24 342.944 94.41 343.764 94.63C344.604 94.83 345.604 94.93 346.764 94.93C348.024 94.93 348.984 94.74 349.644 94.36C350.304 93.96 350.634 93.37 350.634 92.59C350.634 92.03 350.504 91.58 350.244 91.24C350.004 90.88 349.694 90.61 349.314 90.43C348.934 90.25 348.524 90.13 348.084 90.07C347.644 90.01 347.234 89.98 346.854 89.98H344.244V87.76H346.764C347.124 87.76 347.494 87.74 347.874 87.7C348.274 87.64 348.634 87.53 348.954 87.37C349.294 87.21 349.574 86.99 349.794 86.71C350.014 86.41 350.124 86.02 350.124 85.54C350.124 85.16 350.024 84.84 349.824 84.58C349.644 84.3 349.394 84.07 349.074 83.89C348.754 83.71 348.374 83.58 347.934 83.5C347.514 83.4 347.074 83.35 346.614 83.35C346.254 83.35 345.864 83.38 345.444 83.44C345.024 83.5 344.614 83.58 344.214 83.68C343.814 83.76 343.454 83.85 343.134 83.95C342.814 84.05 342.584 84.14 342.444 84.22L341.934 81.82C342.094 81.76 342.344 81.68 342.684 81.58C343.024 81.48 343.404 81.39 343.824 81.31C344.264 81.23 344.724 81.16 345.204 81.1C345.684 81.04 346.154 81.01 346.614 81.01ZM362.612 94.99C363.272 94.99 363.852 94.98 364.352 94.96C364.872 94.92 365.302 94.86 365.642 94.78V90.13C365.442 90.03 365.112 89.95 364.652 89.89C364.212 89.81 363.672 89.77 363.032 89.77C362.612 89.77 362.162 89.8 361.682 89.86C361.222 89.92 360.792 90.05 360.392 90.25C360.012 90.43 359.692 90.69 359.432 91.03C359.172 91.35 359.042 91.78 359.042 92.32C359.042 93.32 359.362 94.02 360.002 94.42C360.642 94.8 361.512 94.99 362.612 94.99ZM362.372 81.01C363.492 81.01 364.432 81.16 365.192 81.46C365.972 81.74 366.592 82.15 367.052 82.69C367.532 83.21 367.872 83.84 368.072 84.58C368.272 85.3 368.372 86.1 368.372 86.98V96.73C368.132 96.77 367.792 96.83 367.352 96.91C366.932 96.97 366.452 97.03 365.912 97.09C365.372 97.15 364.782 97.2 364.142 97.24C363.522 97.3 362.902 97.33 362.282 97.33C361.402 97.33 360.592 97.24 359.852 97.06C359.112 96.88 358.472 96.6 357.932 96.22C357.392 95.82 356.972 95.3 356.672 94.66C356.372 94.02 356.222 93.25 356.222 92.35C356.222 91.49 356.392 90.75 356.732 90.13C357.092 89.51 357.572 89.01 358.172 88.63C358.772 88.25 359.472 87.97 360.272 87.79C361.072 87.61 361.912 87.52 362.792 87.52C363.072 87.52 363.362 87.54 363.662 87.58C363.962 87.6 364.242 87.64 364.502 87.7C364.782 87.74 365.022 87.78 365.222 87.82C365.422 87.86 365.562 87.89 365.642 87.91V87.13C365.642 86.67 365.592 86.22 365.492 85.78C365.392 85.32 365.212 84.92 364.952 84.58C364.692 84.22 364.332 83.94 363.872 83.74C363.432 83.52 362.852 83.41 362.132 83.41C361.212 83.41 360.402 83.48 359.702 83.62C359.022 83.74 358.512 83.87 358.172 84.01L357.842 81.7C358.202 81.54 358.802 81.39 359.642 81.25C360.482 81.09 361.392 81.01 362.372 81.01ZM378.705 88.51C379.325 88.95 379.995 89.51 380.715 90.19C381.435 90.85 382.135 91.57 382.815 92.35C383.515 93.13 384.165 93.93 384.765 94.75C385.365 95.55 385.875 96.3 386.295 97H382.995C382.555 96.32 382.035 95.63 381.435 94.93C380.855 94.21 380.245 93.52 379.605 92.86C378.965 92.2 378.315 91.59 377.655 91.03C376.995 90.47 376.375 90 375.795 89.62V97H373.005V81.4H375.795V88.09C376.275 87.63 376.825 87.1 377.445 86.5C378.065 85.88 378.685 85.26 379.305 84.64C379.945 84 380.535 83.4 381.075 82.84C381.615 82.26 382.055 81.78 382.395 81.4H385.635C385.195 81.88 384.675 82.43 384.075 83.05C383.495 83.65 382.885 84.27 382.245 84.91C381.625 85.55 381.005 86.19 380.385 86.83C379.765 87.45 379.205 88.01 378.705 88.51ZM394.399 94.99C395.059 94.99 395.639 94.98 396.139 94.96C396.659 94.92 397.089 94.86 397.429 94.78V90.13C397.229 90.03 396.899 89.95 396.439 89.89C395.999 89.81 395.459 89.77 394.819 89.77C394.399 89.77 393.949 89.8 393.469 89.86C393.009 89.92 392.579 90.05 392.179 90.25C391.799 90.43 391.479 90.69 391.219 91.03C390.959 91.35 390.829 91.78 390.829 92.32C390.829 93.32 391.149 94.02 391.789 94.42C392.429 94.8 393.299 94.99 394.399 94.99ZM394.159 81.01C395.279 81.01 396.219 81.16 396.979 81.46C397.759 81.74 398.379 82.15 398.839 82.69C399.319 83.21 399.659 83.84 399.859 84.58C400.059 85.3 400.159 86.1 400.159 86.98V96.73C399.919 96.77 399.579 96.83 399.139 96.91C398.719 96.97 398.239 97.03 397.699 97.09C397.159 97.15 396.569 97.2 395.929 97.24C395.309 97.3 394.689 97.33 394.069 97.33C393.189 97.33 392.379 97.24 391.639 97.06C390.899 96.88 390.259 96.6 389.719 96.22C389.179 95.82 388.759 95.3 388.459 94.66C388.159 94.02 388.009 93.25 388.009 92.35C388.009 91.49 388.179 90.75 388.519 90.13C388.879 89.51 389.359 89.01 389.959 88.63C390.559 88.25 391.259 87.97 392.059 87.79C392.859 87.61 393.699 87.52 394.579 87.52C394.859 87.52 395.149 87.54 395.449 87.58C395.749 87.6 396.029 87.64 396.289 87.7C396.569 87.74 396.809 87.78 397.009 87.82C397.209 87.86 397.349 87.89 397.429 87.91V87.13C397.429 86.67 397.379 86.22 397.279 85.78C397.179 85.32 396.999 84.92 396.739 84.58C396.479 84.22 396.119 83.94 395.659 83.74C395.219 83.52 394.639 83.41 393.919 83.41C392.999 83.41 392.189 83.48 391.489 83.62C390.809 83.74 390.299 83.87 389.959 84.01L389.629 81.7C389.989 81.54 390.589 81.39 391.429 81.25C392.269 81.09 393.179 81.01 394.159 81.01ZM408.753 81.01C409.653 81.01 410.493 81.1 411.273 81.28C412.053 81.46 412.723 81.73 413.283 82.09C413.843 82.45 414.283 82.9 414.603 83.44C414.923 83.98 415.083 84.61 415.083 85.33C415.083 85.79 415.003 86.21 414.843 86.59C414.683 86.97 414.483 87.31 414.243 87.61C414.003 87.91 413.733 88.17 413.433 88.39C413.153 88.59 412.883 88.73 412.623 88.81C413.543 89.09 414.263 89.59 414.783 90.31C415.323 91.01 415.593 91.9 415.593 92.98C415.593 94.46 414.993 95.56 413.793 96.28C412.593 97 410.963 97.36 408.903 97.36C407.643 97.36 406.553 97.26 405.633 97.06C404.733 96.86 404.093 96.67 403.713 96.49L404.193 94.12C404.513 94.24 405.083 94.41 405.903 94.63C406.743 94.83 407.743 94.93 408.903 94.93C410.163 94.93 411.123 94.74 411.783 94.36C412.443 93.96 412.773 93.37 412.773 92.59C412.773 92.03 412.643 91.58 412.383 91.24C412.143 90.88 411.833 90.61 411.453 90.43C411.073 90.25 410.663 90.13 410.223 90.07C409.783 90.01 409.373 89.98 408.993 89.98H406.383V87.76H408.903C409.263 87.76 409.633 87.74 410.013 87.7C410.413 87.64 410.773 87.53 411.093 87.37C411.433 87.21 411.713 86.99 411.933 86.71C412.153 86.41 412.263 86.02 412.263 85.54C412.263 85.16 412.163 84.84 411.963 84.58C411.783 84.3 411.533 84.07 411.213 83.89C410.893 83.71 410.513 83.58 410.073 83.5C409.653 83.4 409.213 83.35 408.753 83.35C408.393 83.35 408.003 83.38 407.583 83.44C407.163 83.5 406.753 83.58 406.353 83.68C405.953 83.76 405.593 83.85 405.273 83.95C404.953 84.05 404.723 84.14 404.583 84.22L404.073 81.82C404.233 81.76 404.483 81.68 404.823 81.58C405.163 81.48 405.543 81.39 405.963 81.31C406.403 81.23 406.863 81.16 407.343 81.1C407.823 81.04 408.293 81.01 408.753 81.01ZM422.71 81.85C422.71 83.53 422.65 85.06 422.53 86.44C422.41 87.8 422.26 89.16 422.08 90.52H420.34C420.16 89.16 420.01 87.8 419.89 86.44C419.77 85.06 419.71 83.53 419.71 81.85V76.21H422.71V81.85ZM423.22 95.38C423.22 95.92 423.04 96.39 422.68 96.79C422.32 97.19 421.83 97.39 421.21 97.39C420.59 97.39 420.1 97.19 419.74 96.79C419.38 96.39 419.2 95.92 419.2 95.38C419.2 94.84 419.38 94.37 419.74 93.97C420.1 93.57 420.59 93.37 421.21 93.37C421.83 93.37 422.32 93.57 422.68 93.97C423.04 94.37 423.22 94.84 423.22 95.38Z" fill="url(#paint12_linear_134_1271)"/>
<defs>
<linearGradient id="paint0_linear_134_1271" x1="50.8102" y1="5.68716" x2="69.7509" y2="1.90779" gradientUnits="userSpaceOnUse">
<stop stop-color="#0044FF"/>
<stop offset="1" stop-color="#00A3FF"/>
</linearGradient>
<linearGradient id="paint1_linear_134_1271" x1="133.395" y1="161.457" x2="114.187" y2="143.439" gradientUnits="userSpaceOnUse">
<stop stop-color="#0044FF"/>
<stop offset="1" stop-color="#00A3FF"/>
</linearGradient>
<linearGradient id="paint2_linear_134_1271" x1="186.9" y1="50.8065" x2="171.276" y2="41.7857" gradientUnits="userSpaceOnUse">
<stop stop-color="#0044FF"/>
<stop offset="1" stop-color="#00A3FF"/>
</linearGradient>
<linearGradient id="paint3_linear_134_1271" x1="100.769" y1="45.5987" x2="114.577" y2="38.8351" gradientUnits="userSpaceOnUse">
<stop stop-color="#0044FF"/>
<stop offset="1" stop-color="#00A3FF"/>
</linearGradient>
<linearGradient id="paint4_linear_134_1271" x1="0.699903" y1="117.057" x2="6.07004" y2="102.649" gradientUnits="userSpaceOnUse">
<stop stop-color="#0044FF"/>
<stop offset="1" stop-color="#00A3FF"/>
</linearGradient>
<linearGradient id="paint5_linear_134_1271" x1="18.3642" y1="50.334" x2="105.448" y2="37.6916" gradientUnits="userSpaceOnUse">
<stop stop-color="#0044FF"/>
<stop offset="1" stop-color="#00A3FF"/>
</linearGradient>
<linearGradient id="paint6_linear_134_1271" x1="329.484" y1="140.763" x2="338.144" y2="123.499" gradientUnits="userSpaceOnUse">
<stop stop-color="#0044FF"/>
<stop offset="1" stop-color="#00A3FF"/>
</linearGradient>
<linearGradient id="paint7_linear_134_1271" x1="523.823" y1="120.379" x2="505.201" y2="101.757" gradientUnits="userSpaceOnUse">
<stop stop-color="#0044FF"/>
<stop offset="1" stop-color="#00A3FF"/>
</linearGradient>
<linearGradient id="paint8_linear_134_1271" x1="390.019" y1="15.1511" x2="408.641" y2="33.7731" gradientUnits="userSpaceOnUse">
<stop stop-color="#0044FF"/>
<stop offset="1" stop-color="#00A3FF"/>
</linearGradient>
<linearGradient id="paint9_linear_134_1271" x1="451.282" y1="134.097" x2="461.028" y2="145.99" gradientUnits="userSpaceOnUse">
<stop stop-color="#0044FF"/>
<stop offset="1" stop-color="#00A3FF"/>
</linearGradient>
<linearGradient id="paint10_linear_134_1271" x1="484.044" y1="31.0464" x2="469.298" y2="26.6912" gradientUnits="userSpaceOnUse">
<stop stop-color="#0044FF"/>
<stop offset="1" stop-color="#00A3FF"/>
</linearGradient>
<linearGradient id="paint11_linear_134_1271" x1="443.159" y1="118.179" x2="437.519" y2="52.3453" gradientUnits="userSpaceOnUse">
<stop stop-color="#0044FF"/>
<stop offset="1" stop-color="#00A3FF"/>
</linearGradient>
<linearGradient id="paint12_linear_134_1271" x1="279.156" y1="69" x2="279.156" y2="103" gradientUnits="userSpaceOnUse">
<stop stop-color="#0044FF"/>
<stop offset="1" stop-color="#00A3FF"/>
</linearGradient>
</defs>
</svg>
