<svg width="272" height="272" viewBox="0 0 272 272" fill="none" xmlns="http://www.w3.org/2000/svg">
<path d="M14.8018 78.5784C14.6127 78.0595 14.0387 77.7922 13.5198 77.9813L5.06382 81.0628C4.54492 81.2519 4.27756 81.8258 4.46665 82.3448C4.65575 82.8636 5.2297 83.131 5.7486 82.9419L13.2651 80.2028L16.0042 87.7192C16.1933 88.2381 16.7672 88.5055 17.2861 88.3164C17.805 88.1273 18.0724 87.5534 17.8833 87.0345L14.8018 78.5784ZM270.268 139.342L271.268 139.368L270.268 139.342ZM256.764 192.851C256.953 193.37 257.527 193.638 258.046 193.448L266.502 190.367C267.021 190.178 267.289 189.604 267.099 189.085C266.91 188.566 266.336 188.299 265.818 188.488L258.301 191.227L255.562 183.71C255.373 183.192 254.799 182.924 254.28 183.113C253.761 183.302 253.494 183.876 253.683 184.395L256.764 192.851ZM79.4113 256.729C12.5769 225.596 -16.3646 146.177 14.7687 79.3431L12.9558 78.4986C-18.6439 146.334 10.7311 226.942 78.5668 258.542L79.4113 256.729ZM78.7786 14.9934C113.4 -1.33166 154.748 -2.72467 192.155 14.7005L192.999 12.8875C155.031 -4.79895 113.061 -3.38309 77.9257 13.1845L78.7786 14.9934ZM192.155 14.7005C241.881 37.8645 270.633 87.7591 269.269 139.315L271.268 139.368C272.653 87.0442 243.474 36.3999 192.999 12.8875L192.155 14.7005ZM269.269 139.315C268.799 157.048 264.767 174.979 256.797 192.087L258.61 192.931C266.698 175.57 270.792 157.37 271.268 139.368L269.269 139.315ZM214.968 243.226C176.933 271.187 125.216 278.066 79.4113 256.729L78.5668 258.542C125.061 280.2 177.553 273.214 216.153 244.838L214.968 243.226Z" fill="url(#paint0_linear_142_1962)"/>
<defs>
<linearGradient id="paint0_linear_142_1962" x1="132.75" y1="-14.0752" x2="152.388" y2="298.998" gradientUnits="userSpaceOnUse">
<stop stop-color="#0044FF"/>
<stop offset="1" stop-color="#00A3FF"/>
</linearGradient>
</defs>
</svg>
