<svg width="255" height="39" viewBox="0 0 255 39" fill="none" xmlns="http://www.w3.org/2000/svg">
<path d="M192.33 29.8502V21.1459H189.095V34.664H191.827L199.603 25.8832V34.664H202.826V21.1459H200.094L192.33 29.8502ZM226.967 29.9266V21.1459H223.737V34.664H226.469L234.256 25.8122V34.664H237.49V21.1459H234.627L226.967 29.9266ZM216.831 26.3969H209.728V21.1459H206.498V34.664H209.728V29.3748H216.831V34.664H220.066V21.1459H216.831V26.3969ZM177.457 21.1459L169.703 34.664H173.528L178.637 25.7357L183.779 34.664H187.784L180.025 21.1459H177.457ZM252.025 21.1459L244.375 29.9266V21.1459H241.146V34.664H243.878L251.664 25.8122V34.664H254.899V21.1459H252.025ZM173.484 21.1459H158.425V24.1183H171.763L173.484 21.1459ZM158.425 26.3969V29.3748H168.747L170.474 26.3969H158.425ZM87.0154 21.1459H71.9565V24.1183H85.2888L87.0154 21.1459ZM59.9355 18.168H57.2909L49.5429 31.6861H47.5977V38.6309H50.6794V34.664H66.5252V38.6309H69.6124V31.6861H67.6672L59.9355 18.168ZM53.3786 31.6861L58.4875 22.7633L63.6292 31.6861H53.3786ZM109.445 20.8126C104.041 20.8126 101.473 24.091 101.473 27.8284C101.473 31.6861 103.97 34.8498 109.445 34.8498C111.833 34.8498 117.341 33.757 117.341 27.8284C117.357 23.9708 114.899 20.8126 109.462 20.8126H109.445ZM109.407 31.8719C106.287 31.8719 104.959 30.0687 104.959 27.8667C104.959 25.4406 106.468 23.8287 109.407 23.8287C112.713 23.8287 113.849 25.468 113.849 27.8667C113.866 30.7681 111.702 31.8719 109.424 31.8719H109.407ZM90.9824 21.1459L83.2343 34.664H87.0592L92.1626 25.7357L97.3043 34.664H101.309L93.545 21.1459H90.9824ZM151.557 34.664H154.743V21.1459H151.546L151.557 34.664ZM145.454 25.9925H140.536V21.1459H137.307V34.664H145.454C147.639 34.664 149.934 33.451 149.934 30.2545C149.907 26.069 146.967 25.9925 145.454 25.9925ZM145.268 31.8008H140.536V28.7847H145.273C145.82 28.7847 146.672 28.9322 146.672 30.2927C146.672 31.5385 146 31.8008 145.273 31.8008H145.268ZM71.951 26.3969V29.3748H82.2726L83.9993 26.3969H71.951ZM158.42 34.664H165.731L167.425 31.6861H158.425L158.42 34.664ZM131.493 26.7028C131.992 26.5375 132.42 26.2085 132.709 25.7691C132.998 25.3298 133.129 24.8059 133.083 24.2823C133.083 21.4901 130.728 21.1623 129.078 21.1623H120.319V34.6804H129.225C133.302 34.6804 134.143 32.4401 134.143 30.3802C134.143 28.047 132.832 27.0908 131.493 26.7028ZM123.532 24.0255H128.706C129.477 24.0255 129.799 24.4298 129.799 25.2002C129.816 25.3535 129.8 25.5086 129.753 25.6554C129.706 25.8022 129.628 25.9373 129.525 26.0519C129.422 26.1665 129.295 26.2579 129.154 26.3202C129.013 26.3825 128.861 26.4142 128.706 26.4133H123.532V24.0255ZM129.225 31.8172H123.532V28.8885H129.225C130.143 28.8885 130.804 29.1125 130.804 30.3255C130.804 31.2817 130.4 31.8008 129.225 31.8008V31.8172ZM71.9565 34.6804H79.2619L80.9558 31.7025H71.9565V34.6804Z" fill="#747478"/>
<path d="M25.7473 24.4736L12.3056 14.5016L9.0272 20.1897L24.3867 26.834L25.7473 24.4736ZM27.8127 20.9001L16.2944 7.57866L13.016 13.223L26.4521 23.2004L27.8127 20.9001ZM30.2824 16.6217L20.6821 0L17.0485 6.27821L28.5776 19.5996L30.2824 16.6217ZM4.27893 28.4186L0.65625 34.6859H19.8515L21.5563 31.7353L4.27893 28.4186ZM21.5181 34.6859H26.627L31.113 26.9105L35.6263 34.6859H40.7297L31.113 18.0642L21.5181 34.6859ZM23.66 28.0908L8.30595 21.4465L5.0275 27.0908L22.3049 30.413L23.66 28.0908Z" fill="#747478"/>
</svg>
