<svg width="157" height="18" viewBox="0 0 157 18" fill="none" xmlns="http://www.w3.org/2000/svg">
<path fill-rule="evenodd" clip-rule="evenodd" d="M98.9203 14.0271C98.9203 15.1 98.6121 15.944 97.9955 16.5592C97.379 17.1744 96.534 17.482 95.4607 17.482C94.3841 17.482 93.5392 17.1707 92.9259 16.548C92.3125 15.9254 92.0059 15.0851 92.0059 14.0271C92.0059 12.9602 92.3125 12.117 92.9259 11.4973C93.5392 10.8777 94.3841 10.5679 95.4607 10.5679C96.534 10.5679 97.379 10.8762 97.9955 11.4929C98.6121 12.1095 98.9203 12.9543 98.9203 14.0271ZM97.0707 14.0227C97.0707 13.6274 97.0268 13.2909 96.9389 13.013C96.8511 12.7351 96.7337 12.507 96.5868 12.3287C96.4334 12.1474 96.2601 12.0174 96.0669 11.9387C95.8736 11.8599 95.6731 11.8205 95.4655 11.8205C95.2451 11.8205 95.0454 11.8569 94.8665 11.9297C94.6876 12.0025 94.5151 12.1326 94.349 12.3198C94.2021 12.4922 94.0831 12.721 93.992 13.0063C93.901 13.2916 93.8555 13.6319 93.8555 14.0271C93.8555 14.4343 93.8986 14.7723 93.9848 15.0413C94.0711 15.3103 94.1893 15.5354 94.3394 15.7167C94.4928 15.9009 94.6669 16.0324 94.8617 16.1112C95.0566 16.1899 95.2578 16.2293 95.4655 16.2293C95.6763 16.2293 95.8808 16.187 96.0788 16.1023C96.2769 16.0176 96.4478 15.8861 96.5915 15.7077C96.7449 15.5146 96.8631 15.2895 96.9461 15.0324C97.0292 14.7753 97.0707 14.4388 97.0707 14.0227Z" fill="#747478"/>
<path fill-rule="evenodd" clip-rule="evenodd" d="M91.3804 15.2218C91.3804 15.5458 91.3141 15.8437 91.1816 16.1156C91.049 16.3876 90.8677 16.6097 90.6377 16.7821C90.363 16.9871 90.0667 17.132 89.7488 17.2167C89.431 17.3014 89.0437 17.3438 88.5868 17.3438H85.6543V10.7061H90.839V11.9721H87.4368V13.198H88.6156C89.0437 13.198 89.427 13.227 89.7656 13.2849C90.1042 13.3429 90.4077 13.4699 90.676 13.6661C90.922 13.8444 91.1009 14.068 91.2127 14.337C91.3245 14.6059 91.3804 14.9009 91.3804 15.2218ZM89.5308 15.2709C89.5308 15.1609 89.518 15.0569 89.4925 14.9588C89.4669 14.8607 89.411 14.7701 89.3248 14.6869C89.2385 14.6067 89.1203 14.5428 88.9702 14.4952C88.82 14.4477 88.6124 14.4239 88.3473 14.4239H87.4368V16.1134H88.3473C88.7146 16.1134 89.0037 16.0406 89.2146 15.895C89.4254 15.7493 89.5308 15.5413 89.5308 15.2709Z" fill="#747478"/>
<path fill-rule="evenodd" clip-rule="evenodd" d="M82.3018 17.4729C81.2316 17.4729 80.3819 17.172 79.7526 16.5702C79.1232 15.9684 78.8086 15.1222 78.8086 14.0315C78.8086 12.9794 79.124 12.1406 79.755 11.515C80.3859 10.8894 81.2364 10.5767 82.3066 10.5767C82.5909 10.5767 82.8464 10.5915 83.0732 10.6212C83.3 10.651 83.5173 10.6926 83.7249 10.7461C83.8878 10.7906 84.0651 10.8516 84.2568 10.9288C84.4485 11.0061 84.6034 11.073 84.7216 11.1294V12.712H84.5395C84.4533 12.6406 84.3446 12.5552 84.2137 12.4556C84.0827 12.3561 83.9342 12.2587 83.768 12.1636C83.6019 12.0685 83.419 11.9876 83.2194 11.9207C83.0197 11.8538 82.8113 11.8204 82.5941 11.8204C82.3353 11.8204 82.0981 11.8583 81.8825 11.9341C81.6669 12.0099 81.4616 12.1414 81.2668 12.3286C81.0879 12.498 80.9417 12.7268 80.8283 13.0151C80.7149 13.3034 80.6582 13.6436 80.6582 14.0359C80.6582 14.449 80.7173 14.796 80.8355 15.0768C80.9537 15.3577 81.1086 15.5843 81.3003 15.7567C81.4856 15.9231 81.6924 16.0434 81.9208 16.1177C82.1492 16.192 82.3768 16.2292 82.6036 16.2292C82.84 16.2292 83.0653 16.1928 83.2793 16.12C83.4933 16.0472 83.6738 15.9662 83.8207 15.877C83.9805 15.7849 84.121 15.6913 84.2424 15.5962C84.3638 15.5011 84.4692 15.4164 84.5587 15.3421H84.7216V16.9023C84.5906 16.9588 84.4389 17.0234 84.2664 17.0962C84.0939 17.169 83.9166 17.2307 83.7345 17.2812C83.5109 17.3436 83.3016 17.3912 83.1068 17.4239C82.9119 17.4566 82.6436 17.4729 82.3018 17.4729Z" fill="#747478"/>
<path fill-rule="evenodd" clip-rule="evenodd" d="M94.182 4.26787C94.182 5.34072 93.8738 6.18473 93.2572 6.79991C92.6407 7.4151 91.7958 7.72268 90.7224 7.72268C89.6459 7.72268 88.8009 7.41138 88.1876 6.78877C87.5742 6.16616 87.2676 5.32586 87.2676 4.26787C87.2676 3.20096 87.5742 2.35769 88.1876 1.73805C88.8009 1.11841 89.6459 0.808594 90.7224 0.808594C91.7958 0.808594 92.6407 1.11692 93.2572 1.73359C93.8738 2.35026 94.182 3.19501 94.182 4.26787ZM92.3324 4.26341C92.3324 3.86815 92.2885 3.53158 92.2006 3.25371C92.1128 2.97584 91.9954 2.74775 91.8485 2.56944C91.6951 2.38815 91.5218 2.25813 91.3286 2.17938C91.1353 2.10062 90.9348 2.06124 90.7272 2.06124C90.5068 2.06124 90.3071 2.09765 90.1282 2.17046C89.9493 2.24327 89.7768 2.37329 89.6107 2.56052C89.4638 2.73289 89.3448 2.96172 89.2537 3.24703C89.1627 3.53233 89.1172 3.8726 89.1172 4.26787C89.1172 4.67502 89.1603 5.01307 89.2466 5.28202C89.3328 5.55098 89.451 5.7761 89.6011 5.95738C89.7545 6.14164 89.9286 6.27315 90.1234 6.3519C90.3183 6.43066 90.5196 6.47003 90.7272 6.47003C90.938 6.47003 91.1425 6.42768 91.3405 6.34299C91.5386 6.25829 91.7095 6.12678 91.8532 5.94847C92.0066 5.75529 92.1248 5.53018 92.2078 5.27311C92.2909 5.01604 92.3324 4.67948 92.3324 4.26341Z" fill="#747478"/>
<path fill-rule="evenodd" clip-rule="evenodd" d="M98.2061 7.71364C97.1359 7.71364 96.2862 7.41274 95.6569 6.81093C95.0275 6.20912 94.7129 5.36289 94.7129 4.2722C94.7129 3.22015 95.0283 2.38134 95.6593 1.75576C96.2902 1.13017 97.1407 0.817383 98.2108 0.817383C98.4952 0.817383 98.7507 0.832242 98.9775 0.861961C99.2043 0.89168 99.4216 0.933286 99.6292 0.98678C99.7921 1.03136 99.9694 1.09228 100.161 1.16955C100.353 1.24682 100.508 1.31369 100.626 1.37015V2.95268H100.444C100.358 2.88136 100.249 2.79592 100.118 2.69636C99.987 2.5968 99.8384 2.49947 99.6723 2.40437C99.5062 2.30927 99.3233 2.22829 99.1237 2.16142C98.924 2.09455 98.7156 2.06112 98.4984 2.06112C98.2396 2.06112 98.0024 2.09901 97.7868 2.17479C97.5712 2.25057 97.3659 2.38208 97.171 2.56931C96.9922 2.73871 96.846 2.96754 96.7326 3.25581C96.6192 3.54409 96.5625 3.88437 96.5625 4.27666C96.5625 4.68975 96.6216 5.03672 96.7398 5.31756C96.858 5.5984 97.0129 5.82501 97.2046 5.99738C97.3899 6.16381 97.5967 6.28416 97.8251 6.35846C98.0535 6.43276 98.2811 6.46991 98.5079 6.46991C98.7443 6.46991 98.9695 6.4335 99.1836 6.36069C99.3976 6.28788 99.5781 6.2069 99.725 6.11774C99.8848 6.02561 100.025 5.932 100.147 5.8369C100.268 5.7418 100.374 5.6571 100.463 5.5828H100.626V7.14304C100.495 7.19951 100.343 7.26414 100.171 7.33696C99.9982 7.40977 99.8209 7.47143 99.6388 7.52196C99.4152 7.58437 99.2059 7.63192 99.0111 7.66461C98.8162 7.6973 98.5479 7.71364 98.2061 7.71364Z" fill="#747478"/>
<path fill-rule="evenodd" clip-rule="evenodd" d="M86.8344 9.10906H85.1908V7.56219H81.2041V9.10906H79.5605V6.314H80.0397C80.3751 5.66613 80.6403 4.87784 80.8351 3.94912C81.03 3.02041 81.1274 2.01963 81.1274 0.946777H86.1588V6.314H86.8344V9.10906ZM84.3667 6.314V2.2128H82.8045C82.7439 3.01521 82.6241 3.76784 82.4452 4.47069C82.2663 5.17354 82.0411 5.78798 81.7695 6.314H84.3667Z" fill="#747478"/>
<path fill-rule="evenodd" clip-rule="evenodd" d="M103.269 7.58448V2.2128H101.16V0.946777H107.169V2.2128H105.061V7.58448H103.269Z" fill="#747478"/>
<path fill-rule="evenodd" clip-rule="evenodd" d="M106.545 7.58448L108.955 0.946777H110.91L113.32 7.58448H111.476L111.03 6.2293H108.787L108.342 7.58448H106.545ZM110.637 5.02569L109.909 2.8369L109.18 5.02569H110.637Z" fill="#747478"/>
<path fill-rule="evenodd" clip-rule="evenodd" d="M119.787 5.55171C119.787 5.88159 119.72 6.17135 119.586 6.42099C119.452 6.67063 119.271 6.87717 119.044 7.04063C118.776 7.23677 118.481 7.37645 118.16 7.45966C117.839 7.54288 117.431 7.58448 116.936 7.58448H114.08V0.946777H116.601C117.124 0.946777 117.521 0.965351 117.791 1.0025C118.061 1.03965 118.314 1.11766 118.551 1.23654C118.806 1.36433 118.997 1.53521 119.123 1.74919C119.25 1.96316 119.313 2.20983 119.313 2.48919C119.313 2.81312 119.226 3.10139 119.051 3.354C118.877 3.60662 118.637 3.79236 118.33 3.91123V3.94689C118.771 4.03308 119.124 4.20916 119.389 4.47515C119.654 4.74113 119.787 5.09998 119.787 5.55171ZM117.492 2.82352C117.492 2.71653 117.462 2.60658 117.403 2.49364C117.344 2.38071 117.252 2.29899 117.128 2.24846C117.009 2.20091 116.87 2.17491 116.708 2.17045C116.547 2.16599 116.307 2.16376 115.987 2.16376H115.863V3.56798H116.088C116.394 3.56798 116.609 3.56501 116.732 3.55906C116.855 3.55312 116.982 3.52192 117.113 3.46545C117.257 3.40304 117.356 3.31686 117.41 3.2069C117.465 3.09694 117.492 2.96915 117.492 2.82352ZM117.942 5.52051C117.942 5.31545 117.897 5.15497 117.808 5.03906C117.719 4.92316 117.584 4.83549 117.406 4.77605C117.297 4.73742 117.148 4.71587 116.958 4.71141C116.767 4.70695 116.513 4.70473 116.193 4.70473H115.863V6.36749H115.958C116.425 6.36749 116.747 6.36452 116.926 6.35858C117.105 6.35264 117.287 6.31252 117.473 6.23822C117.636 6.17284 117.755 6.07699 117.83 5.95069C117.905 5.82438 117.942 5.68099 117.942 5.52051Z" fill="#747478"/>
<path fill-rule="evenodd" clip-rule="evenodd" d="M126.992 7.58448H125.199V2.2128H123.398C123.385 2.47136 123.373 2.71282 123.362 2.9372C123.351 3.16158 123.339 3.37481 123.326 3.5769C123.291 4.15642 123.233 4.65643 123.153 5.07695C123.074 5.49748 122.982 5.84147 122.88 6.10894C122.768 6.39424 122.655 6.61862 122.54 6.78207C122.425 6.94553 122.316 7.0748 122.214 7.1699C122.061 7.31255 121.869 7.42474 121.639 7.50647C121.409 7.5882 121.182 7.62906 120.959 7.62906C120.809 7.62906 120.644 7.62312 120.465 7.61123C120.286 7.59934 120.173 7.59043 120.125 7.58448V6.11786H120.192C120.224 6.12083 120.255 6.1238 120.286 6.12677C120.316 6.12974 120.355 6.13123 120.403 6.13123C120.483 6.13123 120.585 6.11934 120.71 6.09557C120.834 6.07179 120.928 6.03167 120.992 5.97521C121.222 5.77312 121.38 5.46033 121.464 5.03683C121.549 4.61334 121.614 4.00188 121.658 3.20244C121.678 2.83689 121.69 2.5085 121.694 2.21726C121.699 1.92601 121.711 1.50252 121.73 0.946777H126.992V7.58448Z" fill="#747478"/>
<path fill-rule="evenodd" clip-rule="evenodd" d="M148.441 7.58448H146.658V3.18461L145.359 6.02424H144.138L142.839 3.18461V7.58448H141.152V0.946777H143.218L144.799 4.22328L146.375 0.946777H148.441V7.58448Z" fill="#747478"/>
<path fill-rule="evenodd" clip-rule="evenodd" d="M133.845 7.58448H132.063V5.15051H131.387L129.59 7.58448H127.463L129.59 4.834C129.153 4.65866 128.815 4.412 128.577 4.094C128.339 3.77601 128.22 3.36589 128.22 2.86364C128.22 2.52485 128.301 2.22915 128.462 1.97654C128.623 1.72392 128.829 1.51738 129.078 1.3569C129.295 1.21722 129.559 1.11395 129.871 1.04708C130.182 0.980211 130.539 0.946777 130.942 0.946777H133.845V7.58448ZM132.063 3.95581V2.16822H131.488C131.21 2.16822 130.996 2.17639 130.846 2.19274C130.696 2.20909 130.55 2.26629 130.41 2.36437C130.301 2.43866 130.218 2.53599 130.161 2.65635C130.103 2.77672 130.074 2.90971 130.074 3.05533C130.074 3.2069 130.105 3.34286 130.165 3.46322C130.226 3.58358 130.311 3.6824 130.419 3.75967C130.541 3.84882 130.684 3.9038 130.848 3.92461C131.013 3.94541 131.229 3.95581 131.498 3.95581H132.063Z" fill="#747478"/>
<path fill-rule="evenodd" clip-rule="evenodd" d="M135.061 7.58448V0.946777H139.886V2.2128H136.843V3.37629H139.646V4.64232H136.843V6.31846H139.886V7.58448H135.061Z" fill="#747478"/>
<path fill-rule="evenodd" clip-rule="evenodd" d="M105.359 12.8012C105.359 13.1103 105.306 13.4045 105.2 13.6839C105.095 13.9632 104.943 14.1965 104.745 14.3838C104.624 14.4997 104.49 14.6067 104.345 14.7047C104.2 14.8028 104.039 14.886 103.863 14.9544C103.688 15.0227 103.497 15.0762 103.291 15.1148C103.085 15.1535 102.854 15.1728 102.598 15.1728H101.659V17.3438H99.8672V10.7061H102.637C103.049 10.7061 103.404 10.741 103.703 10.8108C104.002 10.8807 104.272 10.9914 104.515 11.1429C104.784 11.3093 104.991 11.5315 105.138 11.8094C105.285 12.0872 105.359 12.4179 105.359 12.8012ZM103.518 12.8414C103.518 12.6541 103.471 12.4929 103.375 12.3577C103.279 12.2225 103.164 12.1296 103.03 12.0791C102.86 12.0107 102.698 11.9713 102.543 11.9609C102.388 11.9505 102.178 11.9453 101.913 11.9453H101.659V13.9335H101.784C101.953 13.9335 102.113 13.932 102.263 13.9291C102.413 13.9261 102.544 13.9157 102.656 13.8979C102.752 13.883 102.853 13.854 102.96 13.8109C103.067 13.7678 103.15 13.7195 103.207 13.6661C103.328 13.5561 103.411 13.4417 103.454 13.3228C103.497 13.2039 103.518 13.0434 103.518 12.8414Z" fill="#747478"/>
<path fill-rule="evenodd" clip-rule="evenodd" d="M112.32 17.3438H110.528V14.4016H108.089V17.3438H106.297V10.7061H108.089V13.1356H110.528V10.7061H112.32V17.3438Z" fill="#747478"/>
<path fill-rule="evenodd" clip-rule="evenodd" d="M128.701 17.3436H126.938V12.9705L124.197 17.3436H122.539V10.7059H124.302V14.66L126.837 10.7059H128.701V17.3436ZM128.16 8.51709C128.157 9.05203 127.95 9.47998 127.539 9.80094C127.129 10.1219 126.492 10.2824 125.63 10.2824C124.783 10.2824 124.151 10.1197 123.732 9.79426C123.314 9.46883 123.103 9.04312 123.1 8.51709H124.671C124.678 8.84103 124.751 9.07655 124.892 9.22366C125.032 9.37076 125.278 9.44432 125.63 9.44432C125.981 9.44432 126.227 9.37002 126.368 9.22143C126.508 9.07283 126.582 8.83806 126.588 8.51709H128.16Z" fill="#747478"/>
<path fill-rule="evenodd" clip-rule="evenodd" d="M119.03 15.2218C119.03 15.5458 118.964 15.8437 118.831 16.1156C118.698 16.3876 118.517 16.6097 118.287 16.7821C118.012 16.9871 117.716 17.132 117.398 17.2167C117.08 17.3014 116.693 17.3438 116.236 17.3438H113.404V10.7061H115.192V13.198H116.265C116.683 13.198 117.062 13.2255 117.401 13.2804C117.739 13.3354 118.047 13.464 118.325 13.6661C118.571 13.8444 118.75 14.068 118.862 14.337C118.974 14.6059 119.03 14.9009 119.03 15.2218ZM117.18 15.2709C117.18 15.1609 117.167 15.0569 117.142 14.9588C117.116 14.8607 117.06 14.7701 116.974 14.6869C116.888 14.6037 116.77 14.539 116.62 14.493C116.469 14.4469 116.262 14.4239 115.997 14.4239H115.192V16.1134H115.997C116.361 16.1134 116.649 16.0413 116.862 15.8972C117.074 15.7531 117.18 15.5443 117.18 15.2709ZM121.354 17.3438H119.562V10.7061H121.354V17.3438Z" fill="#747478"/>
<path fill-rule="evenodd" clip-rule="evenodd" d="M137.164 11.9721H134.146V17.3438H132.354V10.7061H137.164V11.9721Z" fill="#747478"/>
<path fill-rule="evenodd" clip-rule="evenodd" d="M143.597 12.8012C143.597 13.1103 143.544 13.4045 143.439 13.6839C143.333 13.9632 143.182 14.1965 142.983 14.3838C142.862 14.4997 142.729 14.6067 142.583 14.7047C142.438 14.8028 142.277 14.886 142.102 14.9544C141.926 15.0227 141.735 15.0762 141.529 15.1148C141.323 15.1535 141.092 15.1728 140.837 15.1728H139.898V17.3438H138.105V10.7061H140.875C141.287 10.7061 141.643 10.741 141.941 10.8108C142.24 10.8807 142.511 10.9914 142.753 11.1429C143.022 11.3093 143.229 11.5315 143.376 11.8094C143.523 12.0872 143.597 12.4179 143.597 12.8012ZM141.757 12.8414C141.757 12.6541 141.709 12.4929 141.613 12.3577C141.517 12.2225 141.402 12.1296 141.268 12.0791C141.099 12.0107 140.937 11.9713 140.782 11.9609C140.627 11.9505 140.417 11.9453 140.152 11.9453H139.898V13.9335H140.022C140.191 13.9335 140.351 13.932 140.501 13.9291C140.651 13.9261 140.782 13.9157 140.894 13.8979C140.99 13.883 141.092 13.854 141.199 13.8109C141.306 13.7678 141.388 13.7195 141.445 13.6661C141.567 13.5561 141.649 13.4417 141.692 13.3228C141.735 13.2039 141.757 13.0434 141.757 12.8414Z" fill="#747478"/>
<path fill-rule="evenodd" clip-rule="evenodd" d="M150.429 10.7061L148.047 16.0153C147.907 16.3244 147.749 16.5681 147.575 16.7464C147.401 16.9247 147.218 17.0599 147.027 17.1521C146.835 17.2442 146.643 17.3059 146.452 17.3371C146.26 17.3683 146.059 17.3839 145.848 17.3839C145.627 17.3839 145.371 17.3794 145.079 17.3705C144.787 17.3616 144.591 17.3527 144.492 17.3438V15.9351H144.602C144.631 15.941 144.676 15.9485 144.736 15.9574C144.797 15.9663 144.874 15.9752 144.966 15.9841C145.043 15.9901 145.126 15.996 145.215 16.002C145.305 16.0079 145.386 16.0109 145.46 16.0109C145.674 16.0109 145.876 15.9864 146.066 15.9373C146.256 15.8883 146.383 15.8043 146.447 15.6854L143.807 10.7061H145.742L147.271 13.8176L148.565 10.7061H150.429Z" fill="#747478"/>
<path fill-rule="evenodd" clip-rule="evenodd" d="M155.919 14.2009C156.078 14.3287 156.206 14.4869 156.302 14.6756C156.398 14.8643 156.446 15.0939 156.446 15.3644C156.446 16.0271 156.172 16.5442 155.624 16.9157C155.076 17.2872 154.29 17.4729 153.264 17.4729C152.798 17.4729 152.353 17.4343 151.93 17.357C151.506 17.2797 151.119 17.1742 150.768 17.0405V15.5561H150.93C151.17 15.7106 151.486 15.8614 151.877 16.0085C152.268 16.1556 152.651 16.2292 153.024 16.2292C153.507 16.2292 153.89 16.1489 154.175 15.9885C154.459 15.828 154.601 15.5813 154.601 15.2485C154.601 14.9602 154.497 14.747 154.29 14.6088C154.082 14.4706 153.708 14.4015 153.168 14.4015H152.143V13.2157H153.12C153.568 13.2157 153.895 13.1525 154.103 13.0262C154.31 12.8999 154.414 12.7105 154.414 12.4579C154.414 12.235 154.3 12.073 154.071 11.972C153.843 11.8709 153.539 11.8204 153.159 11.8204C152.945 11.8204 152.741 11.8412 152.548 11.8828C152.354 11.9244 152.165 11.9764 151.98 12.0388C151.807 12.0983 151.648 12.1636 151.503 12.235C151.358 12.3063 151.247 12.3598 151.17 12.3955H151.002V11.0135C151.21 10.9333 151.549 10.8404 152.021 10.7349C152.492 10.6294 152.986 10.5767 153.504 10.5767C154.424 10.5767 155.112 10.7186 155.569 11.0024C156.026 11.2862 156.254 11.6807 156.254 12.1859C156.254 12.5634 156.129 12.8888 155.878 13.1622C155.627 13.4356 155.304 13.6184 154.908 13.7105V13.7774C155.055 13.8012 155.225 13.8502 155.42 13.9245C155.615 13.9988 155.781 14.0909 155.919 14.2009Z" fill="#747478"/>
<path fill-rule="evenodd" clip-rule="evenodd" d="M67.3203 0.9735C68.3458 0.834266 69.4173 0.764648 70.5351 0.764648C71.6528 0.764648 72.7244 0.834266 73.7498 0.9735V6.01054H67.3203V0.9735Z" fill="#747478"/>
<path fill-rule="evenodd" clip-rule="evenodd" d="M67.3203 17.4498C68.3458 17.5891 69.4173 17.6587 70.5351 17.6587C71.6528 17.6587 72.7244 17.5891 73.7498 17.4498V12.4128H67.3203V17.4498Z" fill="#747478"/>
<path fill-rule="evenodd" clip-rule="evenodd" d="M44.2734 1.1543V17.3152H50.3687V11.1202H52.6747L57.7385 17.3152H65.2931L57.7385 8.73998L64.9497 1.1543H57.7385L52.6747 7.10913H50.3687V1.1543H44.2734Z" fill="#747478"/>
<path fill-rule="evenodd" clip-rule="evenodd" d="M22.6934 1.08283L23.4922 5.36173C26.2118 5.1912 28.4682 5.10594 30.2614 5.10594C32.0547 5.10594 33.8338 5.1912 35.5988 5.36173L35.9064 7.01163H27.8706V11.2653H35.9064L35.5988 13.1165C34.0606 13.2369 32.2052 13.2971 30.0327 13.2971C27.8603 13.2971 25.6801 13.2369 23.4922 13.1165L22.6934 17.2839C25.9306 17.4479 28.9575 17.5299 31.7741 17.5299C34.5906 17.5299 37.3889 17.4479 40.1687 17.2839C41.1993 14.7019 41.7146 12.0546 41.7146 9.342C41.7146 6.62939 41.1993 3.87633 40.1687 1.08283C38.0228 0.933208 35.374 0.858398 32.2224 0.858398C29.0708 0.858398 25.8945 0.933208 22.6934 1.08283Z" fill="#747478"/>
<path fill-rule="evenodd" clip-rule="evenodd" d="M0.859375 1.14551V17.2566H7.08862V5.6062H14.246V17.2566H20.5345V1.14551H0.859375Z" fill="#747478"/>
</svg>
