<svg width="522" height="537" viewBox="0 0 522 537" fill="none" xmlns="http://www.w3.org/2000/svg">
<g opacity="0.7">
<path opacity="0.0526316" d="M158.453 457.453L160.662 439.043C162.872 420.632 167.29 383.811 151.825 346.99C136.361 310.169 101.012 273.348 101.012 236.527C101.012 199.707 136.361 162.886 131.942 126.065C127.524 89.2438 83.3384 52.4228 61.2459 34.0124L39.1533 15.6019" stroke="#0044FF"/>
<path opacity="0.105263" d="M150.026 472.66L153.831 454.512C157.636 436.364 165.247 400.068 153.05 362.04C140.854 324.011 108.849 284.249 112.058 247.568C115.268 210.888 153.69 177.288 152.498 140.222C151.305 103.156 110.497 62.624 90.0935 42.3581L69.6896 22.0922" stroke="#0044FF"/>
<path opacity="0.157895" d="M141.306 486.154L146.678 468.407C152.051 450.66 162.796 415.166 153.96 376.219C145.124 337.272 116.707 294.872 123.101 258.611C129.495 222.349 170.7 192.226 172.742 155.197C174.785 118.168 137.665 74.2338 119.105 52.2667L100.545 30.2996" stroke="#0044FF"/>
<path opacity="0.210526" d="M132.454 497.916L139.353 480.705C146.252 463.494 160.05 429.071 154.642 389.502C149.235 349.933 124.621 305.218 134.151 269.652C143.681 234.086 187.354 207.668 192.616 170.958C197.878 134.248 164.729 87.2461 148.154 63.745L131.579 40.2439" stroke="#0044FF"/>
<path opacity="0.263158" d="M123.616 507.942L131.989 491.397C140.361 474.853 157.107 441.763 155.168 401.874C153.23 361.984 132.607 315.294 145.2 280.694C157.794 246.093 203.604 223.583 212.045 187.471C220.487 151.36 191.56 101.647 177.096 76.7909L162.633 51.9346" stroke="#0044FF"/>
<path opacity="0.315789" d="M114.939 516.238L124.722 500.486C134.504 484.734 154.07 453.23 155.616 413.323C157.161 373.417 140.686 325.107 156.247 291.736C171.808 258.365 219.406 239.932 230.962 204.694C242.519 169.455 218.035 117.411 205.793 91.3886L193.551 65.3664" stroke="#0044FF"/>
<path opacity="0.368421" d="M106.577 522.825L117.696 507.986C128.814 493.146 151.051 463.468 156.069 423.847C161.087 384.227 148.885 334.665 167.295 302.777C185.706 270.89 234.728 256.676 249.312 222.579C263.896 188.482 244.041 134.501 234.114 107.511L224.186 80.5208" stroke="#0044FF"/>
<path opacity="0.421053" d="M98.6797 527.738L111.049 513.924C123.419 500.111 148.158 472.483 156.609 433.451C165.061 394.419 157.225 343.982 178.345 313.82C199.464 283.658 249.54 273.771 267.04 241.075C284.54 208.378 269.465 152.873 261.928 125.12L254.39 97.3674" stroke="#0044FF"/>
<path opacity="0.473684" d="M91.3889 531.023L104.915 518.34C118.442 505.657 145.495 480.29 157.316 442.143C169.137 403.996 165.727 353.069 189.395 324.862C213.063 296.656 263.809 291.171 284.093 260.124C304.376 229.077 294.196 172.469 289.106 144.165L284.016 115.861" stroke="#0044FF"/>
<path opacity="0.526316" d="M84.843 532.74L99.4234 521.284C114.004 509.828 143.164 486.916 158.265 449.945C173.367 412.973 174.408 361.942 200.444 335.905C226.481 309.869 277.512 308.828 300.424 279.667C323.336 250.506 318.129 193.226 315.525 164.586L312.921 135.946" stroke="#0044FF"/>
<path opacity="0.578947" d="M79.1786 532.958L94.7019 522.817C110.225 512.675 141.272 492.392 159.538 456.877C177.804 421.362 183.289 370.616 211.495 346.948C239.702 323.28 290.629 326.69 315.996 299.637C341.362 272.585 341.167 215.069 341.069 186.311L340.972 157.553" stroke="#0044FF"/>
<path opacity="0.631579" d="M74.5213 531.762L90.8694 523.011C107.218 514.261 139.914 496.761 161.206 462.974C182.497 429.186 192.384 379.111 222.546 357.991C252.708 336.872 303.145 344.707 330.773 319.968C358.4 295.229 363.219 237.915 365.628 209.258L368.037 180.601" stroke="#0044FF"/>
<path opacity="0.684211" d="M70.9917 529.243L88.0402 521.951C105.089 514.659 139.186 500.075 163.341 468.272C187.497 436.468 201.711 387.446 233.599 369.035C265.486 350.625 315.048 362.827 344.727 340.589C374.405 318.352 384.201 261.677 389.098 233.339L393.996 205.001" stroke="#0044FF"/>
<path opacity="0.736842" d="M68.6917 525.505L86.3109 519.727C103.93 513.949 139.169 502.392 166.004 472.815C192.839 443.238 211.272 395.641 244.643 380.079C278.014 364.518 326.324 380.993 357.827 361.427C389.331 341.862 404.029 286.255 411.378 258.452L418.727 230.649" stroke="#0044FF"/>
<path opacity="0.789474" d="M67.7395 520.661L85.7952 516.441C103.851 512.22 139.963 503.778 169.274 476.653C198.585 449.527 221.095 403.717 255.696 391.124C290.296 378.53 336.986 399.153 370.075 382.408C403.164 365.662 422.653 311.548 432.397 284.491L442.141 257.434" stroke="#0044FF"/>
<path opacity="0.842105" d="M68.214 514.831L86.5689 512.2C104.924 509.569 141.634 504.307 173.197 479.84C204.761 455.372 231.179 411.698 266.745 402.168C302.311 392.638 347.026 417.252 381.449 403.454C415.872 389.656 440.002 337.447 452.067 311.342L464.132 285.237" stroke="#0044FF"/>
<path opacity="0.894737" d="M70.2045 508.145L88.7189 507.124C107.233 506.103 144.262 504.06 177.838 482.437C211.414 460.813 241.538 419.608 277.799 413.214C314.061 406.82 356.46 435.237 391.955 424.492C427.449 413.747 456.038 363.839 470.332 338.885L484.627 313.931" stroke="#0044FF"/>
<path opacity="0.947368" d="M73.7678 500.736L92.3007 501.332C110.834 501.929 147.9 503.121 183.233 484.506C218.566 465.891 252.166 427.468 288.846 424.259C325.527 421.05 365.289 453.054 401.584 445.444C437.88 437.833 470.71 390.607 487.125 366.994L503.54 343.381" stroke="#0044FF"/>
<path d="M78.9717 492.746L97.3821 494.955C115.793 497.164 152.614 501.583 189.434 486.118C226.255 470.653 263.076 435.305 299.897 435.305C336.718 435.305 373.539 470.653 410.36 466.235C447.181 461.816 484.002 417.631 502.412 395.539L520.823 373.446" stroke="#0044FF"/>
</g>
</svg>
