<svg width="683" height="683" viewBox="0 0 683 683" fill="none" xmlns="http://www.w3.org/2000/svg">
<path opacity="0.0344828" d="M184.678 663.299C198.466 613.271 230.374 581.362 280.403 567.575C330.431 553.788 362.339 521.88 376.127 471.851C389.914 421.822 421.822 389.914 471.851 376.127C521.879 362.339 553.788 330.431 567.575 280.403C581.362 230.374 613.27 198.466 663.299 184.678" stroke="#0D34A0" stroke-width="5"/>
<path opacity="0.0689655" d="M178.568 657.189C192.356 607.16 224.264 575.252 274.293 561.465C324.321 547.678 356.229 515.769 370.017 465.741C383.804 415.712 415.712 383.804 465.741 370.017C515.77 356.229 547.678 324.321 561.465 274.292C575.253 224.264 607.161 192.356 657.189 178.568" stroke="#0D34A0" stroke-width="5"/>
<path opacity="0.103448" d="M172.458 651.079C186.245 601.05 218.153 569.142 268.182 555.355C318.21 541.567 350.119 509.659 363.906 459.63C377.693 409.602 409.601 377.694 459.63 363.906C509.659 350.119 541.567 318.211 555.354 268.182C569.142 218.153 601.05 186.245 651.078 172.458" stroke="#0D34A0" stroke-width="5"/>
<path opacity="0.137931" d="M166.348 644.968C180.135 594.94 212.043 563.032 262.072 549.244C312.101 535.457 344.009 503.549 357.796 453.52C371.584 403.491 403.492 371.583 453.52 357.796C503.549 344.009 535.457 312.1 549.244 262.072C563.032 212.043 594.94 180.135 644.969 166.348" stroke="#0D34A0" stroke-width="5"/>
<path opacity="0.172414" d="M160.237 638.858C174.025 588.829 205.933 556.921 255.962 543.134C305.99 529.346 337.898 497.438 351.686 447.41C365.473 397.381 397.381 365.473 447.41 351.686C497.439 337.898 529.347 305.99 543.134 255.961C556.921 205.933 588.83 174.025 638.858 160.237" stroke="#0D34A0" stroke-width="5"/>
<path opacity="0.206897" d="M154.127 632.748C167.915 582.719 199.823 550.811 249.851 537.024C299.88 523.236 331.788 491.328 345.575 441.299C359.363 391.271 391.271 359.363 441.3 345.575C491.328 331.788 523.236 299.88 537.024 249.851C550.811 199.822 582.719 167.914 632.748 154.127" stroke="#0D34A0" stroke-width="5"/>
<path opacity="0.241379" d="M148.017 626.638C161.804 576.609 193.712 544.701 243.741 530.913C293.77 517.126 325.678 485.218 339.465 435.189C353.252 385.161 385.161 353.253 435.189 339.465C485.218 325.678 517.126 293.77 530.913 243.741C544.701 193.712 576.609 161.804 626.638 148.017" stroke="#0D34A0" stroke-width="5"/>
<path opacity="0.275862" d="M141.906 620.527C155.694 570.499 187.602 538.591 237.631 524.803C287.659 511.016 319.567 479.108 333.355 429.079C347.142 379.05 379.05 347.142 429.079 333.355C479.107 319.567 511.016 287.659 524.803 237.631C538.59 187.602 570.498 155.694 620.527 141.906" stroke="#0D34A0" stroke-width="5"/>
<path opacity="0.310345" d="M135.796 614.417C149.583 564.388 181.492 532.48 231.52 518.693C281.549 504.905 313.457 472.997 327.244 422.969C341.032 372.94 372.94 341.032 422.968 327.244C472.997 313.457 504.905 281.549 518.693 231.52C532.48 181.492 564.388 149.584 614.417 135.796" stroke="#0D34A0" stroke-width="5"/>
<path opacity="0.344828" d="M129.686 608.307C143.473 558.278 175.381 526.37 225.41 512.583C275.439 498.795 307.347 466.887 321.134 416.858C334.921 366.83 366.829 334.922 416.858 321.134C466.887 307.347 498.795 275.439 512.582 225.41C526.37 175.382 558.278 143.473 608.306 129.686" stroke="#0D34A0" stroke-width="5"/>
<path opacity="0.37931" d="M123.576 602.196C137.363 552.168 169.271 520.26 219.3 506.472C269.329 492.685 301.237 460.777 315.024 410.748C328.812 360.719 360.72 328.811 410.748 315.024C460.777 301.237 492.685 269.328 506.472 219.3C520.26 169.271 552.168 137.363 602.197 123.576" stroke="#0D34A0" stroke-width="5"/>
<path opacity="0.413793" d="M117.465 596.086C131.253 546.057 163.161 514.149 213.19 500.362C263.218 486.574 295.126 454.666 308.914 404.638C322.701 354.609 354.609 322.701 404.638 308.914C454.667 295.126 486.575 263.218 500.362 213.189C514.149 163.161 546.058 131.253 596.086 117.465" stroke="#0D34A0" stroke-width="5"/>
<path opacity="0.448276" d="M111.355 589.976C125.143 539.947 157.051 508.039 207.079 494.252C257.108 480.464 289.016 448.556 302.803 398.527C316.591 348.499 348.499 316.591 398.528 302.803C448.556 289.016 480.464 257.108 494.252 207.079C508.039 157.05 539.947 125.142 589.976 111.355" stroke="#0D34A0" stroke-width="5"/>
<path opacity="0.482759" d="M105.245 583.865C119.032 533.837 150.94 501.929 200.969 488.141C250.998 474.354 282.906 442.446 296.693 392.417C310.48 342.388 342.389 310.48 392.417 296.693C442.446 282.906 474.354 250.997 488.141 200.969C501.929 150.94 533.837 119.032 583.866 105.245" stroke="#0D34A0" stroke-width="5"/>
<path opacity="0.517241" d="M99.1344 577.755C112.922 527.727 144.83 495.819 194.859 482.031C244.887 468.244 276.795 436.336 290.583 386.307C304.37 336.278 336.278 304.37 386.307 290.583C436.336 276.795 468.244 244.887 482.031 194.859C495.818 144.83 527.727 112.922 577.755 99.1345" stroke="#0D34A0" stroke-width="5"/>
<path opacity="0.551724" d="M93.0241 571.645C106.811 521.616 138.72 489.708 188.748 475.921C238.777 462.133 270.685 430.225 284.472 380.197C298.26 330.168 330.168 298.26 380.196 284.472C430.225 270.685 462.133 238.777 475.921 188.748C489.708 138.72 521.616 106.812 571.645 93.0241" stroke="#0D34A0" stroke-width="5"/>
<path opacity="0.586207" d="M86.9137 565.535C100.701 515.506 132.609 483.598 182.638 469.811C232.667 456.023 264.575 424.115 278.362 374.087C292.149 324.058 324.057 292.15 374.086 278.362C424.115 264.575 456.023 232.667 469.81 182.638C483.598 132.61 515.506 100.701 565.534 86.914" stroke="#0D34A0" stroke-width="5"/>
<path opacity="0.62069" d="M80.8038 559.424C94.5913 509.396 126.499 477.488 176.528 463.7C226.557 449.913 258.465 418.005 272.252 367.976C286.04 317.947 317.948 286.039 367.976 272.252C418.005 258.465 449.913 226.557 463.7 176.528C477.488 126.499 509.396 94.5911 559.425 80.8037" stroke="#0D34A0" stroke-width="5"/>
<path opacity="0.655172" d="M74.6935 553.314C88.4809 503.285 120.389 471.377 170.418 457.59C220.446 443.803 252.354 411.894 266.142 361.866C279.929 311.837 311.837 279.929 361.866 266.142C411.895 252.354 443.803 220.446 457.59 170.417C471.378 120.389 503.286 88.4808 553.314 74.6933" stroke="#0D34A0" stroke-width="5"/>
<path opacity="0.689655" d="M68.5831 547.204C82.3706 497.175 114.279 465.267 164.307 451.48C214.336 437.692 246.244 405.784 260.031 355.755C273.819 305.727 305.727 273.819 355.756 260.031C405.784 246.244 437.692 214.336 451.48 164.307C465.267 114.278 497.175 82.3704 547.204 68.583" stroke="#0D34A0" stroke-width="5"/>
<path opacity="0.724138" d="M62.4728 541.094C76.2602 491.065 108.168 459.157 158.197 445.369C208.226 431.582 240.134 399.674 253.921 349.645C267.709 299.617 299.617 267.709 349.645 253.921C399.674 240.134 431.582 208.226 445.369 158.197C459.157 108.168 491.065 76.2603 541.094 62.4729" stroke="#0D34A0" stroke-width="5"/>
<path opacity="0.758621" d="M56.3624 534.983C70.1499 484.955 102.058 453.047 152.087 439.259C202.115 425.472 234.023 393.564 247.811 343.535C261.598 293.506 293.506 261.598 343.535 247.811C393.564 234.023 425.472 202.115 439.259 152.087C453.046 102.058 484.955 70.1499 534.983 56.3625" stroke="#0D34A0" stroke-width="5"/>
<path opacity="0.793103" d="M50.2521 528.873C64.0395 478.844 95.9476 446.936 145.976 433.149C196.005 419.361 227.913 387.453 241.7 337.425C255.488 287.396 287.396 255.488 337.425 241.7C387.453 227.913 419.361 196.005 433.149 145.976C446.936 95.9477 478.844 64.0396 528.873 50.2522" stroke="#0D34A0" stroke-width="5"/>
<path opacity="0.827586" d="M44.1417 522.763C57.9292 472.734 89.8372 440.826 139.866 427.039C189.895 413.251 221.803 381.343 235.59 331.315C249.377 281.286 281.286 249.378 331.314 235.59C381.343 221.803 413.251 189.895 427.038 139.866C440.826 89.8376 472.734 57.9295 522.763 44.1421" stroke="#0D34A0" stroke-width="5"/>
<path opacity="0.862069" d="M38.0319 516.652C51.8193 466.624 83.7274 434.716 133.756 420.928C183.785 407.141 215.693 375.233 229.48 325.204C243.268 275.176 275.176 243.267 325.204 229.48C375.233 215.693 407.141 183.785 420.928 133.756C434.716 83.7272 466.624 51.8191 516.653 38.0317" stroke="#0D34A0" stroke-width="5"/>
<path opacity="0.896552" d="M31.9215 510.542C45.7089 460.513 77.617 428.605 127.646 414.818C177.674 401.031 209.582 369.122 223.37 319.094C237.157 269.065 269.065 237.157 319.094 223.37C369.123 209.582 401.031 177.674 414.818 127.646C428.606 77.6169 460.514 45.7088 510.542 31.9214" stroke="#0D34A0" stroke-width="5"/>
<path opacity="0.931035" d="M25.8112 504.432C39.5986 454.403 71.5066 422.495 121.535 408.708C171.564 394.92 203.472 363.012 217.259 312.983C231.047 262.955 262.955 231.047 312.984 217.259C363.012 203.472 394.92 171.564 408.708 121.535C422.495 71.5065 454.403 39.5984 504.432 25.811" stroke="#0D34A0" stroke-width="5"/>
<path opacity="0.965517" d="M19.7008 498.321C33.4882 448.293 65.3963 416.385 115.425 402.597C165.454 388.81 197.362 356.902 211.149 306.873C224.937 256.844 256.845 224.936 306.873 211.149C356.902 197.362 388.81 165.453 402.597 115.425C416.385 65.3961 448.293 33.4881 498.322 19.7007" stroke="#0D34A0" stroke-width="5"/>
<path d="M13.5905 492.211C27.3779 442.183 59.2859 410.275 109.315 396.487C159.343 382.7 191.251 350.792 205.039 300.763C218.826 250.734 250.734 218.826 300.763 205.039C350.792 191.251 382.7 159.343 396.487 109.315C410.274 59.2861 442.183 27.378 492.211 13.5906" stroke="#0D34A0" stroke-width="5"/>
</svg>
