<svg width="778" height="1090" viewBox="0 0 778 1090" fill="none" xmlns="http://www.w3.org/2000/svg">
<path opacity="0.01" fill-rule="evenodd" clip-rule="evenodd" d="M397.534 289.198C392.031 166.936 296.684 8.04547 400.161 -67.4784C500.528 -140.733 662.932 -16.5927 800.251 -4.73104C927.847 6.29065 1055.75 -53.4586 1172.69 -0.747839C1297.54 55.5308 1390.29 164.874 1431.46 279.799C1471.83 392.478 1450.8 512.859 1392.18 611.874C1339.2 701.358 1224.9 739.589 1127.32 793.538C1033.39 845.467 949.85 939.281 834.269 920.321C718.477 901.326 662.009 783.066 582.207 704.118C522.105 644.658 458.779 589.481 426.463 516.874C393.286 442.332 401.033 366.928 397.534 289.198Z" stroke="url(#paint0_linear_322_1576)" stroke-width="3"/>
<path opacity="0.02" fill-rule="evenodd" clip-rule="evenodd" d="M390.96 291.395C382.999 169.449 284.902 12.2933 386.323 -64.6385C484.696 -139.259 648.807 -17.7927 785.676 -8.01405C912.853 1.07216 1038.9 -60.4817 1156.32 -9.62631C1281.68 44.6714 1376.19 152.414 1419.5 266.5C1461.95 378.358 1443.47 498.825 1387.16 598.53C1336.27 688.637 1223.32 728.51 1127.33 783.82C1034.93 837.058 953.712 931.946 838.327 914.757C722.731 897.536 664.143 780.349 583.139 702.75C522.13 644.305 458.001 590.184 424.372 518.201C389.846 444.299 396.021 368.924 390.96 291.395Z" stroke="url(#paint1_linear_322_1576)" stroke-width="3"/>
<path opacity="0.03" fill-rule="evenodd" clip-rule="evenodd" d="M384.509 293.687C374.109 172.096 273.313 16.7142 372.658 -61.5911C469.018 -137.544 634.77 -18.7738 771.148 -11.0675C897.869 -3.90696 1022.03 -67.2334 1139.89 -18.2377C1265.73 34.0745 1361.95 140.192 1407.35 253.409C1451.87 364.414 1435.93 484.926 1381.93 585.284C1333.13 675.981 1221.56 717.472 1127.17 774.115C1036.32 828.637 957.445 924.561 842.292 909.136C726.928 893.682 666.254 777.601 584.08 701.366C522.191 643.949 457.286 590.895 422.363 519.555C386.509 446.313 391.12 370.99 384.509 293.687Z" stroke="url(#paint2_linear_322_1576)" stroke-width="3"/>
<path opacity="0.04" fill-rule="evenodd" clip-rule="evenodd" d="M378.183 296.071C365.364 174.872 261.918 21.304 359.17 -58.3402C453.5 -135.591 620.829 -19.5386 756.674 -13.8935C882.901 -8.64815 1005.14 -73.7148 1123.4 -26.5824C1249.67 23.7403 1347.56 128.208 1395.04 240.524C1441.59 350.646 1428.18 471.164 1376.49 572.138C1329.78 663.392 1219.62 706.476 1126.86 764.426C1037.58 820.206 961.047 917.127 846.163 903.459C731.068 889.767 668.341 774.821 585.033 699.966C522.289 643.589 456.633 591.612 420.436 520.934C383.275 448.372 386.332 373.126 378.183 296.071Z" stroke="url(#paint3_linear_322_1576)" stroke-width="3"/>
<path opacity="0.05" fill-rule="evenodd" clip-rule="evenodd" d="M371.983 298.547C356.766 177.776 250.723 26.0599 345.864 -54.8882C438.145 -133.404 606.986 -20.0883 742.258 -16.4925C867.952 -13.1513 988.254 -79.9253 1106.87 -34.6592C1233.52 13.6708 1333.04 116.466 1382.56 227.851C1431.11 337.06 1420.22 457.544 1370.85 559.096C1326.23 650.873 1217.5 695.526 1126.39 754.755C1038.69 811.766 964.519 909.646 849.939 897.729C735.149 885.79 670.403 772.009 585.995 698.551C522.423 643.225 456.043 592.334 418.593 522.337C380.145 450.475 381.657 375.329 371.983 298.547Z" stroke="url(#paint4_linear_322_1576)" stroke-width="3"/>
<path opacity="0.06" fill-rule="evenodd" clip-rule="evenodd" d="M365.912 301.111C348.317 180.806 239.729 30.9782 332.741 -51.2387C422.959 -130.985 593.246 -20.4251 727.905 -18.8661C853.029 -17.4174 971.364 -85.8655 1090.3 -42.4681C1217.29 3.86676 1318.39 104.967 1369.93 215.391C1420.45 323.657 1412.06 444.068 1365 546.162C1322.47 638.428 1215.21 684.625 1125.76 745.105C1039.67 803.32 967.862 902.121 853.621 891.947C739.17 881.754 672.44 769.167 586.968 697.119C522.594 642.856 455.517 593.061 416.834 523.763C377.12 452.619 377.098 377.598 365.912 301.111Z" stroke="url(#paint5_linear_322_1576)" stroke-width="3"/>
<path opacity="0.07" fill-rule="evenodd" clip-rule="evenodd" d="M359.972 303.762C340.022 183.958 228.941 36.0555 319.81 -47.3948C407.948 -128.338 579.616 -20.551 713.622 -21.0156C838.139 -21.4474 954.481 -91.536 1073.7 -50.009C1200.98 -5.67104 1303.63 93.7128 1357.14 203.145C1409.61 310.439 1403.71 430.739 1358.96 533.338C1318.53 626.06 1212.74 673.775 1124.98 735.478C1040.51 794.869 971.076 894.553 857.209 886.113C743.133 877.658 674.454 766.295 587.952 695.672C522.803 642.482 455.055 593.791 415.16 525.211C374.203 454.802 372.656 379.93 359.972 303.762Z" stroke="url(#paint6_linear_322_1576)" stroke-width="3"/>
<path opacity="0.08" fill-rule="evenodd" clip-rule="evenodd" d="M354.165 306.497C331.882 187.23 218.361 41.2881 307.071 -43.3602C393.115 -125.465 566.099 -20.4681 699.412 -22.9427C823.286 -25.242 937.611 -96.9373 1057.06 -57.2816C1184.6 -14.9416 1288.74 82.7047 1344.21 191.117C1398.59 297.411 1395.16 417.56 1352.73 520.626C1314.38 613.772 1210.11 662.98 1124.05 725.876C1041.22 786.418 974.161 886.946 860.702 880.231C747.036 873.504 676.444 763.393 588.948 694.208C523.049 642.101 454.657 594.523 413.572 526.678C371.392 457.024 368.332 382.323 354.165 306.497Z" stroke="url(#paint7_linear_322_1576)" stroke-width="3"/>
<path opacity="0.09" fill-rule="evenodd" clip-rule="evenodd" d="M348.491 309.314C323.898 190.62 207.991 46.6725 294.528 -39.1379C378.465 -122.37 552.698 -20.1785 685.281 -24.6486C808.476 -28.8022 920.759 -102.07 1040.41 -64.2858C1168.15 -23.9443 1273.75 71.9443 1331.13 179.307C1387.4 284.573 1386.43 404.534 1346.31 508.031C1310.05 601.566 1207.31 652.24 1122.97 716.302C1041.78 777.966 977.116 879.299 864.1 874.301C750.878 869.293 678.409 760.461 589.953 692.727C523.333 641.713 454.323 595.257 412.069 528.163C368.689 459.281 364.126 384.776 348.491 309.314Z" stroke="url(#paint8_linear_322_1576)" stroke-width="3"/>
<path opacity="0.1" fill-rule="evenodd" clip-rule="evenodd" d="M342.953 312.21C316.074 194.123 197.835 52.2048 282.186 -34.7317C364.001 -119.056 539.42 -19.6846 671.233 -26.1353C793.713 -32.1293 903.933 -106.935 1023.74 -71.022C1151.65 -32.6785 1258.65 61.4328 1317.92 167.719C1376.04 271.929 1377.51 391.663 1339.7 495.554C1305.53 589.445 1204.34 641.559 1121.74 706.759C1042.22 769.517 979.942 871.617 867.404 868.324C754.659 865.025 680.349 757.5 590.97 691.229C523.654 641.318 454.053 595.99 410.652 529.666C366.095 461.573 360.041 387.286 342.953 312.21Z" stroke="url(#paint9_linear_322_1576)" stroke-width="3"/>
<path opacity="0.11" fill-rule="evenodd" clip-rule="evenodd" d="M337.552 315.183C308.412 197.739 187.896 57.8814 270.047 -30.1452C349.73 -115.527 526.268 -18.9889 657.274 -27.4047C779.004 -35.2246 887.139 -111.533 1007.06 -77.4906C1135.09 -41.1442 1243.46 51.1711 1304.59 156.353C1364.52 259.48 1368.42 378.95 1332.91 483.199C1300.82 577.413 1201.22 630.94 1120.36 697.247C1042.53 761.072 982.641 863.9 870.613 862.303C758.379 860.703 682.266 754.509 591.999 689.714C524.014 640.914 453.849 596.723 409.323 531.183C363.611 463.897 356.079 389.851 337.552 315.183Z" stroke="url(#paint10_linear_322_1576)" stroke-width="3"/>
<path opacity="0.12" fill-rule="evenodd" clip-rule="evenodd" d="M332.29 318.231C300.913 201.463 178.175 63.6987 258.115 -25.3818C335.654 -111.785 513.246 -18.0932 643.408 -28.458C764.353 -38.0888 870.381 -115.865 990.375 -83.6913C1118.49 -49.3403 1228.17 41.161 1291.13 145.212C1352.85 247.23 1359.16 366.398 1325.95 470.967C1295.94 565.471 1197.93 620.385 1118.83 687.771C1042.7 752.633 985.211 856.151 873.726 856.238C762.037 856.326 684.157 751.491 593.038 688.182C524.411 640.501 453.709 597.453 408.08 532.715C361.236 466.252 352.238 392.469 332.29 318.231Z" stroke="url(#paint11_linear_322_1576)" stroke-width="3"/>
<path opacity="0.13" fill-rule="evenodd" clip-rule="evenodd" d="M327.168 321.351C293.581 205.293 168.677 69.6524 246.395 -20.4455C321.779 -107.836 500.359 -17.0008 629.64 -29.2978C749.767 -40.724 853.669 -119.932 973.698 -89.6253C1101.85 -57.2673 1212.81 31.4027 1277.55 134.296C1341.03 235.179 1349.72 354.009 1318.81 458.862C1290.88 553.623 1194.49 609.895 1117.17 678.33C1042.74 744.203 987.655 848.372 876.746 850.132C765.634 851.895 686.026 748.444 594.089 686.632C524.847 640.079 453.635 598.179 406.926 534.259C358.973 468.635 348.522 395.138 327.168 321.351Z" stroke="url(#paint12_linear_322_1576)" stroke-width="3"/>
<path opacity="0.14" fill-rule="evenodd" clip-rule="evenodd" d="M322.189 324.542C286.417 209.226 159.402 75.7394 234.889 -15.3394C308.108 -103.682 487.612 -15.7134 615.975 -29.9253C735.249 -43.1309 837.006 -123.735 957.031 -95.2924C1085.18 -64.9243 1197.37 21.8979 1263.86 123.607C1329.06 223.33 1340.13 341.785 1311.51 446.887C1285.64 541.872 1190.89 599.475 1115.36 668.929C1042.66 735.783 989.971 840.564 879.671 843.986C769.168 847.413 687.87 745.369 595.152 685.064C525.322 639.646 453.626 598.902 405.86 535.814C356.821 471.044 344.931 397.856 322.189 324.542Z" stroke="url(#paint13_linear_322_1576)" stroke-width="3"/>
<path opacity="0.15" fill-rule="evenodd" clip-rule="evenodd" d="M317.352 327.799C279.423 213.259 150.354 81.9553 223.6 -10.0679C294.646 -99.326 475.007 -14.2342 602.418 -30.3432C720.806 -45.3116 820.399 -127.276 940.381 -100.694C1068.48 -72.3119 1181.85 12.6468 1250.07 113.148C1316.96 211.685 1330.37 329.729 1304.03 435.043C1280.23 530.219 1187.14 589.125 1113.42 659.569C1042.45 727.376 992.161 832.731 882.501 837.8C772.64 842.879 689.689 742.266 596.227 683.478C525.835 639.202 453.682 599.618 404.882 537.378C354.781 473.479 341.466 400.62 317.352 327.799Z" stroke="url(#paint14_linear_322_1576)" stroke-width="3"/>
<path opacity="0.16" fill-rule="evenodd" clip-rule="evenodd" d="M312.659 331.121C272.6 217.389 141.533 88.2957 212.531 -4.63517C281.395 -94.7737 462.549 -12.5662 588.972 -30.554C706.442 -47.2682 803.853 -130.557 923.753 -105.831C1051.77 -79.4306 1166.27 3.64949 1236.18 102.917C1304.72 200.245 1320.46 317.842 1296.4 423.332C1274.66 518.667 1183.25 578.847 1111.33 650.252C1042.11 718.982 994.225 824.872 885.236 831.577C776.048 838.294 691.484 739.136 597.312 681.874C526.386 638.746 453.803 600.328 403.992 538.949C352.853 475.935 338.127 403.428 312.659 331.121Z" stroke="url(#paint15_linear_322_1576)" stroke-width="3"/>
<path opacity="0.17" fill-rule="evenodd" clip-rule="evenodd" d="M308.114 334.505C265.953 221.613 132.945 94.7577 201.686 0.95585C268.361 -90.0274 450.243 -10.7113 575.643 -30.559C692.164 -49.0013 787.377 -133.578 907.155 -110.703C1035.04 -86.2797 1150.64 -5.09237 1222.2 92.9179C1292.36 189.013 1310.41 306.127 1288.62 411.757C1268.92 507.219 1179.21 568.645 1109.12 640.979C1041.65 710.605 996.164 816.992 887.879 825.319C779.395 833.661 693.256 735.98 598.41 680.251C526.977 638.278 453.992 601.03 403.193 540.527C351.04 478.413 334.918 406.279 308.114 334.505Z" stroke="url(#paint16_linear_322_1576)" stroke-width="3"/>
<path opacity="0.18" fill-rule="evenodd" clip-rule="evenodd" d="M303.712 337.949C259.479 225.928 124.587 101.336 191.065 6.70022C255.545 -85.092 438.091 -8.67325 562.434 -30.3614C677.972 -50.5139 770.972 -136.341 890.591 -115.312C1018.31 -92.8604 1134.95 -13.5794 1208.13 83.1501C1279.88 177.99 1300.21 294.586 1280.67 400.32C1263.02 495.877 1175.02 558.52 1106.77 631.754C1041.07 702.245 997.978 809.091 890.425 819.025C782.676 828.978 695.002 732.796 599.519 678.608C527.605 637.796 454.244 601.722 402.481 542.11C349.338 480.909 331.835 409.169 303.712 337.949Z" stroke="url(#paint17_linear_322_1576)" stroke-width="3"/>
<path opacity="0.19" fill-rule="evenodd" clip-rule="evenodd" d="M299.46 341.45C253.182 230.33 116.465 108.028 180.673 12.5947C242.952 -79.9708 426.097 -6.45424 549.35 -29.963C663.876 -51.807 754.647 -138.848 874.068 -119.66C1001.57 -99.1724 1119.22 -21.8105 1193.98 73.6154C1267.28 167.177 1289.87 283.22 1272.59 389.024C1256.96 484.643 1170.7 548.474 1104.29 622.577C1040.36 693.905 999.667 801.171 892.879 812.699C785.894 824.248 696.725 729.586 600.64 676.946C528.273 637.3 454.562 602.404 401.858 543.695C347.75 483.422 328.882 412.097 299.46 341.45Z" stroke="url(#paint18_linear_322_1576)" stroke-width="3"/>
<path opacity="0.2" fill-rule="evenodd" clip-rule="evenodd" d="M295.356 345.005C247.064 234.817 108.579 114.828 170.513 18.6346C230.586 -74.6683 414.265 -4.05787 536.396 -29.3667C649.879 -52.8833 738.407 -141.101 857.592 -123.747C984.845 -105.217 1103.45 -29.7862 1179.75 64.3139C1254.57 156.576 1279.4 272.032 1264.35 377.869C1250.76 473.519 1166.24 538.509 1101.68 613.451C1039.54 685.586 1001.23 793.234 895.238 806.341C789.048 819.471 698.423 726.35 601.772 675.264C528.979 636.789 454.945 603.074 401.325 545.282C346.276 485.949 326.058 415.06 295.356 345.005Z" stroke="url(#paint19_linear_322_1576)" stroke-width="3"/>
<path opacity="0.21" fill-rule="evenodd" clip-rule="evenodd" d="M291.402 348.613C241.126 239.386 100.932 121.733 160.587 24.8166C218.451 -69.1879 402.6 -1.48646 523.576 -28.5744C635.985 -53.7442 722.258 -143.102 841.17 -127.574C968.132 -110.994 1087.64 -37.5056 1165.46 55.247C1241.76 146.188 1268.8 261.023 1255.98 366.859C1244.4 462.508 1161.65 528.627 1098.95 604.377C1038.59 677.291 1002.68 785.283 897.505 799.952C792.139 814.649 700.098 723.088 602.917 673.563C529.725 636.263 455.395 603.732 400.883 546.868C344.918 488.49 323.366 418.056 291.402 348.613Z" stroke="url(#paint20_linear_322_1576)" stroke-width="3"/>
<path opacity="0.22" fill-rule="evenodd" clip-rule="evenodd" d="M287.599 352.269C235.369 244.033 93.5228 128.739 150.897 31.1357C206.548 -63.5346 391.102 1.25619 510.892 -27.5894C622.2 -54.3925 706.204 -144.852 824.806 -131.143C951.436 -116.505 1071.81 -44.9696 1151.1 46.4146C1228.84 136.013 1258.08 250.195 1247.48 355.995C1237.89 451.611 1156.92 518.83 1096.09 595.358C1037.53 669.02 1004 777.318 899.677 793.535C795.164 809.781 701.749 719.8 604.073 671.841C530.508 635.721 455.909 604.375 400.529 548.453C343.673 491.04 320.805 421.082 287.599 352.269Z" stroke="url(#paint21_linear_322_1576)" stroke-width="3"/>
<path opacity="0.23" fill-rule="evenodd" clip-rule="evenodd" d="M283.948 355.971C229.796 248.754 86.3567 135.84 141.447 37.588C194.882 -57.7121 379.779 4.16713 498.352 -26.4143C608.528 -54.8302 690.253 -146.355 808.508 -134.456C934.768 -121.751 1055.96 -52.1779 1136.69 37.8173C1215.84 126.054 1247.24 239.549 1238.84 345.279C1231.25 440.831 1152.07 509.119 1093.11 586.394C1036.36 660.776 1005.2 769.342 901.758 787.09C798.126 804.87 703.376 716.486 605.242 670.098C531.331 635.161 456.489 605.003 400.265 550.034C342.544 493.6 318.376 424.137 283.948 355.971Z" stroke="url(#paint22_linear_322_1576)" stroke-width="3"/>
<path opacity="0.24" fill-rule="evenodd" clip-rule="evenodd" d="M280.447 359.718C224.405 253.548 79.4316 143.035 132.236 44.1698C183.454 -51.7244 368.63 7.24359 485.955 -25.0512C594.972 -55.0593 674.407 -147.611 792.279 -137.513C918.13 -126.732 1040.09 -59.1306 1122.22 29.456C1202.75 116.312 1236.29 229.087 1230.08 334.712C1224.47 430.169 1147.09 499.497 1090.01 577.489C1035.07 652.56 1006.28 761.356 903.745 780.619C801.022 799.916 704.978 713.148 606.421 668.335C532.192 634.583 457.132 605.615 400.09 551.61C341.528 496.166 316.077 427.218 280.447 359.718Z" stroke="url(#paint23_linear_322_1576)" stroke-width="3"/>
<path opacity="0.25" fill-rule="evenodd" clip-rule="evenodd" d="M277.1 363.505C219.2 258.41 72.7506 150.316 123.268 50.8756C172.268 -45.5769 357.66 10.4812 473.708 -23.5043C581.539 -55.0832 658.674 -148.624 776.126 -140.318C901.529 -131.45 1024.22 -65.8288 1107.71 21.33C1189.57 106.786 1225.22 218.81 1221.19 324.296C1217.55 419.627 1141.99 489.965 1086.8 568.642C1033.67 644.373 1007.24 753.363 905.641 774.122C803.853 794.92 706.557 709.784 607.612 666.549C533.091 633.986 457.841 606.209 400.005 553.179C340.627 498.736 313.912 430.321 277.1 363.505Z" stroke="url(#paint24_linear_322_1576)" stroke-width="3"/>
<path opacity="0.26" fill-rule="evenodd" clip-rule="evenodd" d="M273.908 367.331C214.181 263.338 66.3158 157.682 114.547 57.7025C161.328 -39.2725 346.874 13.878 461.616 -21.7749C568.233 -54.9031 643.059 -149.396 760.057 -142.872C884.973 -135.906 1008.34 -72.2719 1093.16 13.4405C1176.32 97.4785 1214.06 208.72 1212.19 314.033C1210.5 409.208 1136.77 480.525 1083.47 559.857C1032.16 636.218 1008.09 745.364 907.445 767.603C806.62 789.882 708.113 706.396 608.815 664.742C534.029 633.371 458.615 606.785 400.01 554.74C339.842 501.309 311.88 433.447 273.908 367.331Z" stroke="url(#paint25_linear_322_1576)" stroke-width="3"/>
<path opacity="0.27" fill-rule="evenodd" clip-rule="evenodd" d="M270.868 371.192C209.349 268.327 60.1262 165.126 106.071 64.6451C150.635 -32.8168 336.272 17.4294 449.679 -19.8671C555.056 -54.5226 627.566 -149.929 744.073 -145.176C868.467 -140.102 992.472 -78.4615 1078.58 5.78677C1163 88.3892 1202.79 198.816 1203.07 303.923C1203.33 398.912 1131.43 471.178 1080.03 551.133C1030.54 628.095 1008.81 737.36 909.158 761.061C809.322 784.805 709.644 702.983 610.03 662.913C535.005 632.734 459.453 607.34 400.103 556.291C339.171 503.882 309.98 436.591 270.868 371.192Z" stroke="url(#paint26_linear_322_1576)" stroke-width="3"/>
<path opacity="0.28" fill-rule="evenodd" clip-rule="evenodd" d="M267.984 375.086C204.705 273.375 54.1837 172.646 97.8439 71.6993C140.192 -26.2137 325.858 21.1324 437.903 -17.7836C542.014 -53.944 612.201 -150.225 728.183 -147.233C852.015 -144.038 976.61 -84.3978 1063.97 -1.63101C1149.62 79.5189 1191.44 189.101 1193.85 293.969C1196.03 388.742 1125.99 461.925 1076.48 542.474C1028.82 620.007 1009.42 729.353 910.779 754.498C811.958 779.688 711.152 699.546 611.256 661.062C536.019 632.077 460.355 607.873 400.285 557.83C338.615 506.454 308.214 439.751 267.984 375.086Z" stroke="url(#paint27_linear_322_1576)" stroke-width="3"/>
<path opacity="0.29" fill-rule="evenodd" clip-rule="evenodd" d="M265.254 379.01C200.249 278.478 48.4892 180.236 89.867 78.8608C130.002 -19.4678 315.635 24.9836 426.291 -15.5275C529.111 -53.17 596.968 -150.289 712.39 -149.045C835.625 -147.717 960.764 -90.0817 1049.33 -8.813C1136.17 70.8681 1179.99 179.576 1184.52 284.171C1188.61 378.698 1120.43 452.769 1072.82 533.88C1026.99 611.954 1009.91 721.346 912.31 747.915C814.529 774.532 712.635 696.085 612.493 659.187C537.07 631.397 461.32 608.385 400.556 559.356C338.173 509.021 306.581 442.925 265.254 379.01Z" stroke="url(#paint28_linear_322_1576)" stroke-width="3"/>
<path opacity="0.3" fill-rule="evenodd" clip-rule="evenodd" d="M262.679 382.961C195.984 283.633 43.0439 187.892 82.1426 86.1254C120.066 -12.5835 305.606 28.9795 414.847 -13.1017C516.352 -52.2032 581.874 -150.121 696.702 -150.614C819.303 -151.139 944.94 -95.5139 1034.68 -15.7592C1122.67 62.4374 1168.46 170.241 1175.09 274.532C1181.08 368.784 1114.76 443.71 1069.05 525.353C1025.06 603.938 1010.29 713.339 913.752 741.314C817.035 769.339 714.096 692.6 613.742 657.289C538.16 630.695 462.349 608.872 400.916 560.867C337.846 511.583 305.083 446.111 262.679 382.961Z" stroke="url(#paint29_linear_322_1576)" stroke-width="3"/>
<path opacity="0.31" fill-rule="evenodd" clip-rule="evenodd" d="M260.261 386.937C191.909 288.836 37.8483 195.61 74.6718 93.488C110.389 -5.56569 295.774 33.1162 403.573 -10.5099C503.739 -51.0468 566.922 -149.726 681.123 -151.942C803.054 -154.307 929.144 -100.696 1020.02 -22.4703C1109.13 54.2269 1156.86 161.098 1165.56 265.051C1173.43 358.999 1109 434.751 1065.19 516.894C1023.02 595.961 1010.56 705.335 915.105 734.695C819.476 764.11 715.534 689.091 615.003 655.368C539.288 629.969 463.441 609.335 401.365 562.362C337.634 514.137 303.718 449.306 260.261 386.937Z" stroke="url(#paint30_linear_322_1576)" stroke-width="3"/>
<path opacity="0.32" fill-rule="evenodd" clip-rule="evenodd" d="M257.999 390.934C188.024 294.085 32.9027 203.386 67.4555 100.945C100.97 1.58131 286.141 37.3902 392.474 -7.75497C491.277 -49.7034 552.117 -149.106 665.657 -153.031C786.883 -157.223 913.381 -105.628 1005.36 -28.9465C1095.54 46.2367 1145.18 152.146 1155.95 255.731C1165.68 349.345 1103.13 425.891 1061.22 508.504C1020.89 588.023 1010.71 697.334 916.368 728.061C821.852 758.844 716.948 685.558 616.274 653.422C540.452 629.219 464.596 609.771 401.901 563.838C337.535 516.681 302.486 452.508 257.999 390.934Z" stroke="url(#paint31_linear_322_1576)" stroke-width="3"/>
<path opacity="0.33" fill-rule="evenodd" clip-rule="evenodd" d="M255.892 394.95C184.33 299.375 28.2071 211.215 60.4947 108.491C91.8122 8.85276 276.709 41.7979 381.551 -4.8404C478.969 -48.1762 537.464 -148.263 650.31 -153.885C770.796 -159.888 897.657 -110.312 990.691 -35.1886C1081.91 38.4669 1133.43 143.386 1146.24 246.571C1157.82 339.823 1097.16 417.133 1057.16 500.185C1018.66 580.127 1010.75 689.338 917.542 721.412C824.162 753.544 718.338 682.002 617.557 651.453C541.653 628.444 465.812 610.18 402.524 565.294C337.549 519.213 301.388 455.714 255.892 394.95Z" stroke="url(#paint32_linear_322_1576)" stroke-width="3"/>
<path opacity="0.34" fill-rule="evenodd" clip-rule="evenodd" d="M253.941 398.982C180.828 304.703 23.7623 219.092 53.7909 116.121C82.9172 16.2435 267.48 46.3351 370.808 -1.76991C466.819 -46.4686 522.966 -147.202 635.088 -154.507C754.798 -162.305 881.978 -114.749 976.032 -41.1974C1068.25 30.9174 1121.62 134.82 1136.46 237.573C1149.87 330.435 1091.1 408.477 1053 491.937C1016.33 572.272 1010.68 681.349 918.629 714.749C826.407 748.209 719.704 678.423 618.85 649.458C542.89 627.642 467.09 610.56 403.234 566.729C337.677 521.73 300.423 458.921 253.941 398.982Z" stroke="url(#paint33_linear_322_1576)" stroke-width="3"/>
<path opacity="0.35" fill-rule="evenodd" clip-rule="evenodd" d="M252.147 403.027C177.518 310.066 19.5695 227.014 47.3461 123.832C74.2881 23.7496 258.459 50.9987 360.249 1.45368C454.832 -44.5831 508.631 -145.925 619.995 -154.897C738.897 -164.475 866.35 -118.941 961.385 -46.9732C1054.56 23.5883 1109.76 126.447 1126.6 228.738C1141.81 321.182 1084.95 399.924 1048.75 483.763C1013.91 564.461 1010.51 673.369 919.63 708.073C828.587 742.841 721.049 674.82 620.154 647.438C544.165 626.814 468.43 610.91 404.032 568.141C337.918 524.231 299.593 462.129 252.147 403.027Z" stroke="url(#paint34_linear_322_1576)" stroke-width="3"/>
<path opacity="0.36" fill-rule="evenodd" clip-rule="evenodd" d="M250.508 407.082C174.401 315.46 15.6277 234.976 41.16 131.618C65.925 31.3661 249.645 55.7847 349.876 4.82674C443.01 -42.5229 494.46 -144.436 605.035 -155.059C723.095 -166.401 850.778 -122.888 946.756 -52.5169C1040.86 16.4795 1097.84 118.268 1116.66 220.066C1133.67 312.065 1078.72 391.477 1044.41 475.662C1011.4 556.695 1010.22 665.399 920.543 701.387C830.702 737.441 722.37 671.195 621.469 645.392C545.476 625.958 469.83 611.229 404.916 569.527C338.271 526.714 298.895 465.333 250.508 407.082Z" stroke="url(#paint35_linear_322_1576)" stroke-width="3"/>
<path opacity="0.37" fill-rule="evenodd" clip-rule="evenodd" d="M249.026 411.145C171.476 320.883 11.9373 242.974 35.2337 139.476C57.83 39.0878 241.042 60.6889 339.692 8.34534C431.357 -40.2918 480.458 -142.737 590.214 -154.997C707.399 -168.086 835.268 -126.593 932.148 -57.8297C1027.14 9.59033 1085.87 110.283 1106.65 211.558C1125.44 303.084 1072.39 383.135 1039.99 467.637C1008.79 548.975 1009.83 657.44 921.371 694.69C832.751 732.009 723.667 667.546 622.795 643.32C546.822 625.074 471.291 611.516 405.885 570.888C338.736 529.177 298.33 468.531 249.026 411.145Z" stroke="url(#paint36_linear_322_1576)" stroke-width="3"/>
<path opacity="0.38" fill-rule="evenodd" clip-rule="evenodd" d="M247.699 415.213C168.743 326.329 8.49799 251.002 29.5676 147.399C50.0042 46.91 232.651 65.7073 329.699 12.0059C419.875 -37.893 466.63 -140.833 575.537 -154.712C691.814 -169.531 819.824 -130.058 917.569 -62.9128C1013.4 2.92025 1073.86 102.491 1096.58 203.214C1117.12 294.241 1065.99 374.899 1035.47 459.688C1006.1 541.301 1009.33 649.493 922.113 687.984C834.736 726.546 724.941 663.875 624.13 641.222C548.203 624.16 472.811 611.769 406.939 572.22C339.312 531.616 297.897 471.722 247.699 415.213Z" stroke="url(#paint37_linear_322_1576)" stroke-width="3"/>
<path opacity="0.39" fill-rule="evenodd" clip-rule="evenodd" d="M246.528 419.282C166.203 331.797 5.31001 259.056 24.1629 155.385C42.4492 54.8282 224.475 70.8367 319.901 15.8053C408.57 -35.3293 452.98 -138.726 561.007 -154.209C676.346 -170.739 804.453 -133.283 903.023 -67.7668C999.667 -3.53059 1061.81 94.8947 1086.45 195.036C1108.72 285.537 1059.51 366.77 1030.88 451.815C1003.32 533.676 1008.73 641.561 922.771 681.27C836.655 721.053 726.193 660.181 625.475 639.096C549.62 623.216 474.39 611.987 408.078 573.522C339.998 534.031 297.596 474.902 246.528 419.282Z" stroke="url(#paint38_linear_322_1576)" stroke-width="3"/>
<path opacity="0.4" fill-rule="evenodd" clip-rule="evenodd" d="M245.512 423.35C163.855 337.282 2.37298 267.133 19.0196 163.427C35.1661 62.8371 216.514 76.0723 310.299 19.7392C397.442 -32.605 439.512 -136.421 546.63 -153.489C660.998 -171.713 789.16 -136.272 888.516 -72.3936C985.93 -9.76353 1049.72 87.492 1076.26 187.023C1100.24 276.972 1052.95 358.75 1026.2 444.021C1000.46 526.099 1008.02 633.644 923.345 674.55C838.51 715.53 727.421 656.465 626.831 636.944C551.071 622.241 476.027 612.17 409.3 574.793C340.795 536.42 297.427 478.07 245.512 423.35Z" stroke="url(#paint39_linear_322_1576)" stroke-width="3"/>
<path opacity="0.41" fill-rule="evenodd" clip-rule="evenodd" d="M244.651 427.415C161.7 342.781 -0.313258 275.228 14.1386 171.522C28.1561 70.932 208.771 81.4105 300.896 23.8042C386.497 -29.723 426.229 -133.921 532.409 -152.557C645.777 -172.455 773.95 -139.025 874.052 -76.794C972.199 -15.7788 1037.61 80.2835 1066.02 179.175C1091.7 268.548 1046.32 350.838 1021.45 436.305C997.515 518.572 1007.22 625.744 923.835 667.824C840.3 709.98 728.627 652.726 628.196 634.763C552.556 621.235 477.723 612.315 410.606 576.031C341.701 538.78 297.389 481.222 244.651 427.415Z" stroke="url(#paint40_linear_322_1576)" stroke-width="3"/>
<path opacity="0.42" fill-rule="evenodd" clip-rule="evenodd" d="M243.945 431.473C159.737 348.291 -2.74941 283.336 9.51963 179.665C21.42 79.1085 201.248 86.8477 291.694 27.997C375.736 -26.6865 413.136 -131.228 518.35 -151.415C630.687 -172.968 758.828 -141.545 859.638 -80.9693C958.479 -21.5769 1025.48 73.2692 1055.74 171.494C1083.08 260.264 1039.63 343.036 1016.63 428.67C994.489 511.096 1006.31 617.863 924.244 661.092C842.026 704.402 729.81 648.964 629.571 632.555C554.075 620.196 479.475 612.422 411.994 577.235C342.715 541.109 297.482 484.357 243.945 431.473Z" stroke="url(#paint41_linear_322_1576)" stroke-width="3"/>
<path opacity="0.43" fill-rule="evenodd" clip-rule="evenodd" d="M243.391 435.52C157.964 353.807 -4.93685 291.453 5.16212 187.85C14.9576 87.3605 193.944 92.3785 282.695 32.3124C365.162 -23.5004 400.234 -128.349 504.456 -150.067C615.732 -173.256 743.798 -143.835 845.277 -84.922C944.773 -27.1599 1013.32 66.4479 1045.4 163.978C1074.4 252.12 1032.86 335.344 1011.73 421.114C991.384 503.672 1005.31 610 924.57 654.357C843.686 698.796 730.969 645.18 630.954 630.317C555.627 619.123 481.283 612.489 413.464 578.401C343.837 543.405 297.704 487.471 243.391 435.52Z" stroke="url(#paint42_linear_322_1576)" stroke-width="3"/>
<path opacity="0.44" fill-rule="evenodd" clip-rule="evenodd" d="M242.992 439.556C156.383 359.327 -6.87488 299.574 1.06745 196.074C8.77112 95.6841 186.863 98.0002 273.902 36.7479C354.779 -20.1671 387.53 -125.285 490.731 -148.516C600.917 -173.32 728.867 -145.896 830.976 -88.6526C931.089 -32.5275 1001.16 59.8203 1035.04 156.629C1065.65 244.119 1026.04 327.762 1006.76 413.639C988.202 496.3 1004.2 602.158 924.815 647.619C845.282 693.165 732.106 641.374 632.346 628.051C557.211 618.016 483.147 612.515 415.014 579.531C345.065 545.667 298.055 490.564 242.992 439.556Z" stroke="url(#paint43_linear_322_1576)" stroke-width="3"/>
<path opacity="0.45" fill-rule="evenodd" clip-rule="evenodd" d="M242.745 443.577C154.994 364.848 -8.56442 307.695 -2.76464 204.332C2.86087 104.074 180.005 103.708 265.317 41.299C344.588 -16.6908 375.025 -122.041 477.179 -146.766C586.248 -173.164 714.04 -147.731 816.739 -92.1633C917.431 -37.6813 988.979 53.3854 1024.63 149.446C1056.85 236.26 1019.15 320.292 1001.72 406.246C984.946 488.982 1003 594.337 924.98 640.88C846.815 687.508 733.22 637.546 633.747 625.754C558.828 616.873 485.066 612.5 416.645 580.62C346.4 547.891 298.535 493.631 242.745 443.577Z" stroke="url(#paint44_linear_322_1576)" stroke-width="3"/>
<path opacity="0.46" fill-rule="evenodd" clip-rule="evenodd" d="M242.65 447.58C153.794 370.365 -10.0071 315.813 -6.33507 212.619C-2.77339 112.525 173.372 109.498 256.941 45.9621C334.593 -13.0749 362.724 -118.621 463.805 -144.82C571.728 -172.791 699.32 -149.342 802.57 -95.4556C903.804 -42.6222 976.797 47.143 1014.2 142.429C1048 228.543 1012.21 312.933 996.622 398.935C981.617 481.717 1001.71 586.54 925.066 634.139C848.283 681.826 734.312 633.696 635.156 623.428C560.477 615.695 487.039 612.441 418.354 581.669C347.839 550.077 299.142 496.671 242.65 447.58Z" stroke="url(#paint45_linear_322_1576)" stroke-width="3"/>
<path opacity="0.47" fill-rule="evenodd" clip-rule="evenodd" d="M242.707 451.562C152.784 375.875 -11.2033 323.921 -9.64366 220.93C-8.1309 121.033 166.964 115.366 248.776 50.7328C324.795 -9.32365 350.629 -115.029 450.612 -142.681C557.362 -172.205 684.713 -150.731 788.476 -98.5316C890.212 -47.3516 964.615 41.0922 1003.74 135.578C1039.09 220.968 1005.22 305.685 991.46 391.707C978.216 474.508 1000.32 578.767 925.072 627.399C849.688 676.121 735.381 629.824 636.574 621.072C562.157 614.48 489.065 612.338 420.142 582.675C349.383 552.222 299.877 499.681 242.707 451.562Z" stroke="url(#paint46_linear_322_1576)" stroke-width="3"/>
<path opacity="0.48" fill-rule="evenodd" clip-rule="evenodd" d="M242.913 455.52C151.963 381.375 -12.1547 332.016 -12.6914 229.26C-13.2119 129.592 160.783 121.308 240.824 55.6073C315.198 -5.44072 338.744 -111.269 437.603 -140.354C543.153 -171.408 670.223 -151.902 774.46 -101.393C876.66 -51.871 952.437 35.2323 993.254 128.893C1030.14 213.537 998.175 298.55 986.237 384.563C974.747 467.355 998.838 571.019 925.001 620.66C851.028 670.392 736.426 625.929 637.998 618.684C563.866 613.228 491.143 612.189 422.007 583.637C351.028 554.324 300.736 502.659 242.913 455.52Z" stroke="url(#paint47_linear_322_1576)" stroke-width="3"/>
<path opacity="0.49" fill-rule="evenodd" clip-rule="evenodd" d="M243.268 459.452C151.329 386.861 -12.862 340.094 -15.4782 237.606C-18.0159 138.198 154.828 127.319 233.086 60.582C305.803 -1.42956 327.071 -107.344 424.782 -137.841C529.107 -170.403 655.855 -152.857 760.527 -104.042C863.154 -56.1812 940.268 29.5629 982.753 122.373C1021.15 206.249 991.085 291.527 980.958 377.502C971.21 460.257 997.267 563.297 924.852 613.923C852.305 664.641 737.449 622.013 639.43 616.266C565.606 611.937 493.273 611.994 423.948 584.554C352.776 556.381 301.721 505.603 243.268 459.452Z" stroke="url(#paint48_linear_322_1576)" stroke-width="3"/>
<path opacity="0.5" fill-rule="evenodd" clip-rule="evenodd" d="M243.772 463.355C150.882 392.331 -13.3271 348.15 -18.0056 245.962C-22.5435 146.845 149.102 133.396 225.564 65.652C296.612 2.70514 315.613 -103.259 412.153 -135.148C515.228 -169.195 641.613 -153.599 746.681 -106.481C849.697 -60.2847 928.113 24.0823 972.238 116.018C1012.12 199.103 983.951 284.617 975.624 370.525C967.608 453.216 995.605 555.603 924.627 607.188C853.518 658.867 738.449 618.074 640.868 613.815C567.375 610.607 495.452 611.751 425.964 585.422C354.624 558.391 302.829 508.509 243.772 463.355Z" stroke="url(#paint49_linear_322_1576)" stroke-width="3"/>
<path opacity="0.51" fill-rule="evenodd" clip-rule="evenodd" d="M244.423 467.226C150.622 397.779 -13.5502 356.18 -20.273 254.324C-26.7938 155.528 143.604 139.534 218.259 70.8139C287.628 6.9602 304.374 -99.0189 399.719 -132.277C501.519 -167.787 627.502 -154.129 732.929 -108.712C836.296 -64.182 915.976 18.7905 961.713 109.827C1003.05 192.101 976.777 277.819 970.238 363.633C963.943 446.233 993.857 547.937 924.326 600.457C854.669 653.073 739.426 614.114 642.314 611.332C569.173 609.237 497.681 611.46 428.054 586.242C356.572 560.353 304.06 511.377 244.423 467.226Z" stroke="url(#paint50_linear_322_1576)" stroke-width="3"/>
<path opacity="0.52" fill-rule="evenodd" clip-rule="evenodd" d="M245.221 471.062C150.546 403.204 -13.5336 364.18 -22.2822 262.687C-30.7679 164.243 138.335 145.728 211.173 76.0632C278.853 11.331 293.355 -94.6272 387.484 -129.233C487.984 -166.181 613.526 -154.453 719.273 -110.737C822.954 -67.8755 903.861 13.6859 951.183 103.801C993.949 185.242 969.565 271.134 964.802 356.826C960.217 439.308 992.021 540.3 923.951 593.73C855.757 647.258 740.381 610.132 643.765 608.817C570.998 607.827 499.959 611.118 430.218 587.012C358.618 562.264 305.412 514.203 245.221 471.062Z" stroke="url(#paint51_linear_322_1576)" stroke-width="3"/>
<path opacity="0.53" fill-rule="evenodd" clip-rule="evenodd" d="M246.164 474.861C150.655 408.602 -13.2783 372.145 -24.0334 271.046C-34.4653 172.985 133.297 151.976 204.306 81.3964C270.288 15.8144 282.561 -90.0876 375.45 -126.019C474.628 -164.382 599.691 -154.572 705.719 -112.558C809.676 -71.3662 891.774 8.76789 940.651 97.9386C984.824 178.526 962.319 264.563 959.319 350.104C956.432 432.441 990.101 532.694 923.503 587.009C856.782 641.424 741.313 606.128 645.223 606.269C572.851 606.375 502.285 610.726 432.453 587.731C360.761 564.123 306.886 516.986 246.164 474.861Z" stroke="url(#paint52_linear_322_1576)" stroke-width="3"/>
<path opacity="0.54" fill-rule="evenodd" clip-rule="evenodd" d="M247.262 478.619C150.958 413.969 -12.7746 380.071 -25.5166 279.397C-37.8757 181.748 128.499 158.272 197.672 86.8082C261.947 20.4049 272.004 -85.406 363.633 -122.64C461.465 -162.394 586.01 -154.489 692.282 -114.179C796.478 -74.657 879.729 4.03441 930.133 92.2383C975.686 171.952 955.053 258.103 953.804 343.466C952.602 425.633 988.109 525.119 922.992 580.294C857.757 635.57 742.235 602.101 646.697 603.686C574.743 604.88 504.669 610.28 434.771 588.395C363.011 565.926 308.49 519.722 247.262 478.619Z" stroke="url(#paint53_linear_322_1576)" stroke-width="3"/>
<path opacity="0.55" fill-rule="evenodd" clip-rule="evenodd" d="M248.491 482.335C151.431 419.302 -12.0478 387.954 -26.7563 287.735C-41.0229 190.527 123.92 164.612 191.248 92.2953C253.808 25.0997 261.663 -80.5854 352.011 -119.099C448.475 -160.22 572.465 -154.208 678.943 -115.601C783.341 -77.7489 867.708 -0.515018 919.609 86.7002C966.515 165.52 947.746 251.756 948.234 336.915C948.704 418.885 986.022 517.576 922.398 573.585C858.658 629.697 743.121 598.053 648.165 601.07C576.648 603.343 507.086 609.782 437.147 589.005C365.344 567.673 310.2 522.41 248.491 482.335Z" stroke="url(#paint54_linear_322_1576)" stroke-width="3"/>
<path opacity="0.56" fill-rule="evenodd" clip-rule="evenodd" d="M249.861 486.006C152.083 424.598 -11.0886 395.79 -27.7427 296.056C-43.8965 199.319 119.571 170.992 185.045 97.8537C245.883 29.8946 251.552 -75.6303 340.599 -115.401C435.674 -157.864 559.071 -153.732 665.717 -116.827C770.28 -80.6439 855.726 -4.88178 909.095 81.3235C957.327 159.231 940.414 245.522 942.624 330.449C944.752 412.196 983.855 510.067 921.732 566.885C859.496 623.807 743.984 593.983 649.636 598.42C578.578 601.761 509.547 609.23 439.59 589.558C367.769 569.363 312.025 525.048 249.861 486.006Z" stroke="url(#paint55_linear_322_1576)" stroke-width="3"/>
<path opacity="0.57" fill-rule="evenodd" clip-rule="evenodd" d="M251.371 489.629C152.914 429.853 -9.89722 403.575 -28.4756 304.355C-46.4958 208.117 115.453 177.408 179.067 103.479C238.176 34.7851 241.674 -70.5454 329.401 -111.55C423.066 -155.329 545.833 -153.063 652.61 -117.86C757.302 -83.3443 843.788 -9.06737 898.595 76.1072C948.127 153.083 933.06 239.4 936.978 324.069C940.749 405.567 981.609 502.591 920.996 560.192C860.273 617.899 744.825 589.891 651.112 595.734C580.533 600.136 512.053 608.622 442.102 590.054C370.286 570.992 313.967 527.632 251.371 489.629Z" stroke="url(#paint56_linear_322_1576)" stroke-width="3"/>
<path opacity="0.58" fill-rule="evenodd" clip-rule="evenodd" d="M253.019 493.2C153.922 435.064 -8.47732 411.304 -28.958 312.628C-48.8232 216.917 111.564 183.854 173.311 109.166C230.686 39.767 232.03 -65.3355 318.418 -107.549C410.652 -152.621 532.753 -152.206 639.625 -118.702C744.408 -85.8521 831.898 -13.0734 888.113 71.0503C938.917 147.076 925.685 233.389 931.296 317.774C936.696 398.999 979.284 495.15 920.19 553.509C860.988 611.975 745.642 585.777 652.592 593.014C582.51 598.464 514.599 607.957 444.678 590.491C372.893 572.559 316.022 530.162 253.019 493.2Z" stroke="url(#paint57_linear_322_1576)" stroke-width="3"/>
<path opacity="0.59" fill-rule="evenodd" clip-rule="evenodd" d="M254.804 496.719C155.105 440.228 -6.83097 418.973 -29.1914 320.869C-50.8799 225.714 107.904 190.328 167.78 114.912C223.415 44.8362 222.622 -60.0049 307.652 -103.404C398.437 -149.742 519.836 -151.164 626.765 -119.356C731.604 -88.1699 820.059 -16.9015 877.651 66.1516C929.699 141.21 918.293 227.491 925.581 311.565C932.595 392.491 976.883 487.744 919.315 546.835C861.642 606.035 746.436 581.641 654.074 590.257C584.51 596.747 517.187 607.235 447.318 590.867C375.588 574.062 318.189 532.634 254.804 496.719Z" stroke="url(#paint58_linear_322_1576)" stroke-width="3"/>
<path opacity="0.6" fill-rule="evenodd" clip-rule="evenodd" d="M256.724 500.181C156.463 445.342 -4.95882 426.579 -29.176 329.076C-52.6655 234.502 104.476 196.825 162.474 120.712C216.365 49.9886 213.453 -54.558 297.108 -99.119C386.424 -146.696 507.086 -149.94 614.035 -119.825C718.894 -90.2994 808.277 -20.5531 867.215 61.4103C920.48 135.484 910.889 221.704 919.836 305.442C928.449 386.044 974.408 480.374 918.373 540.172C862.236 600.079 747.208 577.483 655.559 587.465C586.533 594.983 519.815 606.455 450.022 591.181C378.37 575.501 320.467 535.046 256.724 500.181Z" stroke="url(#paint59_linear_322_1576)" stroke-width="3"/>
<path opacity="0.61" fill-rule="evenodd" clip-rule="evenodd" d="M258.777 503.585C157.993 450.402 -2.86442 434.117 -28.9148 337.242C-54.1825 243.278 101.276 203.341 157.393 126.562C209.536 55.2199 204.523 -48.9995 286.786 -94.6974C374.616 -143.489 494.506 -148.537 601.439 -120.113C706.282 -92.2433 796.555 -24.0299 856.808 56.8251C911.262 129.897 903.473 216.027 914.064 299.404C924.259 379.658 971.86 473.041 917.364 533.519C862.769 594.108 747.957 573.303 657.046 584.636C588.576 593.171 522.481 605.615 452.788 591.432C381.237 576.871 322.853 537.397 258.777 503.585Z" stroke="url(#paint60_linear_322_1576)" stroke-width="3"/>
<path opacity="0.62" fill-rule="evenodd" clip-rule="evenodd" d="M260.962 506.928C159.692 455.405 -0.550834 441.583 -28.4105 345.364C-55.433 252.036 98.3035 209.871 152.536 132.457C202.928 60.5259 195.834 -43.3338 276.687 -90.1439C363.014 -140.123 482.098 -146.96 588.978 -120.221C693.771 -94.0038 784.895 -27.3337 846.432 52.3949C902.046 124.449 896.047 210.461 908.265 293.451C920.026 373.333 969.239 465.746 916.288 526.879C863.24 588.123 748.681 569.101 658.534 581.769C590.639 591.311 525.184 604.715 455.612 591.619C384.187 578.173 325.346 539.685 260.962 506.928Z" stroke="url(#paint61_linear_322_1576)" stroke-width="3"/>
<path opacity="0.63" fill-rule="evenodd" clip-rule="evenodd" d="M263.277 510.207C161.56 460.348 1.98136 448.973 -27.663 353.437C-56.4166 260.772 95.5603 216.41 147.905 138.394C196.544 65.9023 187.388 -37.5659 266.817 -85.4632C351.622 -136.603 469.866 -145.212 576.659 -120.153C681.365 -95.5834 773.303 -30.4663 836.093 48.1184C892.838 119.138 888.617 205.005 902.444 287.583C915.753 367.069 966.548 458.489 915.147 520.25C863.653 582.124 749.383 564.876 660.023 578.866C592.721 589.402 527.923 603.753 458.496 591.739C387.219 579.404 327.946 541.906 263.277 510.207Z" stroke="url(#paint62_linear_322_1576)" stroke-width="3"/>
<path opacity="0.64" fill-rule="evenodd" clip-rule="evenodd" d="M265.72 513.42C163.594 465.228 4.72811 456.284 -26.676 361.457C-57.1365 269.48 93.0439 222.956 143.499 144.368C190.382 71.3448 179.185 -31.7002 257.175 -80.6597C340.443 -132.933 457.814 -143.297 564.484 -119.912C669.069 -96.985 761.782 -33.4298 825.792 43.9939C883.641 113.965 881.184 199.658 896.602 281.8C911.442 360.867 963.788 451.271 913.942 513.634C864.005 576.112 750.061 560.63 661.512 575.924C594.822 587.443 530.697 602.729 461.437 591.792C390.332 580.563 330.649 544.059 265.72 513.42Z" stroke="url(#paint63_linear_322_1576)" stroke-width="3"/>
<path opacity="0.65" fill-rule="evenodd" clip-rule="evenodd" d="M268.29 516.565C165.793 470.042 7.68752 463.511 -25.451 369.42C-57.5937 278.157 90.7543 229.503 139.319 150.375C184.445 76.8495 171.227 -25.7411 247.763 -75.7373C329.48 -129.118 445.945 -141.217 552.455 -119.502C656.885 -98.2103 750.336 -36.2256 815.535 40.0207C874.458 108.928 873.751 194.42 890.741 276.103C907.095 354.726 960.962 444.092 912.674 507.032C864.298 570.087 750.715 556.361 663.002 572.944C596.94 585.434 533.505 601.642 464.434 591.776C393.522 581.648 333.454 546.143 268.29 516.565Z" stroke="url(#paint64_linear_322_1576)" stroke-width="3"/>
<path opacity="0.66" fill-rule="evenodd" clip-rule="evenodd" d="M270.983 519.639C168.153 474.787 10.8559 470.651 -23.9911 377.321C-57.791 286.796 88.6895 236.048 135.363 156.41C178.732 82.4113 163.515 -19.6941 238.583 -70.7015C318.732 -125.161 434.26 -138.978 540.577 -118.925C644.817 -99.2633 738.967 -38.8567 805.323 36.1965C865.291 104.025 866.319 189.289 884.862 270.488C902.711 348.647 958.068 436.953 911.342 500.443C864.531 564.049 751.346 552.07 664.49 569.926C599.074 583.374 536.344 600.49 467.484 591.691C396.789 582.656 336.359 548.154 270.983 519.639Z" stroke="url(#paint65_linear_322_1576)" stroke-width="3"/>
<path opacity="0.67" fill-rule="evenodd" clip-rule="evenodd" d="M273.799 522.639C170.675 479.459 14.232 477.701 -22.2971 385.157C-57.7287 295.393 86.8502 242.585 131.632 162.47C173.244 88.0269 156.05 -13.5629 229.637 -65.5557C308.205 -121.068 422.764 -136.583 528.853 -118.184C632.869 -100.145 727.681 -41.3241 795.161 32.5205C856.145 99.2569 858.894 184.266 878.971 264.958C898.296 342.629 955.111 429.855 909.949 493.869C864.705 558 751.953 547.756 665.977 566.868C601.223 581.262 539.214 599.274 470.587 591.534C400.131 583.588 339.363 550.091 273.799 522.639Z" stroke="url(#paint66_linear_322_1576)" stroke-width="3"/>
<path opacity="0.68" fill-rule="evenodd" clip-rule="evenodd" d="M276.735 525.563C173.354 484.056 17.8113 484.655 -20.3734 392.922C-57.4107 303.945 85.2334 249.112 128.125 168.549C167.98 93.6913 148.831 -7.35295 220.925 -60.3053C297.899 -116.842 411.458 -134.036 517.285 -117.284C621.044 -100.86 716.479 -43.6307 785.05 28.9907C847.021 94.6216 851.475 179.349 873.066 259.512C893.849 336.672 952.09 422.797 908.495 487.31C864.821 551.94 752.536 543.42 667.461 563.771C603.387 579.098 542.114 597.991 473.74 591.305C403.545 584.441 342.462 551.952 276.735 525.563Z" stroke="url(#paint67_linear_322_1576)" stroke-width="3"/>
<path opacity="0.69" fill-rule="evenodd" clip-rule="evenodd" d="M279.79 528.41C176.188 488.575 21.5923 491.511 -18.2208 400.612C-56.8375 312.445 83.8397 255.624 124.842 174.645C162.942 99.4005 141.862 -1.06872 212.451 -54.9546C287.818 -112.488 400.347 -131.34 505.877 -116.228C609.345 -101.41 705.367 -45.7785 774.997 25.6055C837.925 90.118 844.068 174.538 867.152 254.148C889.373 330.777 949.008 415.781 906.982 480.766C864.878 545.869 753.095 539.062 668.943 560.634C605.564 576.88 545.042 596.641 476.943 591.002C407.03 585.213 345.656 553.735 279.79 528.41Z" stroke="url(#paint68_linear_322_1576)" stroke-width="3"/>
<path opacity="0.7" fill-rule="evenodd" clip-rule="evenodd" d="M282.96 531.176C179.176 493.013 25.5707 498.265 -15.8432 408.225C-56.0128 320.891 82.6663 262.116 121.782 180.753C158.128 105.15 135.141 5.28542 204.213 -49.5077C277.961 -108.01 389.43 -128.5 494.631 -115.017C597.776 -101.798 694.346 -47.7693 765.002 22.3636C828.857 85.7456 836.672 169.832 861.23 248.867C884.869 324.942 945.866 408.807 905.409 474.238C864.877 539.788 753.63 534.681 670.422 557.457C607.753 574.61 547.996 595.224 480.194 590.625C410.584 585.904 348.943 555.439 282.96 531.176Z" stroke="url(#paint69_linear_322_1576)" stroke-width="3"/>
<path opacity="0.71" fill-rule="evenodd" clip-rule="evenodd" d="M286.244 533.86C182.315 497.367 29.7441 504.913 -13.2429 415.755C-54.9382 329.276 81.7125 268.585 118.944 186.868C153.54 110.936 128.669 11.7041 196.215 -43.97C268.332 -103.412 378.712 -125.52 483.55 -113.658C586.34 -102.028 683.42 -49.6059 755.069 19.2629C819.821 81.5024 829.293 165.229 855.303 243.668C880.338 319.169 942.666 401.876 903.778 467.727C864.819 533.698 754.14 530.278 671.896 554.239C609.954 572.285 550.975 593.739 483.489 590.172C414.205 586.511 352.319 557.061 286.244 533.86Z" stroke="url(#paint70_linear_322_1576)" stroke-width="3"/>
<path opacity="0.72" fill-rule="evenodd" clip-rule="evenodd" d="M289.639 536.458C185.601 501.634 34.1087 511.452 -10.4231 423.198C-53.6167 337.596 80.9763 275.027 116.328 192.985C149.176 116.754 122.447 18.1827 188.455 -38.3459C258.931 -98.7007 368.195 -122.404 472.637 -112.152C575.038 -102.101 672.591 -51.2909 745.201 16.3014C810.821 77.3872 821.93 160.729 849.371 238.55C875.784 313.456 939.408 394.987 902.089 461.231C864.702 527.598 754.625 525.852 673.365 550.98C612.164 569.905 553.977 592.183 486.829 589.642C417.891 587.033 355.784 558.599 289.639 536.458Z" stroke="url(#paint71_linear_322_1576)" stroke-width="3"/>
<path opacity="0.73" fill-rule="evenodd" clip-rule="evenodd" d="M293.144 538.969C189.034 505.811 38.662 517.878 -7.38594 430.55C-52.0502 345.847 80.4569 281.436 113.932 199.102C145.036 122.599 116.474 24.7165 180.936 -32.64C249.761 -93.8788 357.88 -119.156 461.894 -110.504C563.876 -102.022 661.864 -52.8265 735.401 13.4773C801.859 73.3987 814.588 156.331 843.437 233.513C871.206 307.804 936.094 388.14 900.344 454.753C864.529 521.488 755.086 521.403 674.83 547.679C614.384 567.47 557.002 590.558 490.211 589.034C421.64 587.469 359.334 560.051 293.144 538.969Z" stroke="url(#paint72_linear_322_1576)" stroke-width="3"/>
<path opacity="0.74" fill-rule="evenodd" clip-rule="evenodd" d="M296.756 541.392C192.609 509.895 43.3996 524.188 -4.13551 437.809C-50.2423 354.025 80.1516 287.81 111.755 205.214C141.12 128.467 110.75 31.3009 173.657 -26.8568C240.822 -88.951 347.769 -115.78 451.323 -108.717C552.855 -101.793 651.241 -54.2149 725.671 10.7891C792.937 69.5358 807.267 152.034 837.504 228.556C866.608 302.212 932.726 381.337 898.543 448.293C864.298 515.371 755.522 516.931 676.287 544.337C616.611 564.979 560.047 588.862 493.633 588.347C425.448 587.817 362.968 561.416 296.756 541.392Z" stroke="url(#paint73_linear_322_1576)" stroke-width="3"/>
<path opacity="0.75" fill-rule="evenodd" clip-rule="evenodd" d="M300.472 543.722C196.326 513.885 48.3195 530.379 -0.673594 444.969C-48.1945 362.125 80.0599 294.145 109.797 211.317C137.429 134.354 105.277 37.9313 166.621 -21.0008C232.117 -83.9219 337.866 -112.279 440.929 -106.795C541.978 -101.418 640.725 -55.4588 716.016 8.23457C784.059 65.7969 799.972 147.837 831.573 223.678C861.99 296.68 929.306 374.578 896.688 441.85C864.011 509.245 755.933 512.436 677.738 540.953C618.846 562.431 563.112 587.094 497.094 587.579C429.317 588.077 366.685 562.692 300.472 543.722Z" stroke="url(#paint74_linear_322_1576)" stroke-width="3"/>
<path opacity="0.76" fill-rule="evenodd" clip-rule="evenodd" d="M304.29 545.96C200.18 517.776 53.4173 536.447 2.99581 452.026C-45.9106 370.142 80.179 300.436 108.056 217.407C133.959 140.257 100.053 44.6025 159.826 -15.0772C223.646 -78.7965 328.17 -108.66 430.711 -104.741C531.248 -100.899 630.319 -56.5609 706.437 5.81174C775.227 62.1804 792.704 143.738 825.646 218.879C857.355 291.207 925.834 367.863 894.779 435.426C863.667 503.113 756.318 507.919 679.182 537.527C621.086 559.826 566.194 585.255 500.592 586.73C433.241 588.245 370.48 563.878 304.29 545.96Z" stroke="url(#paint75_linear_322_1576)" stroke-width="3"/>
<path opacity="0.77" fill-rule="evenodd" clip-rule="evenodd" d="M308.208 548.102C204.169 521.567 58.6896 542.388 6.86956 458.978C-43.3933 378.073 80.5072 306.679 106.531 223.478C130.712 146.169 95.078 51.3097 153.275 -9.09067C215.41 -73.5795 318.685 -104.925 420.673 -102.56C520.668 -100.241 620.026 -57.5242 696.937 3.51808C766.445 58.6845 785.465 139.736 819.726 214.158C852.703 285.794 922.313 361.191 892.817 429.019C863.268 496.972 756.678 503.378 680.617 534.058C623.331 557.164 569.293 583.342 504.125 585.799C437.22 588.322 374.353 564.971 308.208 548.102Z" stroke="url(#paint76_linear_322_1576)" stroke-width="3"/>
<path opacity="0.78" fill-rule="evenodd" clip-rule="evenodd" d="M312.222 550.146C208.29 525.255 64.1323 548.201 10.944 465.819C-40.6462 385.914 81.0419 312.871 105.22 229.528C127.686 152.087 90.3514 58.0487 146.965 -3.0454C207.41 -68.2748 309.411 -101.079 410.816 -100.254C510.239 -99.4451 609.847 -58.3506 687.518 1.35225C757.713 55.3082 778.257 135.83 813.813 209.514C848.037 280.439 918.742 354.564 890.803 422.632C862.812 490.825 757.012 498.814 682.042 530.545C625.579 554.443 572.405 581.355 507.69 584.785C441.25 588.306 378.299 565.97 312.222 550.146Z" stroke="url(#paint77_linear_322_1576)" stroke-width="3"/>
<path opacity="0.79" fill-rule="evenodd" clip-rule="evenodd" d="M316.331 552.091C212.54 528.837 69.7419 553.881 15.2156 472.548C-37.6722 393.659 81.7812 319.007 104.122 235.553C124.88 158.008 85.8728 64.8143 140.898 3.05359C199.647 -62.8876 300.35 -97.1262 401.142 -97.8281C499.964 -98.5163 599.786 -59.0433 678.184 -0.688239C749.035 52.0496 771.082 132.02 807.909 204.947C843.357 275.143 915.124 347.981 888.737 416.264C862.301 484.672 757.319 494.228 683.458 526.99C627.829 551.664 575.53 579.294 511.286 583.687C445.331 588.196 382.318 566.874 316.331 552.091Z" stroke="url(#paint78_linear_322_1576)" stroke-width="3"/>
<path opacity="0.8" fill-rule="evenodd" clip-rule="evenodd" d="M320.531 553.934C216.916 532.312 75.5152 559.426 19.6817 479.16C-34.4742 401.305 82.7233 325.084 103.235 241.548C122.293 163.926 81.6421 71.602 135.073 9.2017C192.121 -57.4224 291.504 -93.0708 391.653 -95.2858C489.846 -97.4576 589.845 -59.605 668.936 -2.60577C740.414 48.9067 763.943 128.303 802.017 200.455C838.665 269.905 911.46 341.442 886.62 409.915C861.734 478.512 757.6 489.617 684.862 523.39C630.08 548.826 578.666 577.158 514.912 582.503C449.458 587.99 386.407 567.681 320.531 553.934Z" stroke="url(#paint79_linear_322_1576)" stroke-width="3"/>
<path opacity="0.81" fill-rule="evenodd" clip-rule="evenodd" d="M324.821 555.674C221.416 535.675 81.4483 564.832 24.3385 485.651C-31.0553 408.848 83.8659 331.099 102.557 247.509C119.925 169.838 77.6585 78.4072 129.492 15.3944C184.834 -51.8836 282.873 -88.917 382.352 -92.6307C479.887 -96.2718 580.027 -60.0381 659.778 -4.40201C731.852 45.8786 756.841 124.678 796.139 196.037C833.964 264.724 907.753 334.949 884.454 403.586C861.113 472.348 757.855 484.984 686.256 519.747C632.331 545.929 581.813 574.947 518.565 581.234C453.632 587.688 390.563 568.388 324.821 555.674Z" stroke="url(#paint80_linear_322_1576)" stroke-width="3"/>
<path opacity="0.82" fill-rule="evenodd" clip-rule="evenodd" d="M329.198 557.309C226.036 538.926 87.537 570.097 29.1821 492.017C-27.4194 416.284 85.2063 337.046 102.088 253.432C117.774 175.739 73.9207 85.2248 124.153 21.6266C177.785 -46.2764 274.46 -84.6696 373.239 -89.8672C470.088 -94.9633 570.333 -60.3462 650.71 -6.07997C723.35 42.9627 749.779 121.144 790.275 191.693C829.254 259.6 904.002 328.5 882.239 397.276C860.437 466.177 758.083 480.327 687.637 516.059C634.581 542.971 584.967 572.66 522.243 579.878C457.848 587.289 394.784 568.996 329.198 557.309Z" stroke="url(#paint81_linear_322_1576)" stroke-width="3"/>
<path opacity="0.83" fill-rule="evenodd" clip-rule="evenodd" d="M333.657 558.836C230.773 542.061 93.7767 575.218 34.208 498.257C-23.5708 423.608 86.7412 342.923 101.823 259.314C115.837 181.625 70.4272 92.0502 119.055 27.8937C170.975 -40.6054 266.263 -80.3329 364.315 -86.9992C460.451 -93.5352 560.766 -60.5321 641.736 -7.64184C714.912 40.1572 742.758 117.7 784.427 187.422C824.536 254.533 900.208 322.096 879.976 390.986C859.706 460.002 758.282 475.646 689.004 512.327C636.827 539.953 588.127 570.295 525.944 578.434C462.105 586.79 399.067 569.502 333.657 558.836Z" stroke="url(#paint82_linear_322_1576)" stroke-width="3"/>
<path opacity="0.84" fill-rule="evenodd" clip-rule="evenodd" d="M338.198 560.256C235.625 545.079 100.166 580.191 39.4149 504.365C-19.5105 430.818 88.4705 348.725 101.764 265.15C114.116 187.493 67.1791 98.8791 114.201 34.1915C164.405 -34.8747 258.287 -75.9107 355.584 -84.03C450.98 -91.9906 551.33 -60.598 632.86 -9.08942C706.541 37.461 735.781 114.343 778.599 183.222C819.814 249.522 896.376 315.737 877.666 384.716C858.922 453.822 758.456 470.942 690.359 508.55C639.07 536.874 591.292 567.854 529.668 576.902C466.401 586.191 403.412 569.905 338.198 560.256Z" stroke="url(#paint83_linear_322_1576)" stroke-width="3"/>
<path opacity="0.85" fill-rule="evenodd" clip-rule="evenodd" d="M342.816 561.565C240.586 547.977 106.697 585.015 44.7956 510.34C-15.2457 437.908 90.3881 354.45 101.905 270.937C112.606 193.337 64.1719 105.707 109.585 40.515C158.073 -29.0893 250.528 -71.4078 347.044 -80.9639C441.674 -90.3334 542.023 -60.5473 624.079 -10.4254C698.236 34.8717 728.848 111.074 772.789 179.093C815.085 244.566 892.503 309.423 875.309 378.467C858.083 447.638 758.601 466.215 691.696 504.728C641.307 533.735 594.459 565.335 533.409 575.281C470.731 585.492 407.811 570.203 342.816 561.565Z" stroke="url(#paint84_linear_322_1576)" stroke-width="3"/>
<path opacity="0.86" fill-rule="evenodd" clip-rule="evenodd" d="M347.51 562.761C245.655 550.753 113.368 589.687 50.3486 516.177C-10.7774 444.876 92.494 360.093 102.246 276.67C111.308 199.155 61.4071 112.528 105.211 46.8595C151.98 -23.2542 242.99 -66.8287 338.699 -77.8053C432.537 -88.5673 532.851 -60.3833 615.399 -11.6526C690.002 32.3872 721.962 107.889 767.001 175.034C810.354 239.664 888.592 303.153 872.906 372.239C857.191 441.45 758.718 461.463 693.019 500.861C643.538 530.533 597.629 562.738 537.168 573.57C475.096 584.691 412.267 570.396 347.51 562.761Z" stroke="url(#paint85_linear_322_1576)" stroke-width="3"/>
<path opacity="0.87" fill-rule="evenodd" clip-rule="evenodd" d="M352.276 563.844C250.828 553.405 120.175 594.203 56.0687 521.873C-6.11101 451.717 94.7838 365.652 102.784 282.347C110.218 204.941 58.8815 119.339 101.076 53.2203C146.127 -17.3737 235.673 -62.1777 330.547 -74.5577C423.569 -86.6958 523.813 -60.1086 606.821 -12.7731C681.839 30.006 715.124 104.788 761.236 171.043C805.62 234.816 884.645 296.928 870.458 366.03C856.245 435.259 758.806 456.688 694.325 496.948C645.761 527.27 600.797 560.063 540.941 571.769C479.491 583.787 416.774 570.481 352.276 563.844Z" stroke="url(#paint86_linear_322_1576)" stroke-width="3"/>
<path opacity="0.88" fill-rule="evenodd" clip-rule="evenodd" d="M357.112 564.812C256.103 555.93 127.113 598.561 61.9527 527.426C-1.24947 458.428 97.2556 371.121 103.517 287.962C109.336 210.692 56.5948 126.134 97.1797 59.5929C140.512 -11.4528 228.577 -57.4593 322.593 -71.2255C414.772 -84.7226 514.912 -59.7267 598.347 -13.7897C673.75 27.7255 708.337 101.769 755.495 167.119C800.887 230.022 880.663 290.748 867.967 359.843C855.247 429.064 758.867 451.889 695.614 492.989C647.975 523.944 603.963 557.308 544.729 569.876C483.915 582.78 421.331 570.459 357.112 564.812Z" stroke="url(#paint87_linear_322_1576)" stroke-width="3"/>
<path opacity="0.89" fill-rule="evenodd" clip-rule="evenodd" d="M362.014 565.663C261.475 558.328 134.178 602.76 67.9962 532.832C3.80303 465.006 99.9062 376.499 104.443 293.513C108.659 216.404 54.5449 132.911 93.521 65.973C135.135 -5.49546 221.702 -52.6775 314.834 -67.8121C406.147 -82.6509 506.15 -59.2401 589.978 -14.7043C665.738 25.5445 701.601 98.8302 749.78 163.262C796.154 225.281 876.647 284.613 865.431 353.677C854.195 422.866 758.897 447.066 696.884 488.985C650.178 520.556 607.125 554.474 548.526 567.892C488.366 581.668 425.934 570.327 362.014 565.663Z" stroke="url(#paint88_linear_322_1576)" stroke-width="3"/>
<path opacity="0.9" fill-rule="evenodd" clip-rule="evenodd" d="M366.979 566.396C266.94 560.595 141.365 606.796 74.1942 538.089C9.0416 471.446 102.732 381.782 105.559 298.996C108.186 222.072 52.7294 139.663 90.0981 72.3557C129.996 0.493122 215.048 -47.837 307.273 -64.3219C397.696 -80.4848 497.527 -58.6521 581.716 -15.5198C657.802 23.4606 694.919 95.9704 744.091 159.47C791.422 220.592 872.597 278.523 862.853 347.531C853.091 416.666 758.898 442.219 698.134 484.934C652.369 517.105 610.282 551.56 552.333 565.815C492.839 580.45 430.581 570.084 366.979 566.396Z" stroke="url(#paint89_linear_322_1576)" stroke-width="3"/>
<path opacity="0.91" fill-rule="evenodd" clip-rule="evenodd" d="M372.005 567.009C272.497 562.73 148.671 610.668 80.5437 543.193C14.4634 477.746 105.73 386.966 106.862 304.407C107.914 227.694 51.1475 146.386 86.9108 78.7365C125.095 6.5083 208.617 -42.9423 299.91 -60.7592C389.42 -78.2279 489.046 -57.9662 573.564 -16.2391C649.946 21.4713 688.291 93.1875 738.431 155.742C786.693 215.953 868.516 272.476 860.233 341.407C851.934 410.463 758.87 437.349 699.365 480.837C654.548 513.591 613.431 548.567 556.146 563.646C497.335 579.127 435.27 569.73 372.005 567.009Z" stroke="url(#paint90_linear_322_1576)" stroke-width="3"/>
<path opacity="0.92" fill-rule="evenodd" clip-rule="evenodd" d="M377.088 567.501C278.14 564.731 156.091 614.372 87.0398 548.142C20.0634 483.902 108.898 392.048 108.35 309.743C107.841 233.265 49.7968 153.076 83.9572 85.1108C120.43 12.5455 202.407 -37.9979 292.746 -57.1279C381.32 -75.8841 480.709 -57.1854 565.522 -16.8646C642.171 19.5748 681.72 90.4801 732.801 152.076C781.969 211.366 864.405 266.474 857.571 335.303C850.726 404.258 758.811 432.454 700.574 476.694C656.712 510.014 616.571 545.492 559.964 561.383C501.848 577.697 439.997 569.263 377.088 567.501Z" stroke="url(#paint91_linear_322_1576)" stroke-width="3"/>
<path opacity="0.93" fill-rule="evenodd" clip-rule="evenodd" d="M382.226 567.871C283.867 566.596 163.62 617.907 93.6778 552.933C25.8372 489.91 112.231 397.025 110.02 314.999C107.965 238.781 48.6748 159.728 81.2354 91.4742C116 18.6003 196.418 -33.0079 285.78 -53.4319C373.396 -73.4568 472.515 -56.3126 557.592 -17.3988C634.479 17.7691 675.206 87.8466 727.201 148.472C777.249 206.828 860.264 260.516 854.869 329.221C849.465 398.052 758.721 427.535 701.76 472.504C658.86 506.373 619.699 542.337 563.784 559.026C506.378 576.159 444.759 568.682 382.226 567.871Z" stroke="url(#paint92_linear_322_1576)" stroke-width="3"/>
<path opacity="0.94" fill-rule="evenodd" clip-rule="evenodd" d="M387.414 568.118C289.674 568.324 171.254 621.271 100.454 557.563C31.7809 495.769 115.727 401.894 111.868 320.173C108.283 244.239 47.7799 166.339 78.7445 97.8222C111.805 24.6679 190.651 -27.977 279.014 -49.6754C365.65 -70.9499 464.467 -55.3514 549.775 -17.8446C626.871 16.0518 668.75 85.285 721.633 144.928C772.536 202.339 856.094 254.602 852.127 323.16C848.153 391.843 758.601 422.592 702.924 468.267C660.991 502.668 622.815 539.102 567.604 556.574C510.921 574.513 449.554 567.986 387.414 568.118Z" stroke="url(#paint93_linear_322_1576)" stroke-width="3"/>
<path opacity="0.95" fill-rule="evenodd" clip-rule="evenodd" d="M392.651 568.239C295.558 569.913 178.989 624.462 107.363 562.029C37.8901 501.473 119.383 406.651 113.894 325.261C108.793 249.635 47.1098 172.903 76.4827 104.15C107.844 30.7438 185.105 -22.9095 272.447 -45.8625C358.082 -68.3672 456.566 -54.305 542.073 -18.2047C619.349 14.4206 662.356 82.7936 716.099 141.444C767.83 197.898 851.898 248.732 849.346 317.12C846.789 385.634 758.449 417.624 704.063 463.984C663.103 498.899 625.916 535.785 571.422 554.028C515.475 572.758 454.38 567.175 392.651 568.239Z" stroke="url(#paint94_linear_322_1576)" stroke-width="3"/>
<path opacity="0.96" fill-rule="evenodd" clip-rule="evenodd" d="M397.932 568.235C301.514 571.361 186.819 627.477 114.402 566.33C44.1597 507.021 123.193 411.294 116.091 330.26C109.492 254.964 46.6614 179.417 74.4475 110.454C104.114 36.8233 179.779 -17.8098 266.079 -41.9974C350.694 -65.7124 448.812 -53.1765 534.486 -18.4817C611.913 12.8735 656.022 80.3708 710.599 138.017C763.132 193.504 847.675 242.905 846.526 311.101C845.374 379.423 758.265 412.633 705.177 459.653C665.194 495.066 629.001 532.386 575.236 551.387C520.038 570.894 459.232 566.247 397.932 568.235Z" stroke="url(#paint95_linear_322_1576)" stroke-width="3"/>
<path opacity="0.97" fill-rule="evenodd" clip-rule="evenodd" d="M403.256 568.104C307.539 572.667 194.741 630.315 121.564 570.463C50.5859 512.409 127.156 415.819 118.46 335.166C110.379 260.224 46.4332 185.876 72.6379 116.729C100.616 42.9023 174.673 -12.6822 259.911 -38.0838C343.485 -62.9892 441.208 -51.969 527.017 -18.6781C604.567 11.4082 649.75 78.0148 705.134 134.646C758.444 189.156 843.428 237.121 843.668 305.104C843.908 373.212 758.048 407.617 706.265 455.276C667.265 491.17 632.067 528.906 579.043 548.65C524.606 568.92 464.109 565.202 403.256 568.104Z" stroke="url(#paint96_linear_322_1576)" stroke-width="3"/>
<path opacity="0.98" fill-rule="evenodd" clip-rule="evenodd" d="M408.618 567.844C313.63 573.83 202.75 632.975 128.847 574.425C57.164 517.635 131.268 420.224 120.995 339.976C111.449 265.411 46.4223 192.276 71.0517 122.972C97.3482 48.9761 169.786 -7.53102 253.943 -34.126C336.456 -60.2013 433.753 -50.686 519.666 -18.7969C597.31 10.0225 643.543 75.7238 699.706 131.331C753.766 184.855 839.156 231.38 840.772 299.128C842.391 367 757.8 402.578 707.327 450.851C669.313 487.208 635.114 525.345 582.842 545.818C529.178 566.836 469.008 564.039 408.618 567.844Z" stroke="url(#paint97_linear_322_1576)" stroke-width="3"/>
<path opacity="0.99" fill-rule="evenodd" clip-rule="evenodd" d="M414.015 567.456C319.782 574.847 210.841 635.454 136.244 578.214C63.8889 522.695 135.525 424.505 123.694 344.687C112.701 270.521 46.6257 198.614 69.6863 129.177C94.3078 55.0401 165.117 -2.36075 248.174 -30.128C329.608 -57.3527 426.448 -49.3308 512.434 -18.8409C590.144 8.71405 637.399 73.4959 694.315 128.069C749.098 180.598 834.862 225.681 837.84 293.173C840.823 360.788 757.517 397.513 708.359 446.379C671.336 483.182 638.138 521.702 586.63 542.889C533.75 564.641 473.925 562.757 414.015 567.456Z" stroke="url(#paint98_linear_322_1576)" stroke-width="3"/>
<path fill-rule="evenodd" clip-rule="evenodd" d="M419.444 566.937C325.992 575.717 219.009 637.75 143.752 581.828C70.7565 527.587 139.922 428.661 126.553 349.296C114.131 275.551 47.0411 204.883 68.54 135.34C91.4942 61.0899 160.666 2.82422 242.603 -26.094C322.94 -54.4472 419.294 -47.9067 505.322 -18.8129C583.07 7.48038 631.322 71.3292 688.962 124.859C744.443 176.385 830.546 220.025 834.872 287.239C839.205 354.576 757.201 392.425 709.363 441.86C673.334 479.092 641.138 517.977 590.405 539.864C538.32 562.335 478.858 561.355 419.444 566.937Z" stroke="url(#paint99_linear_322_1576)" stroke-width="3"/>
<ellipse cx="669.013" cy="40.5344" rx="144" ry="93.5" fill="url(#paint100_linear_322_1576)"/>
<defs>
<linearGradient id="paint0_linear_322_1576" x1="277.452" y1="224.657" x2="1401.43" y2="613.082" gradientUnits="userSpaceOnUse">
<stop stop-color="#00A3FF"/>
<stop offset="1" stop-color="#0D34A0"/>
</linearGradient>
<linearGradient id="paint1_linear_322_1576" x1="270.171" y1="228.779" x2="1398.63" y2="592.659" gradientUnits="userSpaceOnUse">
<stop stop-color="#00A3FF"/>
<stop offset="1" stop-color="#0D34A0"/>
</linearGradient>
<linearGradient id="paint2_linear_322_1576" x1="263.056" y1="233.004" x2="1395.31" y2="572.265" gradientUnits="userSpaceOnUse">
<stop stop-color="#00A3FF"/>
<stop offset="1" stop-color="#0D34A0"/>
</linearGradient>
<linearGradient id="paint3_linear_322_1576" x1="256.11" y1="237.328" x2="1391.49" y2="551.923" gradientUnits="userSpaceOnUse">
<stop stop-color="#00A3FF"/>
<stop offset="1" stop-color="#0D34A0"/>
</linearGradient>
<linearGradient id="paint4_linear_322_1576" x1="249.334" y1="241.75" x2="1387.15" y2="531.658" gradientUnits="userSpaceOnUse">
<stop stop-color="#00A3FF"/>
<stop offset="1" stop-color="#0D34A0"/>
</linearGradient>
<linearGradient id="paint5_linear_322_1576" x1="242.731" y1="246.266" x2="1382.31" y2="511.494" gradientUnits="userSpaceOnUse">
<stop stop-color="#00A3FF"/>
<stop offset="1" stop-color="#0D34A0"/>
</linearGradient>
<linearGradient id="paint6_linear_322_1576" x1="236.303" y1="250.874" x2="1376.95" y2="491.455" gradientUnits="userSpaceOnUse">
<stop stop-color="#00A3FF"/>
<stop offset="1" stop-color="#0D34A0"/>
</linearGradient>
<linearGradient id="paint7_linear_322_1576" x1="230.051" y1="255.569" x2="1371.1" y2="471.565" gradientUnits="userSpaceOnUse">
<stop stop-color="#00A3FF"/>
<stop offset="1" stop-color="#0D34A0"/>
</linearGradient>
<linearGradient id="paint8_linear_322_1576" x1="223.976" y1="260.35" x2="1364.76" y2="451.849" gradientUnits="userSpaceOnUse">
<stop stop-color="#00A3FF"/>
<stop offset="1" stop-color="#0D34A0"/>
</linearGradient>
<linearGradient id="paint9_linear_322_1576" x1="218.08" y1="265.213" x2="1357.92" y2="432.329" gradientUnits="userSpaceOnUse">
<stop stop-color="#00A3FF"/>
<stop offset="1" stop-color="#0D34A0"/>
</linearGradient>
<linearGradient id="paint10_linear_322_1576" x1="212.365" y1="270.155" x2="1350.61" y2="413.027" gradientUnits="userSpaceOnUse">
<stop stop-color="#00A3FF"/>
<stop offset="1" stop-color="#0D34A0"/>
</linearGradient>
<linearGradient id="paint11_linear_322_1576" x1="206.831" y1="275.174" x2="1342.83" y2="393.968" gradientUnits="userSpaceOnUse">
<stop stop-color="#00A3FF"/>
<stop offset="1" stop-color="#0D34A0"/>
</linearGradient>
<linearGradient id="paint12_linear_322_1576" x1="201.482" y1="280.265" x2="1334.59" y2="375.172" gradientUnits="userSpaceOnUse">
<stop stop-color="#00A3FF"/>
<stop offset="1" stop-color="#0D34A0"/>
</linearGradient>
<linearGradient id="paint13_linear_322_1576" x1="196.316" y1="285.426" x2="1325.91" y2="356.659" gradientUnits="userSpaceOnUse">
<stop stop-color="#00A3FF"/>
<stop offset="1" stop-color="#0D34A0"/>
</linearGradient>
<linearGradient id="paint14_linear_322_1576" x1="191.337" y1="290.654" x2="1316.8" y2="338.45" gradientUnits="userSpaceOnUse">
<stop stop-color="#00A3FF"/>
<stop offset="1" stop-color="#0D34A0"/>
</linearGradient>
<linearGradient id="paint15_linear_322_1576" x1="186.543" y1="295.944" x2="1307.28" y2="320.564" gradientUnits="userSpaceOnUse">
<stop stop-color="#00A3FF"/>
<stop offset="1" stop-color="#0D34A0"/>
</linearGradient>
<linearGradient id="paint16_linear_322_1576" x1="181.938" y1="301.295" x2="1297.36" y2="303.018" gradientUnits="userSpaceOnUse">
<stop stop-color="#00A3FF"/>
<stop offset="1" stop-color="#0D34A0"/>
</linearGradient>
<linearGradient id="paint17_linear_322_1576" x1="177.52" y1="306.703" x2="1287.05" y2="285.83" gradientUnits="userSpaceOnUse">
<stop stop-color="#00A3FF"/>
<stop offset="1" stop-color="#0D34A0"/>
</linearGradient>
<linearGradient id="paint18_linear_322_1576" x1="173.292" y1="312.165" x2="1276.38" y2="269.015" gradientUnits="userSpaceOnUse">
<stop stop-color="#00A3FF"/>
<stop offset="1" stop-color="#0D34A0"/>
</linearGradient>
<linearGradient id="paint19_linear_322_1576" x1="169.254" y1="317.676" x2="1265.37" y2="252.588" gradientUnits="userSpaceOnUse">
<stop stop-color="#00A3FF"/>
<stop offset="1" stop-color="#0D34A0"/>
</linearGradient>
<linearGradient id="paint20_linear_322_1576" x1="165.407" y1="323.235" x2="1254.03" y2="236.562" gradientUnits="userSpaceOnUse">
<stop stop-color="#00A3FF"/>
<stop offset="1" stop-color="#0D34A0"/>
</linearGradient>
<linearGradient id="paint21_linear_322_1576" x1="161.75" y1="328.838" x2="1242.38" y2="220.95" gradientUnits="userSpaceOnUse">
<stop stop-color="#00A3FF"/>
<stop offset="1" stop-color="#0D34A0"/>
</linearGradient>
<linearGradient id="paint22_linear_322_1576" x1="158.287" y1="334.481" x2="1230.45" y2="205.762" gradientUnits="userSpaceOnUse">
<stop stop-color="#00A3FF"/>
<stop offset="1" stop-color="#0D34A0"/>
</linearGradient>
<linearGradient id="paint23_linear_322_1576" x1="155.015" y1="340.161" x2="1218.25" y2="191.008" gradientUnits="userSpaceOnUse">
<stop stop-color="#00A3FF"/>
<stop offset="1" stop-color="#0D34A0"/>
</linearGradient>
<linearGradient id="paint24_linear_322_1576" x1="151.935" y1="345.874" x2="1205.81" y2="176.696" gradientUnits="userSpaceOnUse">
<stop stop-color="#00A3FF"/>
<stop offset="1" stop-color="#0D34A0"/>
</linearGradient>
<linearGradient id="paint25_linear_322_1576" x1="149.049" y1="351.619" x2="1193.14" y2="162.835" gradientUnits="userSpaceOnUse">
<stop stop-color="#00A3FF"/>
<stop offset="1" stop-color="#0D34A0"/>
</linearGradient>
<linearGradient id="paint26_linear_322_1576" x1="146.356" y1="357.389" x2="1180.27" y2="149.428" gradientUnits="userSpaceOnUse">
<stop stop-color="#00A3FF"/>
<stop offset="1" stop-color="#0D34A0"/>
</linearGradient>
<linearGradient id="paint27_linear_322_1576" x1="143.855" y1="363.184" x2="1167.21" y2="136.482" gradientUnits="userSpaceOnUse">
<stop stop-color="#00A3FF"/>
<stop offset="1" stop-color="#0D34A0"/>
</linearGradient>
<linearGradient id="paint28_linear_322_1576" x1="141.548" y1="368.999" x2="1154" y2="124" gradientUnits="userSpaceOnUse">
<stop stop-color="#00A3FF"/>
<stop offset="1" stop-color="#0D34A0"/>
</linearGradient>
<linearGradient id="paint29_linear_322_1576" x1="139.434" y1="374.83" x2="1140.64" y2="111.983" gradientUnits="userSpaceOnUse">
<stop stop-color="#00A3FF"/>
<stop offset="1" stop-color="#0D34A0"/>
</linearGradient>
<linearGradient id="paint30_linear_322_1576" x1="137.514" y1="380.675" x2="1127.17" y2="100.434" gradientUnits="userSpaceOnUse">
<stop stop-color="#00A3FF"/>
<stop offset="1" stop-color="#0D34A0"/>
</linearGradient>
<linearGradient id="paint31_linear_322_1576" x1="135.786" y1="386.531" x2="1113.59" y2="89.3519" gradientUnits="userSpaceOnUse">
<stop stop-color="#00A3FF"/>
<stop offset="1" stop-color="#0D34A0"/>
</linearGradient>
<linearGradient id="paint32_linear_322_1576" x1="134.25" y1="392.392" x2="1099.94" y2="78.7357" gradientUnits="userSpaceOnUse">
<stop stop-color="#00A3FF"/>
<stop offset="1" stop-color="#0D34A0"/>
</linearGradient>
<linearGradient id="paint33_linear_322_1576" x1="132.906" y1="398.257" x2="1086.22" y2="68.5836" gradientUnits="userSpaceOnUse">
<stop stop-color="#00A3FF"/>
<stop offset="1" stop-color="#0D34A0"/>
</linearGradient>
<linearGradient id="paint34_linear_322_1576" x1="131.755" y1="404.122" x2="1072.47" y2="58.8927" gradientUnits="userSpaceOnUse">
<stop stop-color="#00A3FF"/>
<stop offset="1" stop-color="#0D34A0"/>
</linearGradient>
<linearGradient id="paint35_linear_322_1576" x1="130.795" y1="409.983" x2="1058.69" y2="49.6588" gradientUnits="userSpaceOnUse">
<stop stop-color="#00A3FF"/>
<stop offset="1" stop-color="#0D34A0"/>
</linearGradient>
<linearGradient id="paint36_linear_322_1576" x1="130.025" y1="415.838" x2="1044.91" y2="40.8774" gradientUnits="userSpaceOnUse">
<stop stop-color="#00A3FF"/>
<stop offset="1" stop-color="#0D34A0"/>
</linearGradient>
<linearGradient id="paint37_linear_322_1576" x1="129.445" y1="421.682" x2="1031.15" y2="32.5422" gradientUnits="userSpaceOnUse">
<stop stop-color="#00A3FF"/>
<stop offset="1" stop-color="#0D34A0"/>
</linearGradient>
<linearGradient id="paint38_linear_322_1576" x1="129.054" y1="427.513" x2="1017.41" y2="24.6476" gradientUnits="userSpaceOnUse">
<stop stop-color="#00A3FF"/>
<stop offset="1" stop-color="#0D34A0"/>
</linearGradient>
<linearGradient id="paint39_linear_322_1576" x1="128.852" y1="433.326" x2="1003.72" y2="17.1859" gradientUnits="userSpaceOnUse">
<stop stop-color="#00A3FF"/>
<stop offset="1" stop-color="#0D34A0"/>
</linearGradient>
<linearGradient id="paint40_linear_322_1576" x1="128.838" y1="439.119" x2="990.098" y2="10.1495" gradientUnits="userSpaceOnUse">
<stop stop-color="#00A3FF"/>
<stop offset="1" stop-color="#0D34A0"/>
</linearGradient>
<linearGradient id="paint41_linear_322_1576" x1="129.01" y1="444.889" x2="976.549" y2="3.53023" gradientUnits="userSpaceOnUse">
<stop stop-color="#00A3FF"/>
<stop offset="1" stop-color="#0D34A0"/>
</linearGradient>
<linearGradient id="paint42_linear_322_1576" x1="129.366" y1="450.631" x2="963.092" y2="-2.68168" gradientUnits="userSpaceOnUse">
<stop stop-color="#00A3FF"/>
<stop offset="1" stop-color="#0D34A0"/>
</linearGradient>
<linearGradient id="paint43_linear_322_1576" x1="129.908" y1="456.343" x2="949.74" y2="-8.49447" gradientUnits="userSpaceOnUse">
<stop stop-color="#00A3FF"/>
<stop offset="1" stop-color="#0D34A0"/>
</linearGradient>
<linearGradient id="paint44_linear_322_1576" x1="130.633" y1="462.022" x2="936.506" y2="-13.9186" gradientUnits="userSpaceOnUse">
<stop stop-color="#00A3FF"/>
<stop offset="1" stop-color="#0D34A0"/>
</linearGradient>
<linearGradient id="paint45_linear_322_1576" x1="131.54" y1="467.664" x2="923.401" y2="-18.9643" gradientUnits="userSpaceOnUse">
<stop stop-color="#00A3FF"/>
<stop offset="1" stop-color="#0D34A0"/>
</linearGradient>
<linearGradient id="paint46_linear_322_1576" x1="132.627" y1="473.265" x2="910.437" y2="-23.6421" gradientUnits="userSpaceOnUse">
<stop stop-color="#00A3FF"/>
<stop offset="1" stop-color="#0D34A0"/>
</linearGradient>
<linearGradient id="paint47_linear_322_1576" x1="133.893" y1="478.823" x2="897.625" y2="-27.9631" gradientUnits="userSpaceOnUse">
<stop stop-color="#00A3FF"/>
<stop offset="1" stop-color="#0D34A0"/>
</linearGradient>
<linearGradient id="paint48_linear_322_1576" x1="135.336" y1="484.335" x2="884.975" y2="-31.938" gradientUnits="userSpaceOnUse">
<stop stop-color="#00A3FF"/>
<stop offset="1" stop-color="#0D34A0"/>
</linearGradient>
<linearGradient id="paint49_linear_322_1576" x1="136.955" y1="489.797" x2="872.495" y2="-35.5792" gradientUnits="userSpaceOnUse">
<stop stop-color="#00A3FF"/>
<stop offset="1" stop-color="#0D34A0"/>
</linearGradient>
<linearGradient id="paint50_linear_322_1576" x1="138.749" y1="495.206" x2="860.194" y2="-38.8971" gradientUnits="userSpaceOnUse">
<stop stop-color="#00A3FF"/>
<stop offset="1" stop-color="#0D34A0"/>
</linearGradient>
<linearGradient id="paint51_linear_322_1576" x1="140.715" y1="500.558" x2="848.08" y2="-41.904" gradientUnits="userSpaceOnUse">
<stop stop-color="#00A3FF"/>
<stop offset="1" stop-color="#0D34A0"/>
</linearGradient>
<linearGradient id="paint52_linear_322_1576" x1="142.853" y1="505.852" x2="836.16" y2="-44.6112" gradientUnits="userSpaceOnUse">
<stop stop-color="#00A3FF"/>
<stop offset="1" stop-color="#0D34A0"/>
</linearGradient>
<linearGradient id="paint53_linear_322_1576" x1="145.171" y1="511.083" x2="824.452" y2="-47.0313" gradientUnits="userSpaceOnUse">
<stop stop-color="#00A3FF"/>
<stop offset="1" stop-color="#0D34A0"/>
</linearGradient>
<linearGradient id="paint54_linear_322_1576" x1="147.645" y1="516.249" x2="812.938" y2="-49.1755" gradientUnits="userSpaceOnUse">
<stop stop-color="#00A3FF"/>
<stop offset="1" stop-color="#0D34A0"/>
</linearGradient>
<linearGradient id="paint55_linear_322_1576" x1="150.283" y1="521.346" x2="801.635" y2="-51.0557" gradientUnits="userSpaceOnUse">
<stop stop-color="#00A3FF"/>
<stop offset="1" stop-color="#0D34A0"/>
</linearGradient>
<linearGradient id="paint56_linear_322_1576" x1="153.085" y1="526.372" x2="790.548" y2="-52.6838" gradientUnits="userSpaceOnUse">
<stop stop-color="#00A3FF"/>
<stop offset="1" stop-color="#0D34A0"/>
</linearGradient>
<linearGradient id="paint57_linear_322_1576" x1="156.047" y1="531.324" x2="779.68" y2="-54.0717" gradientUnits="userSpaceOnUse">
<stop stop-color="#00A3FF"/>
<stop offset="1" stop-color="#0D34A0"/>
</linearGradient>
<linearGradient id="paint58_linear_322_1576" x1="159.168" y1="536.198" x2="769.035" y2="-55.2312" gradientUnits="userSpaceOnUse">
<stop stop-color="#00A3FF"/>
<stop offset="1" stop-color="#0D34A0"/>
</linearGradient>
<linearGradient id="paint59_linear_322_1576" x1="162.446" y1="540.992" x2="758.616" y2="-56.1735" gradientUnits="userSpaceOnUse">
<stop stop-color="#00A3FF"/>
<stop offset="1" stop-color="#0D34A0"/>
</linearGradient>
<linearGradient id="paint60_linear_322_1576" x1="165.878" y1="545.702" x2="748.425" y2="-56.9103" gradientUnits="userSpaceOnUse">
<stop stop-color="#00A3FF"/>
<stop offset="1" stop-color="#0D34A0"/>
</linearGradient>
<linearGradient id="paint61_linear_322_1576" x1="169.461" y1="550.327" x2="738.462" y2="-57.4528" gradientUnits="userSpaceOnUse">
<stop stop-color="#00A3FF"/>
<stop offset="1" stop-color="#0D34A0"/>
</linearGradient>
<linearGradient id="paint62_linear_322_1576" x1="173.194" y1="554.863" x2="728.731" y2="-57.8122" gradientUnits="userSpaceOnUse">
<stop stop-color="#00A3FF"/>
<stop offset="1" stop-color="#0D34A0"/>
</linearGradient>
<linearGradient id="paint63_linear_322_1576" x1="177.074" y1="559.307" x2="719.232" y2="-57.9996" gradientUnits="userSpaceOnUse">
<stop stop-color="#00A3FF"/>
<stop offset="1" stop-color="#0D34A0"/>
</linearGradient>
<linearGradient id="paint64_linear_322_1576" x1="181.098" y1="563.658" x2="709.964" y2="-58.0254" gradientUnits="userSpaceOnUse">
<stop stop-color="#00A3FF"/>
<stop offset="1" stop-color="#0D34A0"/>
</linearGradient>
<linearGradient id="paint65_linear_322_1576" x1="185.264" y1="567.911" x2="700.928" y2="-57.9008" gradientUnits="userSpaceOnUse">
<stop stop-color="#00A3FF"/>
<stop offset="1" stop-color="#0D34A0"/>
</linearGradient>
<linearGradient id="paint66_linear_322_1576" x1="189.569" y1="572.064" x2="692.123" y2="-57.6355" gradientUnits="userSpaceOnUse">
<stop stop-color="#00A3FF"/>
<stop offset="1" stop-color="#0D34A0"/>
</linearGradient>
<linearGradient id="paint67_linear_322_1576" x1="194.01" y1="576.116" x2="683.548" y2="-57.2401" gradientUnits="userSpaceOnUse">
<stop stop-color="#00A3FF"/>
<stop offset="1" stop-color="#0D34A0"/>
</linearGradient>
<linearGradient id="paint68_linear_322_1576" x1="198.585" y1="580.062" x2="675.203" y2="-56.7244" gradientUnits="userSpaceOnUse">
<stop stop-color="#00A3FF"/>
<stop offset="1" stop-color="#0D34A0"/>
</linearGradient>
<linearGradient id="paint69_linear_322_1576" x1="203.29" y1="583.902" x2="667.085" y2="-56.0977" gradientUnits="userSpaceOnUse">
<stop stop-color="#00A3FF"/>
<stop offset="1" stop-color="#0D34A0"/>
</linearGradient>
<linearGradient id="paint70_linear_322_1576" x1="208.124" y1="587.632" x2="659.193" y2="-55.3697" gradientUnits="userSpaceOnUse">
<stop stop-color="#00A3FF"/>
<stop offset="1" stop-color="#0D34A0"/>
</linearGradient>
<linearGradient id="paint71_linear_322_1576" x1="213.082" y1="591.249" x2="651.523" y2="-54.5498" gradientUnits="userSpaceOnUse">
<stop stop-color="#00A3FF"/>
<stop offset="1" stop-color="#0D34A0"/>
</linearGradient>
<linearGradient id="paint72_linear_322_1576" x1="218.162" y1="594.752" x2="644.074" y2="-53.6468" gradientUnits="userSpaceOnUse">
<stop stop-color="#00A3FF"/>
<stop offset="1" stop-color="#0D34A0"/>
</linearGradient>
<linearGradient id="paint73_linear_322_1576" x1="223.36" y1="598.138" x2="636.842" y2="-52.6692" gradientUnits="userSpaceOnUse">
<stop stop-color="#00A3FF"/>
<stop offset="1" stop-color="#0D34A0"/>
</linearGradient>
<linearGradient id="paint74_linear_322_1576" x1="228.675" y1="601.405" x2="629.825" y2="-51.6253" gradientUnits="userSpaceOnUse">
<stop stop-color="#00A3FF"/>
<stop offset="1" stop-color="#0D34A0"/>
</linearGradient>
<linearGradient id="paint75_linear_322_1576" x1="234.103" y1="604.551" x2="623.019" y2="-50.5232" gradientUnits="userSpaceOnUse">
<stop stop-color="#00A3FF"/>
<stop offset="1" stop-color="#0D34A0"/>
</linearGradient>
<linearGradient id="paint76_linear_322_1576" x1="239.64" y1="607.573" x2="616.421" y2="-49.3714" gradientUnits="userSpaceOnUse">
<stop stop-color="#00A3FF"/>
<stop offset="1" stop-color="#0D34A0"/>
</linearGradient>
<linearGradient id="paint77_linear_322_1576" x1="245.283" y1="610.47" x2="610.026" y2="-48.1767" gradientUnits="userSpaceOnUse">
<stop stop-color="#00A3FF"/>
<stop offset="1" stop-color="#0D34A0"/>
</linearGradient>
<linearGradient id="paint78_linear_322_1576" x1="251.029" y1="613.239" x2="603.83" y2="-46.9466" gradientUnits="userSpaceOnUse">
<stop stop-color="#00A3FF"/>
<stop offset="1" stop-color="#0D34A0"/>
</linearGradient>
<linearGradient id="paint79_linear_322_1576" x1="256.874" y1="615.878" x2="597.829" y2="-45.6883" gradientUnits="userSpaceOnUse">
<stop stop-color="#00A3FF"/>
<stop offset="1" stop-color="#0D34A0"/>
</linearGradient>
<linearGradient id="paint80_linear_322_1576" x1="262.817" y1="618.386" x2="592.02" y2="-44.4082" gradientUnits="userSpaceOnUse">
<stop stop-color="#00A3FF"/>
<stop offset="1" stop-color="#0D34A0"/>
</linearGradient>
<linearGradient id="paint81_linear_322_1576" x1="268.852" y1="620.76" x2="586.397" y2="-43.1132" gradientUnits="userSpaceOnUse">
<stop stop-color="#00A3FF"/>
<stop offset="1" stop-color="#0D34A0"/>
</linearGradient>
<linearGradient id="paint82_linear_322_1576" x1="274.976" y1="622.998" x2="580.954" y2="-41.8097" gradientUnits="userSpaceOnUse">
<stop stop-color="#00A3FF"/>
<stop offset="1" stop-color="#0D34A0"/>
</linearGradient>
<linearGradient id="paint83_linear_322_1576" x1="281.188" y1="625.1" x2="575.689" y2="-40.5029" gradientUnits="userSpaceOnUse">
<stop stop-color="#00A3FF"/>
<stop offset="1" stop-color="#0D34A0"/>
</linearGradient>
<linearGradient id="paint84_linear_322_1576" x1="287.48" y1="627.062" x2="570.595" y2="-39.1987" gradientUnits="userSpaceOnUse">
<stop stop-color="#00A3FF"/>
<stop offset="1" stop-color="#0D34A0"/>
</linearGradient>
<linearGradient id="paint85_linear_322_1576" x1="293.853" y1="628.884" x2="565.667" y2="-37.903" gradientUnits="userSpaceOnUse">
<stop stop-color="#00A3FF"/>
<stop offset="1" stop-color="#0D34A0"/>
</linearGradient>
<linearGradient id="paint86_linear_322_1576" x1="300.301" y1="630.564" x2="560.9" y2="-36.6204" gradientUnits="userSpaceOnUse">
<stop stop-color="#00A3FF"/>
<stop offset="1" stop-color="#0D34A0"/>
</linearGradient>
<linearGradient id="paint87_linear_322_1576" x1="306.821" y1="632.099" x2="556.29" y2="-35.3563" gradientUnits="userSpaceOnUse">
<stop stop-color="#00A3FF"/>
<stop offset="1" stop-color="#0D34A0"/>
</linearGradient>
<linearGradient id="paint88_linear_322_1576" x1="313.409" y1="633.49" x2="551.829" y2="-34.1146" gradientUnits="userSpaceOnUse">
<stop stop-color="#00A3FF"/>
<stop offset="1" stop-color="#0D34A0"/>
</linearGradient>
<linearGradient id="paint89_linear_322_1576" x1="320.062" y1="634.734" x2="547.513" y2="-32.8999" gradientUnits="userSpaceOnUse">
<stop stop-color="#00A3FF"/>
<stop offset="1" stop-color="#0D34A0"/>
</linearGradient>
<linearGradient id="paint90_linear_322_1576" x1="326.776" y1="635.83" x2="543.337" y2="-31.7165" gradientUnits="userSpaceOnUse">
<stop stop-color="#00A3FF"/>
<stop offset="1" stop-color="#0D34A0"/>
</linearGradient>
<linearGradient id="paint91_linear_322_1576" x1="333.547" y1="636.776" x2="539.294" y2="-30.5682" gradientUnits="userSpaceOnUse">
<stop stop-color="#00A3FF"/>
<stop offset="1" stop-color="#0D34A0"/>
</linearGradient>
<linearGradient id="paint92_linear_322_1576" x1="340.372" y1="637.572" x2="535.379" y2="-29.4582" gradientUnits="userSpaceOnUse">
<stop stop-color="#00A3FF"/>
<stop offset="1" stop-color="#0D34A0"/>
</linearGradient>
<linearGradient id="paint93_linear_322_1576" x1="347.247" y1="638.215" x2="531.587" y2="-28.3902" gradientUnits="userSpaceOnUse">
<stop stop-color="#00A3FF"/>
<stop offset="1" stop-color="#0D34A0"/>
</linearGradient>
<linearGradient id="paint94_linear_322_1576" x1="354.168" y1="638.706" x2="527.91" y2="-27.3672" gradientUnits="userSpaceOnUse">
<stop stop-color="#00A3FF"/>
<stop offset="1" stop-color="#0D34A0"/>
</linearGradient>
<linearGradient id="paint95_linear_322_1576" x1="361.131" y1="639.043" x2="524.344" y2="-26.3919" gradientUnits="userSpaceOnUse">
<stop stop-color="#00A3FF"/>
<stop offset="1" stop-color="#0D34A0"/>
</linearGradient>
<linearGradient id="paint96_linear_322_1576" x1="368.133" y1="639.224" x2="520.884" y2="-25.4668" gradientUnits="userSpaceOnUse">
<stop stop-color="#00A3FF"/>
<stop offset="1" stop-color="#0D34A0"/>
</linearGradient>
<linearGradient id="paint97_linear_322_1576" x1="375.169" y1="639.25" x2="517.522" y2="-24.5941" gradientUnits="userSpaceOnUse">
<stop stop-color="#00A3FF"/>
<stop offset="1" stop-color="#0D34A0"/>
</linearGradient>
<linearGradient id="paint98_linear_322_1576" x1="382.237" y1="639.119" x2="514.253" y2="-23.7762" gradientUnits="userSpaceOnUse">
<stop stop-color="#00A3FF"/>
<stop offset="1" stop-color="#0D34A0"/>
</linearGradient>
<linearGradient id="paint99_linear_322_1576" x1="389.331" y1="638.83" x2="511.072" y2="-23.0148" gradientUnits="userSpaceOnUse">
<stop stop-color="#00A3FF"/>
<stop offset="1" stop-color="#0D34A0"/>
</linearGradient>
<linearGradient id="paint100_linear_322_1576" x1="669.013" y1="-52.9656" x2="669.013" y2="134.034" gradientUnits="userSpaceOnUse">
<stop stop-color="#101014"/>
<stop offset="1" stop-color="#101014" stop-opacity="0"/>
</linearGradient>
</defs>
</svg>
