<svg width="889" height="889" viewBox="0 0 889 889" fill="none" xmlns="http://www.w3.org/2000/svg">
<g opacity="0.15">
<path opacity="0.0344828" d="M240.211 862.752C258.144 797.679 299.647 756.177 364.719 738.243C429.791 720.31 471.294 678.807 489.227 613.735C507.161 548.663 548.663 507.16 613.736 489.227C678.808 471.294 720.311 429.791 738.244 364.719C756.177 299.647 797.68 258.144 862.752 240.211" stroke="#0D34A0" stroke-width="5"/>
<path opacity="0.0689655" d="M232.264 854.804C250.197 789.732 291.7 748.229 356.772 730.296C421.844 712.363 463.347 670.86 481.28 605.788C499.213 540.716 540.716 499.213 605.788 481.28C670.86 463.346 712.363 421.844 730.296 356.771C748.23 291.699 789.732 250.196 854.805 232.263" stroke="#0D34A0" stroke-width="5"/>
<path opacity="0.103448" d="M224.316 846.857C242.249 781.784 283.752 740.282 348.824 722.348C413.896 704.415 455.399 662.912 473.332 597.84C491.265 532.768 532.768 491.265 597.84 473.332C662.912 455.399 704.415 413.896 722.348 348.824C740.282 283.752 781.784 242.249 846.857 224.316" stroke="#0D34A0" stroke-width="5"/>
<path opacity="0.137931" d="M216.368 838.909C234.302 773.836 275.804 732.334 340.876 714.4C405.949 696.467 447.451 654.964 465.385 589.892C483.318 524.82 524.821 483.317 589.893 465.384C654.965 447.451 696.468 405.948 714.401 340.876C732.334 275.804 773.837 234.301 838.909 216.368" stroke="#0D34A0" stroke-width="5"/>
<path opacity="0.172414" d="M208.42 830.961C226.354 765.889 267.857 724.386 332.929 706.453C398.001 688.519 439.504 647.017 457.437 581.945C475.37 516.872 516.873 475.37 581.945 457.436C647.017 439.503 688.52 398 706.453 332.928C724.387 267.856 765.889 226.353 830.962 208.42" stroke="#0D34A0" stroke-width="5"/>
<path opacity="0.206897" d="M200.473 823.013C218.406 757.941 259.909 716.438 324.981 698.505C390.053 680.572 431.556 639.069 449.489 573.997C467.423 508.925 508.925 467.422 573.998 449.489C639.07 431.556 680.572 390.053 698.506 324.981C716.439 259.908 757.942 218.406 823.014 200.472" stroke="#0D34A0" stroke-width="5"/>
<path opacity="0.241379" d="M192.525 815.066C210.459 749.994 251.961 708.491 317.033 690.558C382.106 672.624 423.608 631.122 441.542 566.049C459.475 500.977 500.978 459.475 566.05 441.541C631.122 423.608 672.625 382.105 690.558 317.033C708.491 251.961 749.994 210.458 815.066 192.525" stroke="#0D34A0" stroke-width="5"/>
<path opacity="0.275862" d="M184.577 807.118C202.511 742.046 244.013 700.543 309.086 682.61C374.158 664.677 415.661 623.174 433.594 558.102C451.527 493.03 493.03 451.527 558.102 433.594C623.174 415.66 664.677 374.158 682.61 309.085C700.544 244.013 742.046 202.511 807.118 184.577" stroke="#0D34A0" stroke-width="5"/>
<path opacity="0.310345" d="M176.63 799.17C194.563 734.098 236.066 692.595 301.138 674.662C366.211 656.729 407.713 615.226 425.647 550.154C443.58 485.082 485.083 443.579 550.155 425.646C615.227 407.712 656.73 366.21 674.663 301.137C692.596 236.065 734.099 194.562 799.171 176.629" stroke="#0D34A0" stroke-width="5"/>
<path opacity="0.344828" d="M168.682 791.223C186.615 726.151 228.118 684.648 293.19 666.715C358.263 648.782 399.765 607.279 417.699 542.207C435.632 477.135 477.135 435.632 542.207 417.699C607.279 399.765 648.782 358.263 666.715 293.19C684.648 228.118 726.151 186.616 791.223 168.682" stroke="#0D34A0" stroke-width="5"/>
<path opacity="0.37931" d="M160.735 783.275C178.668 718.203 220.171 676.7 285.243 658.767C350.315 640.834 391.818 599.331 409.751 534.259C427.684 469.186 469.187 427.684 534.259 409.75C599.331 391.817 640.834 350.314 658.767 285.242C676.701 220.17 718.204 178.667 783.276 160.734" stroke="#0D34A0" stroke-width="5"/>
<path opacity="0.413793" d="M152.787 775.327C170.72 710.255 212.223 668.753 277.295 650.819C342.368 632.886 383.87 591.383 401.804 526.311C419.737 461.239 461.24 419.736 526.312 401.803C591.384 383.87 632.887 342.367 650.82 277.295C668.753 212.223 710.256 170.72 775.328 152.786" stroke="#0D34A0" stroke-width="5"/>
<path opacity="0.448276" d="M144.839 767.38C162.773 702.308 204.275 660.805 269.348 642.872C334.42 624.938 375.923 583.436 393.856 518.364C411.789 453.291 453.292 411.789 518.364 393.855C583.436 375.922 624.939 334.419 642.872 269.347C660.806 204.275 702.308 162.772 767.38 144.839" stroke="#0D34A0" stroke-width="5"/>
<path opacity="0.482759" d="M136.892 759.432C154.825 694.36 196.328 652.858 261.4 634.924C326.472 616.991 367.975 575.488 385.908 510.416C403.841 445.344 445.344 403.841 510.416 385.908C575.488 367.975 616.991 326.472 634.924 261.4C652.858 196.327 694.361 154.825 759.433 136.891" stroke="#0D34A0" stroke-width="5"/>
<path opacity="0.517241" d="M128.944 751.485C146.877 686.413 188.38 644.91 253.452 626.977C318.524 609.043 360.027 567.541 377.96 502.468C395.894 437.396 437.396 395.894 502.469 377.96C567.541 360.027 609.043 318.524 626.977 253.452C644.91 188.38 686.413 146.877 751.485 128.944" stroke="#0D34A0" stroke-width="5"/>
<path opacity="0.551724" d="M120.997 743.537C138.93 678.465 180.433 636.962 245.505 619.029C310.577 601.095 352.08 559.592 370.013 494.52C387.946 429.448 429.449 387.945 494.521 370.012C559.593 352.079 601.096 310.576 619.029 245.504C636.963 180.432 678.465 138.929 743.538 120.996" stroke="#0D34A0" stroke-width="5"/>
<path opacity="0.586207" d="M113.049 735.589C130.982 670.517 172.485 629.014 237.557 611.081C302.629 593.148 344.132 551.645 362.065 486.573C379.999 421.501 421.501 379.998 486.573 362.065C551.646 344.131 593.148 302.629 611.082 237.556C629.015 172.484 670.518 130.981 735.59 113.048" stroke="#0D34A0" stroke-width="5"/>
<path opacity="0.62069" d="M105.101 727.642C123.035 662.57 164.537 621.067 229.61 603.133C294.682 585.2 336.185 543.697 354.118 478.625C372.051 413.553 413.554 372.05 478.626 354.117C543.698 336.184 585.201 294.681 603.134 229.609C621.067 164.537 662.57 123.034 727.642 105.101" stroke="#0D34A0" stroke-width="5"/>
<path opacity="0.655172" d="M97.1537 719.694C115.087 654.622 156.59 613.119 221.662 595.186C286.734 577.253 328.237 535.75 346.17 470.678C364.103 405.605 405.606 364.103 470.678 346.169C535.75 328.236 577.253 286.733 595.186 221.661C613.12 156.589 654.622 115.086 719.695 97.1531" stroke="#0D34A0" stroke-width="5"/>
<path opacity="0.689655" d="M89.2059 711.746C107.139 646.674 148.642 605.172 213.714 587.238C278.786 569.305 320.289 527.802 338.222 462.73C356.156 397.658 397.658 356.155 462.73 338.222C527.803 320.289 569.305 278.786 587.239 213.714C605.172 148.641 646.675 107.139 711.747 89.2054" stroke="#0D34A0" stroke-width="5"/>
<path opacity="0.724138" d="M81.2584 703.799C99.1917 638.727 140.694 597.224 205.767 579.291C270.839 561.358 312.342 519.855 330.275 454.783C348.208 389.71 389.711 348.208 454.783 330.274C519.855 312.341 561.358 270.838 579.291 205.766C597.224 140.694 638.727 99.1913 703.799 81.258" stroke="#0D34A0" stroke-width="5"/>
<path opacity="0.758621" d="M73.3106 695.851C91.2439 630.779 132.747 589.276 197.819 571.343C262.891 553.41 304.394 511.907 322.327 446.835C340.26 381.763 381.763 340.26 446.835 322.327C511.907 304.394 553.41 262.891 571.343 197.819C589.277 132.746 630.779 91.2437 695.852 73.3104" stroke="#0D34A0" stroke-width="5"/>
<path opacity="0.793103" d="M65.3631 687.903C83.2964 622.831 124.799 581.328 189.871 563.395C254.944 545.462 296.446 503.959 314.38 438.887C332.313 373.815 373.816 332.312 438.888 314.379C503.96 296.445 545.463 254.943 563.396 189.87C581.329 124.798 622.832 83.2956 687.904 65.3623" stroke="#0D34A0" stroke-width="5"/>
<path opacity="0.827586" d="M57.4156 679.956C75.3489 614.884 116.852 573.381 181.924 555.448C246.996 537.514 288.499 496.012 306.432 430.94C324.365 365.867 365.868 324.365 430.94 306.431C496.012 288.498 537.515 246.995 555.448 181.923C573.382 116.851 614.884 75.3482 679.957 57.4149" stroke="#0D34A0" stroke-width="5"/>
<path opacity="0.862069" d="M49.4679 672.008C67.4011 606.936 108.904 565.433 173.976 547.5C239.048 529.567 280.551 488.064 298.484 422.992C316.418 357.92 357.92 316.417 422.992 298.484C488.065 280.55 529.567 239.048 547.501 173.975C565.434 108.903 606.937 67.4005 672.009 49.4673" stroke="#0D34A0" stroke-width="5"/>
<path opacity="0.896552" d="M41.5204 664.061C59.4536 598.989 100.956 557.486 166.029 539.553C231.101 521.619 272.603 480.117 290.537 415.044C308.47 349.972 349.973 308.469 415.045 290.536C480.117 272.603 521.62 231.1 539.553 166.028C557.486 100.956 598.989 59.453 664.061 41.5198" stroke="#0D34A0" stroke-width="5"/>
<path opacity="0.931035" d="M33.5724 656.113C51.5056 591.041 93.0084 549.538 158.081 531.605C223.153 513.672 264.655 472.169 282.589 407.097C300.522 342.025 342.025 300.522 407.097 282.589C472.169 264.655 513.672 223.153 531.605 158.08C549.538 93.0082 591.041 51.5054 656.113 33.5721" stroke="#0D34A0" stroke-width="5"/>
<path opacity="0.965517" d="M25.6246 648.165C43.5579 583.093 85.0606 541.591 150.133 523.657C215.205 505.724 256.708 464.221 274.641 399.149C292.574 334.077 334.077 292.574 399.149 274.641C464.221 256.708 505.724 215.205 523.657 150.133C541.591 85.0605 583.093 43.5578 648.166 25.6245" stroke="#0D34A0" stroke-width="5"/>
<path d="M17.6771 640.218C35.6104 575.146 77.1131 533.643 142.185 515.71C207.257 497.777 248.76 456.274 266.693 391.202C284.627 326.13 326.129 284.627 391.202 266.694C456.274 248.76 497.777 207.258 515.71 142.185C533.643 77.1132 575.146 35.6104 640.218 17.6772" stroke="#0D34A0" stroke-width="5"/>
</g>
</svg>
