<svg width="106" height="46" viewBox="0 0 106 46" fill="none" xmlns="http://www.w3.org/2000/svg">
<g clip-path="url(#clip0_139_1920)">
<path fill-rule="evenodd" clip-rule="evenodd" d="M10.6204 33.4785C6.10177 33.4785 4.04522 34.7285 3.23418 37.3447L0.65625 45.6587H88.4797C92.9983 45.6587 95.0549 44.4087 95.8659 41.7924L98.4438 33.4785H10.6204ZM21.1928 21.8796H16.848C10.07 21.8796 14.9942 7.43195 20.7004 7.43195H27.5652C28.6659 7.43195 30.6066 7.63544 31.5625 4.90288L33.0397 0.658691H23.6259C18.528 0.658691 14.5597 2.46102 11.6921 5.48427C6.73901 10.6587 5.05901 18.7314 6.2466 22.6064C7.37625 26.1819 10.4466 28.5366 15.2549 28.5947L18.9914 28.6238H23.5969L24.7266 25.2226C25.5666 22.8099 23.6838 21.8796 21.1928 21.8796ZM74.0838 15.8912L75.5031 11.2692H60.3542C57.8342 11.2692 56.7045 11.9668 56.27 13.4203L54.8507 18.0424H69.9997C72.5197 18.0424 73.6494 17.3447 74.0838 15.8912ZM52.5914 24.0308L51.1721 28.6529H66.3211C68.8121 28.6529 69.9707 27.9552 70.4052 26.5017L71.8245 21.8796H56.6756C54.1845 21.8796 53.0549 22.5773 52.5914 24.0308ZM77.6176 5.30985L79.0369 0.687761H63.888C61.368 0.687761 60.2383 1.38544 59.8038 2.83892L58.3845 7.46102H73.5335C76.0245 7.46102 77.1542 6.76334 77.6176 5.30985ZM54.7349 6.24009C54.0976 1.93776 51.8094 0.687761 46.248 0.687761H36.11L30.2011 18.0424H33.9376C36.168 18.0424 37.2976 18.0715 38.4852 14.8738L40.9473 7.43195H44.7128C47.928 7.43195 47.2038 11.4726 45.5818 15.3971C44.1335 18.8564 41.6135 21.9087 38.5721 21.9087H32.2866C29.7666 21.9087 28.608 22.6064 28.1445 24.0599L26.5804 28.6819H31.1859L35.7045 28.6529C39.7018 28.6238 42.9749 28.3331 46.7983 24.8738C50.8535 21.1819 55.5459 11.7052 54.7349 6.24009ZM105.656 0.658691H96.8797L88.6245 9.46683C87.6687 10.4843 86.6838 11.5017 85.728 12.6936H85.6411L89.7542 0.658691H82.5997L72.9542 28.6529H80.1087L83.179 19.8447L86.3652 17.1412L88.8852 25.1064C89.6673 27.5773 90.4783 28.6529 92.2163 28.6529H97.6907L92.0714 13.0133L105.656 0.658691Z" fill="#747478"/>
<path d="M10.2139 40.397V42.6935H8.93945V36.3272H11.4595C12.0785 36.2853 12.69 36.483 13.1684 36.8795C13.3739 37.0667 13.5371 37.2958 13.6471 37.5515C13.757 37.8072 13.8111 38.0836 13.8057 38.3621C13.8175 38.6414 13.7663 38.9198 13.6559 39.1765C13.5456 39.4332 13.379 39.6616 13.1684 39.8446C12.69 40.2412 12.0785 40.4388 11.4595 40.397H10.2139ZM10.2139 39.4086H11.4595C11.6073 39.4189 11.7557 39.3984 11.8953 39.3483C12.0348 39.2983 12.1626 39.2199 12.2705 39.1179C12.445 38.917 12.5381 38.6576 12.5312 38.3911C12.5431 38.1151 12.4499 37.8449 12.2705 37.6353C12.1642 37.5311 12.0366 37.4511 11.8967 37.4009C11.7567 37.3508 11.6075 37.3316 11.4595 37.3446H10.2139V39.4086ZM17.4264 41.3272H15.196L14.7615 42.6935H13.487L15.6595 36.3272H16.9629L19.1353 42.6935H17.8608L17.4264 41.3272ZM15.5146 40.3098H17.1077L16.3257 37.8098H16.2967L15.5146 40.3098ZM23.7988 37.3156H20.9891V38.5656H22.0898C22.7207 38.5382 23.3394 38.7452 23.8277 39.147C24.0294 39.3372 24.1901 39.5669 24.3 39.8219C24.4098 40.0769 24.4665 40.3517 24.4665 40.6295C24.4665 40.9073 24.4098 41.1822 24.3 41.4371C24.1901 41.6921 24.0294 41.9218 23.8277 42.1121C23.3394 42.5139 22.7207 42.7209 22.0898 42.6935H19.6567V36.3272H23.7988V37.3156ZM20.9891 39.5539V41.6964H22.0898C22.2399 41.7047 22.3901 41.6805 22.5301 41.6253C22.6701 41.5701 22.7965 41.4853 22.9008 41.3766C23.0897 41.1593 23.1927 40.8801 23.1905 40.5917C23.1956 40.4526 23.1726 40.3139 23.1229 40.184C23.0731 40.0541 22.9975 39.9357 22.9008 39.8359C22.7949 39.7295 22.6681 39.6461 22.5286 39.5911C22.389 39.5361 22.2396 39.5105 22.0898 39.5161H20.9891V39.5539ZM30.4319 40.0772C30.4454 40.4338 30.3883 40.7895 30.264 41.1238C30.1397 41.4581 29.9507 41.7643 29.7077 42.0249C29.4611 42.2802 29.1629 42.4797 28.8332 42.6101C28.5035 42.7404 28.1499 42.7986 27.796 42.7807C27.443 42.7912 27.0914 42.7297 26.7628 42.5998C26.4342 42.4699 26.1353 42.2743 25.8843 42.0249C25.6392 41.7658 25.4487 41.4598 25.3243 41.1251C25.1999 40.7905 25.144 40.434 25.1601 40.0772V38.9435C25.1467 38.5869 25.2037 38.2312 25.328 37.8969C25.4523 37.5626 25.6414 37.2563 25.8843 36.9958C26.1309 36.7405 26.4291 36.5409 26.7588 36.4106C27.0885 36.2802 27.4421 36.2221 27.796 36.24C28.1491 36.2294 28.5006 36.291 28.8292 36.4209C29.1578 36.5508 29.4567 36.7464 29.7077 36.9958C29.9571 37.2531 30.1522 37.5582 30.2816 37.8928C30.411 38.2274 30.472 38.5847 30.4608 38.9435V40.0772H30.4319ZM29.1574 38.9435C29.1797 38.5046 29.0463 38.072 28.7808 37.7225C28.6613 37.5692 28.5069 37.4469 28.3304 37.3659C28.154 37.285 27.9608 37.2478 27.767 37.2574C27.5729 37.2447 27.3787 37.2806 27.2017 37.3618C27.0248 37.4429 26.8707 37.5669 26.7532 37.7225C26.5106 38.0819 26.3888 38.5097 26.4057 38.9435V40.1063C26.3837 40.5406 26.506 40.97 26.7532 41.3272C26.8791 41.4731 27.0348 41.5901 27.2097 41.6703C27.3847 41.7505 27.5747 41.792 27.767 41.792C27.9594 41.792 28.1494 41.7505 28.3243 41.6703C28.4993 41.5901 28.6549 41.4731 28.7808 41.3272C29.0337 40.9714 29.1658 40.5433 29.1574 40.1063V38.9435ZM35.6457 37.3156H33.8498V42.6935H32.5753V37.3156H30.7795V36.3272H35.6167V37.3156H35.6457ZM39.3243 41.3272H37.0939L36.6595 42.6935H35.385L37.5574 36.3272H38.8608L41.0332 42.6935H39.7588L39.3243 41.3272ZM37.4126 40.3098H39.0057L38.2236 37.8098H38.1946L37.4126 40.3098ZM45.5519 39.9028H42.916V41.6964H45.9863V42.6848H41.6415V36.3185H45.9863V37.3068H42.916V38.9057H45.5519V39.8941V39.9028ZM48.4195 36.3272L50.0415 41.0074H50.0705L51.6926 36.3272H53.3436V42.6935H52.0691V40.8039L52.185 37.9842H52.156L50.447 42.6935H49.607L47.927 38.0132H47.8981L48.0139 40.8039V42.6935H46.7395V36.3272H48.4195ZM56.7615 42.6935V36.3272H58.905C59.5152 36.2891 60.1223 36.4414 60.6429 36.7632C60.8495 36.9106 61.016 37.1074 61.1274 37.3359C61.2387 37.5644 61.2912 37.8173 61.2801 38.0714C61.2794 38.3499 61.199 38.6223 61.0484 38.8563C60.8878 39.0977 60.6543 39.2811 60.3822 39.3795C60.7194 39.4368 61.0239 39.6166 61.2375 39.8847C61.4512 40.1527 61.5591 40.4902 61.5408 40.833C61.5571 41.0973 61.5103 41.3618 61.4046 41.6044C61.2988 41.847 61.137 42.0609 60.9326 42.2284C60.527 42.5481 59.9767 42.6935 59.2236 42.6935H56.7615ZM58.036 39.0016H58.9629C59.2392 39.0264 59.5155 38.9545 59.745 38.7981C59.8322 38.7233 59.9011 38.6293 59.9463 38.5234C59.9915 38.4176 60.0118 38.3027 60.0057 38.1877C60.0196 38.0647 60 37.9403 59.949 37.8277C59.898 37.715 59.8175 37.6184 59.716 37.5481C59.4756 37.392 59.1903 37.3204 58.905 37.3446H58.036V39.0016ZM58.036 39.8737V41.6964H59.1946C59.4738 41.7083 59.749 41.6264 59.9767 41.4638C60.0696 41.3873 60.1421 41.2888 60.1876 41.1771C60.2331 41.0655 60.2502 40.9442 60.2374 40.8243C60.2502 40.5619 60.1679 40.3037 60.0057 40.0975C59.9104 40.0062 59.7957 39.9379 59.6703 39.8976C59.5448 39.8573 59.4119 39.8461 59.2815 39.865L58.036 39.8737ZM67.276 40.5132C67.3051 40.8175 67.2656 41.1245 67.1603 41.4114C67.055 41.6983 66.8866 41.9576 66.6677 42.1702C66.1724 42.6028 65.5272 42.8221 64.8719 42.7807C64.5294 42.7968 64.1873 42.7404 63.8679 42.6152C63.5486 42.49 63.259 42.2988 63.0181 42.0539C62.5401 41.5432 62.2802 40.865 62.2939 40.1644V38.9144C62.2797 38.569 62.3338 38.2241 62.4531 37.8998C62.5724 37.5755 62.7546 37.2781 62.9891 37.0249C63.2225 36.7763 63.5059 36.5804 63.8206 36.4501C64.1352 36.3197 64.4738 36.2581 64.8139 36.2691C65.478 36.228 66.132 36.4468 66.6388 36.8795C66.862 37.09 67.0352 37.3483 67.1455 37.6351C67.2558 37.922 67.3004 38.23 67.276 38.5365V38.5656H66.0305C66.0548 38.2209 65.9517 37.8794 65.7408 37.6063C65.619 37.4882 65.4729 37.3984 65.3127 37.3432C65.1526 37.2879 64.9823 37.2686 64.8139 37.2865C64.6367 37.2776 64.4602 37.3159 64.3025 37.3976C64.1448 37.4793 64.0114 37.6014 63.916 37.7516C63.6727 38.0997 63.5505 38.5186 63.5684 38.9435V40.2225C63.5505 40.6474 63.6727 41.0663 63.916 41.4144C64.0237 41.5662 64.1676 41.6883 64.3347 41.7696C64.5017 41.8509 64.6865 41.8887 64.8719 41.8795C65.0312 41.8931 65.1915 41.8716 65.3417 41.8163C65.4918 41.7611 65.628 41.6735 65.7408 41.5598C65.8496 41.4268 65.9311 41.2737 65.9808 41.1091C66.0306 40.9444 66.0474 40.7716 66.0305 40.6005H67.276V40.5132ZM72.0843 39.9028H69.4484V41.6964H72.5188V42.6848H68.1739V36.3185H72.5188V37.3068H69.4484V38.9057H72.0843V39.9028ZM77.4429 37.3156H74.5753V42.6935H73.3008V36.3272H77.4429V37.3156ZM83.3229 44.2632H82.1643V42.6935H78.2829V44.2632H77.1243L77.0374 41.7051H77.5298C77.8039 41.4484 78.0125 41.1294 78.1381 40.7749C78.3379 40.1754 78.4359 39.5465 78.4277 38.9144L78.6015 36.2981H82.7146V41.676H83.4677L83.3229 44.2632ZM79.6443 38.9435C79.6245 39.4928 79.5468 40.0385 79.4126 40.5714C79.3185 40.9762 79.1517 41.3604 78.9201 41.7051H81.4112V37.3156H79.7601L79.6443 38.9435ZM87.6388 41.3272H85.4084L84.9739 42.6935H83.6995L85.8719 36.3272H87.1753L89.3477 42.6935H88.0732L87.6388 41.3272ZM85.727 40.3098H87.3201L86.5381 37.8098H86.5091L85.727 40.3098ZM91.2015 40.4842H89.927V36.3272H91.2015V40.4842ZM91.2015 42.6935H89.927V41.5888H91.2015V42.6935Z" fill="#15151D"/>
</g>
<defs>
<clipPath id="clip0_139_1920">
<rect width="105" height="45" fill="white" transform="translate(0.65625 0.658691)"/>
</clipPath>
</defs>
</svg>
