<svg width="115" height="43" viewBox="0 0 115 43" fill="none" xmlns="http://www.w3.org/2000/svg">
<g clip-path="url(#clip0_139_1910)">
<path d="M52.9735 41.2704V9.54584H41.4629V2.0332H74.2811V9.54584H62.7704V41.2704H52.9735Z" fill="#747478"/>
<path d="M114.656 21.6858C114.71 25.1121 113.893 28.4952 112.281 31.5121C110.862 34.2055 108.792 36.4945 106.263 38.1673C104.272 39.4768 102.027 40.3443 99.6777 40.7124C97.1637 41.0987 94.6234 41.2852 92.0804 41.2704H79.9355V2.01958H92.0804C94.6448 2.00794 97.2065 2.18534 99.7452 2.55037C102.153 2.89445 104.456 3.76793 106.492 5.10902C109.053 6.76204 111.142 9.0608 112.551 11.7778C114.094 14.8392 114.859 18.239 114.778 21.6722L114.656 21.6858ZM104.563 21.6042C104.606 19.3256 104.145 17.0659 103.213 14.9898C102.34 13.1663 100.925 11.6629 99.1649 10.6891C97.9234 9.98237 96.5394 9.56826 95.1167 9.47778C93.6728 9.40973 91.9455 9.38251 89.9213 9.38251H89.7189V33.8802H89.8943C92.0804 33.8802 93.9427 33.8802 95.427 33.7714C96.9491 33.6943 98.4263 33.2258 99.7182 32.4104C101.311 31.3981 102.574 29.9356 103.348 28.2049C104.234 26.1229 104.649 23.8681 104.563 21.6042Z" fill="#747478"/>
<path fill-rule="evenodd" clip-rule="evenodd" d="M21.4777 0.658703C26.5524 0.65328 31.4535 2.52204 35.2554 5.91211L29.129 12.9076C27.4963 11.4549 25.4901 10.4965 23.3413 10.1428C21.1924 9.78905 18.9882 10.0543 16.9822 10.908C14.9763 11.7618 13.25 13.1693 12.002 14.9687C10.754 16.7681 10.035 18.8862 9.92777 21.0795C9.82051 23.2727 10.3293 25.4519 11.3956 27.3665C12.462 29.281 14.0425 30.853 15.9555 31.9017C17.8684 32.9504 20.036 33.4332 22.2089 33.2944C24.3819 33.1557 26.4718 32.4011 28.2384 31.1175V26.6943H21.4912V18.8006H36.6723V36.0443C34.3089 38.5793 31.3579 40.4823 28.0846 41.5821C24.8113 42.682 21.3183 42.9442 17.9196 42.3453C14.521 41.7464 11.3231 40.3051 8.61355 38.151C5.90399 35.9968 3.76762 33.1974 2.39649 30.0043C1.02537 26.8112 0.46246 23.3245 0.758368 19.8576C1.05428 16.3907 2.19973 13.0523 4.09175 10.1425C5.98378 7.23272 8.56308 4.8427 11.5978 3.18729C14.6325 1.53189 18.0276 0.662991 21.4777 0.658703Z" fill="#747478"/>
</g>
<defs>
<clipPath id="clip0_139_1910">
<rect width="114" height="42" fill="white" transform="translate(0.65625 0.658691)"/>
</clipPath>
</defs>
</svg>
