<svg width="80" height="77" viewBox="0 0 80 77" fill="none" xmlns="http://www.w3.org/2000/svg">
<g clip-path="url(#clip0_139_1923)">
<path fill-rule="evenodd" clip-rule="evenodd" d="M37.8148 1.47366C23.8402 7.67924 12.2399 15.925 2.10953 26.8747C0.623794 28.4813 0.601974 28.5161 0.681319 29.1975C0.724959 29.573 0.879682 30.8873 1.01655 32.1164C2.56775 45.5941 7.38995 59.6892 14.7155 72.141C15.8779 74.1115 15.4812 73.8966 19.2937 74.6573C33.0827 77.3372 47.2779 77.3372 61.0669 74.6573C64.9806 73.8831 64.5423 74.1289 65.7781 72.0288C73.4983 58.9072 78.2928 44.212 79.5405 29.844L79.6555 28.5297L78.9156 27.6896C69.4081 16.8734 55.7766 7.1063 42.1273 1.31881C40.0048 0.418746 40.2111 0.411004 37.8148 1.47366ZM44.8448 5.67201C56.4332 11.295 65.0243 17.5064 74.3513 27.0006L76.7019 29.3949L76.6027 30.5853C75.599 42.6926 70.626 57.9898 63.9908 69.3789C62.6578 71.6649 63.0664 71.3881 60.2219 71.9359C46.9316 74.4831 33.8873 74.4773 20.2697 71.9204L17.6056 71.421L16.8757 70.2035C10.4289 59.4511 5.69395 45.5438 4.02373 32.459C3.57543 28.9555 3.21838 29.6562 7.71923 25.2411C16.6218 16.5076 26.0876 9.9381 37.0789 4.8726C40.4174 3.32411 39.8937 3.27765 44.8448 5.67975V5.67201ZM38.5508 17.2605C38.5508 17.7812 38.5865 17.8199 39.0665 17.8199H39.5823L39.493 19.6955C39.3819 22.0415 38.7194 24.25 38.1045 24.341C37.7494 24.3913 37.7355 24.4533 37.7355 26.0579V27.7129H39.5346V25.634L41.6214 25.6785L43.7062 25.723L43.6546 26.7218L43.6011 27.7187H45.424V24.5481L44.9757 24.4978L44.5255 24.4455L44.4699 21.9718C44.3985 18.4316 44.4917 17.8219 45.1027 17.8219C45.5411 17.8219 45.5827 17.7735 45.5827 17.2625V16.7031H38.5508V17.2605ZM28.3708 18.2864L27.8352 18.7529L27.8848 20.3478C27.9304 21.8479 27.9106 21.9563 27.5635 22.1944C27.1092 22.5041 27.0318 22.4286 26.7065 21.3427C26.3693 20.224 26.3772 20.1098 26.7879 20.0033C27.1013 19.9239 27.133 19.1071 26.8355 18.7897C26.6907 18.6368 23.501 19.6239 23.501 19.8233C23.501 20.4175 23.8084 20.8124 24.2131 20.7369C24.6951 20.6459 25.5044 22.6977 25.0899 22.9629C24.6118 23.2668 24.229 22.9938 23.6636 21.9467C22.773 20.2956 22.0767 19.8175 21.0611 20.1291C20.5136 20.2995 20.5632 21.484 21.1167 21.484C21.6046 21.484 21.9974 21.8499 22.3068 22.5951C22.6163 23.3403 23.1419 23.8784 23.5228 23.8784C23.6874 23.8784 23.8223 23.95 23.8223 24.0371C23.8245 24.0771 23.8106 24.1162 23.7835 24.1463C23.7564 24.1763 23.7184 24.1948 23.6775 24.1978C23.3383 24.1978 23.1241 25.1888 23.2272 26.2863C23.3304 27.3509 23.3145 27.4206 22.9019 27.7922L22.4715 28.1793L22.9019 28.731C23.3839 29.3485 23.9532 29.3117 24.584 28.6342C24.8915 28.3013 24.9609 26.6541 24.7249 25.3669C24.6217 24.8094 24.9451 24.3526 25.4449 24.3526C26.1214 24.3526 26.5816 27.0509 25.9071 27.0625C25.7365 27.0625 25.7584 27.7342 25.9389 28.0129C26.2424 28.4794 29.4062 27.4496 29.2773 26.9251C29.1285 26.3115 29.0789 26.267 28.591 26.267C28.1784 26.267 28.1209 26.1857 27.863 25.2411C27.7102 24.6759 27.5396 24.1049 27.4881 23.9694C27.3552 23.6345 28.1506 23.4429 28.4997 23.7255C28.6425 23.8397 29.0452 24.4997 29.3943 25.1675C30.1164 26.5689 30.5012 26.9096 31.3899 26.9096C32.0484 26.9096 32.0861 26.8651 32.221 25.9205C32.3023 25.3572 32.2845 25.3282 31.7925 25.2817C31.3502 25.2391 31.1975 25.0882 30.6817 24.1958C30.285 23.5048 29.8883 23.05 29.5054 22.8409C28.9639 22.5409 28.9401 22.4964 29.1682 22.2022C29.3527 21.9641 29.3943 21.5905 29.3388 20.7001C29.2714 19.6007 29.2952 19.4884 29.6661 19.1516C30.037 18.8148 30.0628 18.7839 29.7732 18.3019C29.4023 17.6902 29.0452 17.6864 28.3648 18.2806L28.3708 18.2864ZM42.6053 21.1318L42.5597 24.2849L42.0796 24.3371C41.6896 24.3632 41.2978 24.3476 40.9113 24.2907L40.225 24.19L40.5344 23.3926C40.8518 22.5815 41.1612 20.3343 41.1672 18.8168V17.9806H42.647L42.6053 21.1318ZM54.1441 18.4509C53.9199 18.5438 53.7216 18.8381 53.6204 19.2078C53.178 20.853 53.1503 20.7563 54.1163 20.9324C54.6995 21.0389 54.7114 21.0311 54.9316 20.3517C55.4076 18.8845 57.4607 20.0943 57.4349 21.8247C57.419 22.9203 57.3695 22.9319 55.1339 22.3551C54.8443 22.2815 54.7491 22.3551 54.5904 22.8351C54.3385 23.5803 54.392 23.6481 55.5386 23.8842C56.9489 24.1765 56.9807 24.2094 56.6534 25.0456C55.9591 26.8225 52.9797 27.4651 53.3705 25.754C53.5688 24.8811 53.5391 24.7998 52.9737 24.6527C52.1803 24.4436 52.0454 24.552 51.8113 25.6205C51.5416 26.8631 51.613 27.0102 52.7456 27.527C54.0151 28.1077 55.7925 28.131 56.8458 27.587C59.117 26.4257 59.9898 21.2363 58.2125 19.4807C57.3675 18.6464 55.0744 18.0677 54.148 18.4529L54.1441 18.4509ZM33.9805 24.3584C33.759 24.6014 33.6385 24.9162 33.6426 25.2413C33.6466 25.5664 33.7749 25.8784 34.0023 26.116C35.0854 27.1012 36.8568 25.7018 35.9859 24.552C35.5495 23.9713 34.4804 23.8765 33.9864 24.3584H33.9805ZM47.606 24.6159C47.2668 24.9469 47.2093 25.1249 47.2867 25.5334C47.5862 27.0431 49.8396 26.9347 49.8396 25.4095C49.8396 24.2752 48.4511 23.7836 47.606 24.6159ZM9.26845 31.197C9.40333 31.2783 16.4095 34.2707 24.8498 37.8458L40.1873 44.3592L55.723 37.7781C64.2685 34.1527 71.2449 31.1699 71.2251 31.1505C71.2053 31.1312 70.1401 31.2879 68.8606 31.4989C62.6459 32.5248 54.7273 33.5158 48.941 33.9959C47.4949 34.1159 43.8986 34.1894 40.1873 34.1894C33.6591 34.1894 31.7965 34.0888 25.3101 33.3842C20.6842 32.881 11.7916 31.6267 9.46681 31.1505C9.15935 31.0866 9.10381 31.1041 9.26845 31.2086V31.197ZM29.0908 57.6762C23.0467 64.9212 18.1055 70.8771 18.1333 70.9022C18.1611 70.9274 23.0805 67.6911 29.0631 63.7095C35.0457 59.7279 40.0365 56.4664 40.1535 56.4626C40.3261 56.4626 45.4121 59.7957 61.5767 70.5345C61.9576 70.788 62.271 70.9603 62.271 70.9216C62.271 70.8035 40.3559 44.5701 40.217 44.5237C40.1496 44.5005 35.1429 50.4176 29.0889 57.6704" fill="#747478"/>
</g>
<defs>
<clipPath id="clip0_139_1923">
<rect width="79" height="76" fill="white" transform="translate(0.65625 0.658691)"/>
</clipPath>
</defs>
</svg>
