<svg width="108" height="16" viewBox="0 0 108 16" fill="none" xmlns="http://www.w3.org/2000/svg">
<path d="M106.685 8.20614C107.209 8.38004 107.775 8.09607 107.949 7.57188C108.123 7.04769 107.839 6.48177 107.315 6.30787L106.685 8.20614ZM0.477551 6.40434C0.00663424 6.69288 -0.141211 7.30854 0.147329 7.77945L4.84937 15.4535C5.13791 15.9244 5.75357 16.0723 6.22449 15.7837C6.6954 15.4952 6.84325 14.8795 6.55471 14.4086L2.37512 7.58723L9.19649 3.40764C9.6674 3.1191 9.81525 2.50344 9.52671 2.03252C9.23817 1.5616 8.6225 1.41376 8.15159 1.7023L0.477551 6.40434ZM107.315 6.30787C92.4372 1.37228 82.0887 -0.204086 73.9733 0.0206717C65.8414 0.245885 60.0207 2.27987 54.2551 4.42999C48.4994 6.57646 42.8193 8.82863 34.8022 9.66403C26.7833 10.4996 16.3716 9.91992 1.2335 6.28465L0.766498 8.22936C16.0581 11.9015 26.7053 12.5186 35.0095 11.6533C43.3157 10.7877 49.223 8.44117 54.954 6.30392C60.6752 4.17033 66.2404 2.2356 74.0286 2.01991C81.8334 1.80375 91.9392 3.31427 106.685 8.20614L107.315 6.30787Z" fill="url(#paint0_linear_124_2489)"/>
<defs>
<linearGradient id="paint0_linear_124_2489" x1="7.44867" y1="7.25676" x2="21.5595" y2="43.3961" gradientUnits="userSpaceOnUse">
<stop stop-color="#0044FF"/>
<stop offset="1" stop-color="#00A3FF"/>
</linearGradient>
</defs>
</svg>
