<svg width="175" height="159" viewBox="0 0 175 159" fill="none" xmlns="http://www.w3.org/2000/svg">
<path d="M121.367 50.989L143.799 28.5572C152.023 36.0344 169.191 52.1554 172.062 56.8213C174.933 61.4871 172.959 66.8408 171.613 68.9344L140.209 99.4417L109.253 68.9344H89.5129L80.0915 78.3558C77.699 79.2531 71.927 80.2401 67.979 77.0099C64.031 73.7797 66.0349 67.8876 67.5304 65.3454C71.269 61.9058 79.1052 54.6678 80.5408 53.2322C81.9765 51.7965 84.7281 51.1385 85.9245 50.989H121.367Z" stroke="url(#paint0_linear_110_612)" stroke-width="2" stroke-linejoin="round"/>
<path d="M86.9686 116.605C84.0773 119.771 81.1662 122.181 78.4408 123.261C77.0924 123.795 75.8247 123.99 74.6406 123.822C73.4654 123.656 72.3025 123.122 71.1669 122.085C69.6372 120.688 68.9147 119.405 68.6792 118.22C68.444 117.037 68.6675 115.818 69.285 114.495C69.908 113.161 70.9079 111.774 72.1504 110.293C73.0902 109.174 74.1365 108.038 75.23 106.851C75.5838 106.467 75.9426 106.077 76.3043 105.681C79.2481 102.458 81.9438 99.7303 84.6205 98.3831C85.9331 97.7225 87.194 97.4201 88.446 97.5299C89.6944 97.6395 91.0282 98.1671 92.476 99.3253C94.0099 100.552 94.7185 101.795 94.9345 103.017C95.1541 104.259 94.8893 105.621 94.2099 107.116C92.8306 110.152 89.9274 113.365 86.9686 116.605Z" stroke="url(#paint1_linear_110_612)" stroke-width="2"/>
<path d="M97.5576 127.844C94.8755 130.781 92.1814 133.008 89.6661 134.006C88.4228 134.498 87.2585 134.676 86.1741 134.523C85.0987 134.37 84.032 133.882 82.9871 132.928C81.5745 131.637 80.914 130.459 80.6991 129.378C80.4846 128.299 80.6873 127.182 81.2563 125.963C81.8308 124.733 82.7545 123.451 83.9068 122.078C84.7782 121.04 85.7481 119.987 86.7631 118.885C87.0918 118.528 87.4253 118.166 87.7616 117.798C90.4963 114.803 92.9908 112.281 95.4624 111.037C96.6725 110.428 97.8299 110.152 98.976 110.252C100.118 110.353 101.344 110.836 102.679 111.904C104.093 113.035 104.739 114.174 104.936 115.288C105.137 116.422 104.896 117.672 104.269 119.052C102.994 121.858 100.307 124.833 97.5576 127.844Z" stroke="url(#paint2_linear_110_612)" stroke-width="2"/>
<path d="M105.932 139.398C103.477 142.087 101.018 144.117 98.7308 145.024C97.6015 145.471 96.5493 145.631 95.5731 145.493C94.6059 145.355 93.6435 144.916 92.697 144.052C91.4115 142.878 90.8184 141.812 90.6258 140.844C90.4336 139.878 90.6138 138.873 91.1302 137.767C91.6521 136.649 92.4931 135.48 93.5475 134.224C94.3447 133.274 95.2318 132.311 96.1616 131.302C96.4631 130.975 96.7691 130.642 97.078 130.304C99.5858 127.558 101.862 125.259 104.111 124.127C105.21 123.574 106.255 123.326 107.286 123.416C108.314 123.506 109.422 123.941 110.635 124.912C111.918 125.938 112.497 126.965 112.674 127.962C112.853 128.98 112.639 130.107 112.068 131.363C110.906 133.92 108.455 136.636 105.932 139.398Z" stroke="url(#paint3_linear_110_612)" stroke-width="2"/>
<path d="M73.1288 106.667C70.5109 109.533 67.8836 111.705 65.4329 112.676C64.2219 113.156 63.0894 113.329 62.0357 113.18C60.9909 113.032 59.9538 112.557 58.9367 111.628C57.5602 110.371 56.9188 109.225 56.7103 108.176C56.502 107.128 56.6984 106.044 57.2525 104.857C57.8121 103.658 58.7123 102.408 59.8369 101.068C60.6872 100.056 61.6336 99.028 62.6245 97.9522C62.9455 97.6037 63.2712 97.2501 63.5998 96.8903C66.2701 93.9663 68.7028 91.5074 71.1113 90.2952C72.2899 89.7021 73.4154 89.4337 74.529 89.5314C75.6388 89.6288 76.8309 90.098 78.1318 91.1388C79.5085 92.2401 80.1358 93.3475 80.3269 94.4282C80.5215 95.5295 80.2882 96.7441 79.677 98.0893C78.4341 100.825 75.8142 103.726 73.1288 106.667Z" stroke="url(#paint4_linear_110_612)" stroke-width="2"/>
<path d="M101.178 71.6263L155.014 125.463C159.949 130.398 163.628 142.87 155.014 151.484C146.401 160.097 132.583 159.11 127.199 154.624L111.497 138.922M63.0433 90.917L47.3416 75.2154C39.1166 77.309 19.9748 77.9072 9.20754 63.5508C-1.55974 49.1945 0.533899 30.6508 2.92663 23.1735L31.5 49L50.5 32.5L23.1146 2.98489C33.7321 -0.00601864 57.7488 -1.86038 68.8755 14.6494C80.0022 31.1593 77.998 43.0631 75.6051 46.9513L79.1942 50.5404M102.075 81.4963L150.527 129.949C152.621 133.089 155.103 141.075 148.284 147.894C141.465 154.714 133.629 149.39 128.993 144.305" stroke="url(#paint5_linear_110_612)" stroke-width="2" stroke-linejoin="round"/>
<defs>
<linearGradient id="paint0_linear_110_612" x1="78.7259" y1="25.7872" x2="128.62" y2="123.351" gradientUnits="userSpaceOnUse">
<stop stop-color="#0044FF"/>
<stop offset="1" stop-color="#00A3FF"/>
</linearGradient>
<linearGradient id="paint1_linear_110_612" x1="92.5994" y1="100.812" x2="71.4216" y2="124.001" gradientUnits="userSpaceOnUse">
<stop stop-color="#0044FF"/>
<stop offset="1" stop-color="#00A3FF"/>
</linearGradient>
<linearGradient id="paint2_linear_110_612" x1="102.839" y1="113.229" x2="83.1753" y2="134.76" gradientUnits="userSpaceOnUse">
<stop stop-color="#0044FF"/>
<stop offset="1" stop-color="#00A3FF"/>
</linearGradient>
<linearGradient id="paint3_linear_110_612" x1="110.833" y1="126.06" x2="92.8131" y2="145.792" gradientUnits="userSpaceOnUse">
<stop stop-color="#0044FF"/>
<stop offset="1" stop-color="#00A3FF"/>
</linearGradient>
<linearGradient id="paint4_linear_110_612" x1="78.3021" y1="92.4135" x2="59.1046" y2="113.435" gradientUnits="userSpaceOnUse">
<stop stop-color="#0044FF"/>
<stop offset="1" stop-color="#00A3FF"/>
</linearGradient>
<linearGradient id="paint5_linear_110_612" x1="20.2624" y1="-5.13518" x2="151.929" y2="166.417" gradientUnits="userSpaceOnUse">
<stop stop-color="#0044FF"/>
<stop offset="1" stop-color="#00A3FF"/>
</linearGradient>
</defs>
</svg>
