<svg width="123" height="15" viewBox="0 0 123 15" fill="none" xmlns="http://www.w3.org/2000/svg">
<path d="M1.20507 7.59401C0.664524 7.48075 0.134511 7.82714 0.0212529 8.36769C-0.0920048 8.90824 0.254382 9.43825 0.794929 9.55151L1.20507 7.59401ZM122.048 9.40941C122.51 9.1069 122.639 8.48709 122.337 8.02502L117.407 0.495161C117.105 0.0330911 116.485 -0.096261 116.023 0.206245C115.561 0.508751 115.431 1.12856 115.734 1.59063L120.116 8.28384L113.422 12.6657C112.96 12.9682 112.831 13.588 113.133 14.0501C113.436 14.5122 114.056 14.6415 114.518 14.339L122.048 9.40941ZM0.794929 9.55151C27.2383 15.092 43.1437 12.0628 59.5479 9.1827C75.8668 6.31756 92.7237 3.58881 121.296 9.55167L121.704 7.59385C92.7763 1.5567 75.6332 4.32797 59.2021 7.21283C42.8563 10.0827 27.2617 13.0535 1.20507 7.59401L0.794929 9.55151Z" fill="url(#paint0_linear_116_1789)"/>
<defs>
<linearGradient id="paint0_linear_116_1789" x1="37.5" y1="2.07275" x2="53.6839" y2="49.746" gradientUnits="userSpaceOnUse">
<stop stop-color="#0044FF"/>
<stop offset="1" stop-color="#00A3FF"/>
</linearGradient>
</defs>
</svg>
