<svg width="153" height="157" viewBox="0 0 153 157" fill="none" xmlns="http://www.w3.org/2000/svg">
<path d="M30 110L11 130.5C3.60534 137.895 14.5 149.959 21.5 142L50.5 113M61.9999 110L24.4999 147.5C21.3332 149.833 13.1999 152.7 5.99991 145.5C-1.20009 138.3 2.99991 129.833 5.99991 126.5L50.5 81L58 88C54.8333 93 51.1998 104.4 61.9999 110ZM67 65L86 46C86.6667 45.3333 87.8 42.5 87 36.5C86 29 90 14 99.5 8.00001C109 2.00001 127 -2.49999 140 9.50001L108.5 29.5L118.5 47.5L151.5 32C152.667 38 151.5 52.2 137.5 61C120 72 110.5 63.5 107 66.5C104.2 68.9 98.8333 74.5 96.5 77C94 72.1667 86 64.5 74 72.5L67 65Z" stroke="url(#paint0_linear_110_597)" stroke-width="2" stroke-linejoin="round"/>
<path d="M81.5003 121.5L113 153C116.6 156.6 125 156.167 127 154.5C130 152 136.7 146.3 139.5 143.5C142.3 140.7 142 131.045 139.5 128.5C130.333 119.167 109.5 98.5 107.5 96.5C105 94 93 96 90.5 82C88.9968 73.5821 82.8333 74.8333 80 76.5L74 82C59.3333 67.8333 29.6 39.1 28 37.5C26.4 35.9 25 30.8333 24.5 28.5L8.5 15H6L1 19.5V22L15 39.5C18.6 39.9 21.1667 41.6669 22 42.5003L68 88.5003L61.0003 95.5C59.4003 99.9 63.0003 103.667 65.0003 105C67.5003 105 73.4003 105.9 77.0003 109.5C80.6003 113.1 79.5 119.5 81.5003 121.5Z" stroke="url(#paint1_linear_110_597)" stroke-width="2" stroke-linejoin="round"/>
<defs>
<linearGradient id="paint0_linear_110_597" x1="20.1532" y1="-3.83432" x2="144.459" y2="157.726" gradientUnits="userSpaceOnUse">
<stop stop-color="#0044FF"/>
<stop offset="1" stop-color="#00A3FF"/>
</linearGradient>
<linearGradient id="paint1_linear_110_597" x1="18" y1="9.5" x2="136.5" y2="161.5" gradientUnits="userSpaceOnUse">
<stop stop-color="#0044FF"/>
<stop offset="1" stop-color="#00A3FF"/>
</linearGradient>
</defs>
</svg>
